<?xml version="1.0" standalone="no"?>
<!DOCTYPE svg PUBLIC "-//W3C//DTD SVG 20010904//EN"
 "http://www.w3.org/TR/2001/REC-SVG-20010904/DTD/svg10.dtd">
<svg version="1.0" xmlns="http://www.w3.org/2000/svg"
 width="300.000000pt" height="300.000000pt" viewBox="0 0 300.000000 300.000000"
 preserveAspectRatio="xMidYMid meet">

<g transform="translate(0.000000,300.000000) scale(0.100000,-0.100000)"
fill="#000000" stroke="none">
<path d="M0 2853 l0 -148 205 -205 205 -206 -49 -163 -49 -164 299 -300 c165
-165 301 -298 302 -296 2 2 11 29 20 59 l17 55 -260 260 -261 261 50 164 50
165 -260 260 -260 261 21 64 c25 81 25 80 -5 80 l-25 0 0 -147z"/>
<path d="M90 2976 c-4 -13 -14 -43 -20 -66 l-12 -43 256 -256 c141 -141 256
-262 256 -270 0 -8 -21 -83 -46 -169 l-46 -154 256 -257 c141 -141 256 -262
256 -269 0 -8 -10 -47 -22 -89 l-21 -74 38 -35 c21 -19 42 -31 45 -27 4 5 24
66 45 137 l37 128 -256 257 c-141 141 -256 262 -256 270 0 8 21 83 46 169 l46
154 -257 258 c-280 280 -262 255 -239 338 6 21 3 22 -45 22 -45 0 -53 -3 -61
-24z"/>
<path d="M239 2973 c-5 -16 -12 -35 -15 -42 -3 -10 88 -108 256 -276 l261
-261 -50 -164 -50 -165 259 -260 260 -260 -40 -135 c-22 -74 -45 -147 -50
-163 -9 -26 3 -39 291 -328 165 -166 301 -300 302 -298 2 2 11 29 20 59 l17
55 -260 260 -261 261 50 164 50 165 -260 260 -260 261 50 164 50 165 -259 260
c-221 221 -259 263 -254 283 6 21 3 22 -45 22 -47 0 -52 -2 -62 -27z"/>
<path d="M393 2984 c-4 -11 66 -88 251 -273 141 -141 256 -262 256 -270 0 -8
-21 -83 -46 -169 l-46 -154 256 -257 c141 -141 256 -262 256 -270 0 -8 -21
-83 -46 -169 l-46 -154 259 -262 260 -261 -23 -75 c-13 -41 -24 -78 -24 -82 0
-17 70 -82 78 -73 5 6 26 68 47 139 l37 128 -256 257 c-141 141 -256 262 -256
270 0 8 21 83 46 169 l46 154 -256 257 c-141 141 -256 262 -256 270 0 8 21 83
46 169 l46 154 -258 259 -259 259 -53 0 c-39 0 -54 -4 -59 -16z"/>
<path d="M818 2747 l253 -253 -50 -164 -50 -165 260 -260 260 -261 -50 -164
-50 -165 260 -260 260 -261 -50 -163 -49 -163 233 -234 234 -234 78 0 78 0
-253 253 -253 253 50 164 50 165 -260 260 -260 261 50 164 50 165 -260 260
-260 261 50 163 49 163 -233 234 -234 234 -78 0 -78 0 253 -253z"/>
<path d="M800 2980 c22 -40 48 -42 150 -11 l95 30 -128 0 c-126 1 -128 1 -117
-19z"/>
<path d="M1447 2758 l242 -242 158 47 c87 26 162 47 168 47 5 0 126 -116 267
-257 l257 -257 158 47 c87 26 162 47 168 47 5 0 38 -28 72 -62 l63 -62 0 76
c0 77 0 77 -44 124 l-43 48 -159 -47 c-87 -26 -163 -47 -169 -47 -5 0 -126
116 -267 257 l-257 257 -158 -47 c-87 -26 -163 -47 -168 -47 -6 0 -91 81 -190
180 l-180 180 -80 0 -80 0 242 -242z"/>
<path d="M1584 2841 c87 -88 164 -157 170 -155 6 2 80 24 165 49 l155 46 260
-259 261 -260 135 40 c74 23 137 43 139 45 3 2 -15 21 -38 42 l-43 39 -80 -25
-81 -25 -261 260 -261 260 -164 -49 -164 -50 -101 100 -101 101 -75 0 -75 0
159 -159z"/>
<path d="M1712 2923 l77 -77 158 47 c87 26 162 47 168 47 5 0 125 -115 267
-257 l256 -256 49 13 c26 7 52 17 57 21 5 5 -105 123 -256 274 l-266 265 -136
0 c-96 0 -154 -5 -196 -17 -56 -15 -61 -15 -78 0 -14 13 -38 17 -98 17 l-79 0
77 -77z"/>
<path d="M2290 2993 c0 -11 119 -128 124 -122 9 10 34 113 30 121 -6 10 -154
11 -154 1z"/>
<path d="M2472 2916 l-23 -83 28 -31 c47 -51 52 -47 89 73 18 61 34 113 34
118 0 4 -24 7 -53 7 l-52 0 -23 -84z"/>
<path d="M2645 2988 c-3 -7 -23 -71 -44 -142 l-39 -129 219 -220 219 -219 0
78 0 79 -160 160 -161 161 36 116 c19 64 35 119 35 122 0 12 -101 6 -105 -6z"/>
<path d="M2797 2993 c-3 -5 -19 -57 -37 -117 l-32 -108 136 -137 136 -136 0
75 0 76 -75 74 c-41 41 -75 81 -75 90 0 8 11 51 25 95 14 44 25 83 25 88 0 4
-22 7 -49 7 -28 0 -52 -3 -54 -7z"/>
<path d="M2945 2988 c-3 -7 -16 -49 -30 -93 l-25 -80 55 -55 55 -55 0 148 0
147 -25 0 c-14 0 -28 -6 -30 -12z"/>
<path d="M1020 2948 c-74 -23 -137 -43 -139 -44 -2 -2 14 -22 37 -43 l41 -40
82 26 82 25 261 -260 261 -260 164 49 164 50 261 -259 261 -260 164 50 164 50
89 -89 88 -88 0 75 0 76 -72 71 -73 71 -164 -50 -164 -49 -261 259 -261 260
-164 -50 -165 -49 -260 259 -261 260 -135 -40z"/>
<path d="M1048 2806 c-20 -6 -40 -14 -43 -18 -4 -4 126 -141 289 -304 l297
-297 157 46 c86 26 161 47 167 47 5 0 126 -116 267 -257 l257 -257 158 47 c87
26 162 47 168 47 5 0 60 -51 122 -112 l113 -113 0 80 0 80 -95 95 -94 94 -158
-47 c-87 -26 -162 -47 -168 -47 -5 0 -125 115 -267 257 l-256 256 -159 -47
c-87 -25 -163 -46 -168 -46 -6 0 -125 115 -265 255 -140 140 -262 255 -270
254 -8 -1 -32 -6 -52 -13z"/>
<path d="M0 2570 l0 -75 120 -120 c66 -66 120 -126 120 -133 0 -8 -10 -47 -22
-88 l-21 -75 37 -35 c21 -20 41 -32 45 -27 4 4 25 66 46 137 l38 128 -182 182
-181 181 0 -75z"/>
<path d="M1215 2478 c-2 -7 -21 -69 -41 -137 l-37 -123 257 -257 c141 -141
256 -262 256 -269 0 -7 -21 -83 -46 -168 l-46 -156 256 -257 c141 -141 256
-262 256 -270 0 -8 -21 -83 -46 -169 l-46 -154 258 -259 259 -259 53 0 c39 0
54 4 59 16 4 11 -66 88 -251 273 -141 141 -256 262 -256 270 0 8 21 83 46 169
l46 154 -256 257 c-141 141 -256 262 -256 270 0 8 21 83 46 169 l46 154 -259
262 -260 261 25 82 25 83 -37 35 c-42 39 -45 40 -51 23z"/>
<path d="M0 2358 l0 -77 80 -82 c44 -45 82 -80 84 -78 2 2 11 29 19 59 l16 55
-99 100 -100 100 0 -77z"/>
<path d="M1318 2322 l-17 -57 260 -260 260 -261 -50 -164 -50 -165 260 -260
260 -261 -50 -164 -50 -165 259 -260 c224 -224 259 -263 253 -283 -5 -22 -4
-23 47 -20 52 3 53 4 67 43 l13 39 -260 261 -261 261 50 164 50 165 -260 260
-260 261 50 163 49 163 -298 299 c-164 165 -299 299 -301 299 -2 0 -12 -26
-21 -58z"/>
<path d="M1770 2198 c-74 -22 -137 -43 -140 -45 -3 -3 14 -22 38 -43 l43 -38
81 25 81 25 261 -260 261 -260 164 49 164 50 139 -138 138 -138 0 75 0 75
-122 122 -123 121 -164 -50 -164 -50 -261 260 -261 260 -135 -40z"/>
<path d="M0 2137 l0 -72 195 -195 194 -194 56 18 c30 9 55 20 55 23 0 8 -487
493 -495 493 -3 0 -5 -33 -5 -73z"/>
<path d="M1798 2056 c-20 -6 -40 -14 -44 -19 -4 -4 127 -141 291 -303 l298
-297 156 47 c86 25 160 46 166 46 5 0 83 -73 172 -162 l163 -163 0 80 0 80
-145 145 -144 144 -158 -47 c-87 -26 -163 -47 -168 -47 -6 0 -125 115 -265
255 -140 140 -262 255 -270 254 -8 -1 -32 -6 -52 -13z"/>
<path d="M0 1930 l0 -75 173 -172 172 -171 135 40 c74 23 137 43 140 45 3 3
-14 22 -38 43 l-42 38 -82 -25 -81 -25 -189 189 -188 188 0 -75z"/>
<path d="M0 1715 l0 -80 145 -145 144 -144 158 47 c87 26 162 47 168 47 5 0
125 -115 267 -257 l256 -256 49 13 c26 7 52 17 57 21 5 4 -125 141 -288 305
l-298 297 -156 -47 c-87 -25 -161 -46 -167 -46 -5 0 -83 73 -172 162 l-163
163 0 -80z"/>
<path d="M1967 1733 c-2 -4 -21 -66 -42 -137 l-37 -129 256 -256 c141 -141
256 -262 256 -270 0 -8 -21 -83 -46 -169 l-46 -154 257 -258 c280 -280 262
-255 239 -338 -6 -22 -5 -23 47 -20 l54 3 18 64 19 63 -256 257 c-141 141
-256 262 -256 270 0 8 21 83 46 169 l46 154 -259 262 -260 261 25 83 26 83
-25 22 c-44 39 -57 48 -62 40z"/>
<path d="M2067 1573 l-16 -58 260 -260 260 -261 -50 -164 -50 -165 260 -260
260 -261 -21 -64 c-25 -81 -25 -80 5 -80 l25 0 0 147 0 148 -205 205 -205 206
49 164 50 164 -300 298 c-164 164 -300 298 -302 298 -2 0 -11 -26 -20 -57z"/>
<path d="M0 1500 l0 -75 123 -122 122 -121 164 50 165 49 260 -259 261 -260
135 40 c74 23 137 42 139 44 2 2 -16 21 -40 42 l-43 39 -79 -24 -80 -25 -261
260 -261 260 -164 -49 -164 -50 -139 138 -138 138 0 -75z"/>
<path d="M2520 1448 c-74 -23 -137 -42 -139 -44 -2 -2 15 -21 38 -43 l41 -39
82 25 81 25 189 -189 188 -188 0 75 0 75 -172 172 -173 171 -135 -40z"/>
<path d="M0 1285 l0 -80 95 -95 94 -94 158 47 c87 26 162 47 168 47 5 0 126
-116 267 -257 l257 -257 158 47 c87 26 162 47 168 47 5 0 126 -116 267 -257
l257 -257 56 18 c30 9 55 19 55 23 0 5 -554 559 -582 581 -14 11 -40 6 -167
-32 -83 -25 -156 -46 -163 -46 -7 0 -129 116 -270 257 l-257 257 -158 -47
c-87 -26 -162 -47 -168 -47 -5 0 -60 51 -122 112 l-113 113 0 -80z"/>
<path d="M2548 1306 c-20 -6 -40 -14 -44 -18 -4 -5 106 -121 244 -258 l252
-251 0 78 0 78 -193 193 c-106 105 -199 192 -207 191 -8 -1 -32 -6 -52 -13z"/>
<path d="M0 1070 l0 -76 73 -71 72 -71 164 50 164 49 261 -260 261 -259 164
49 164 50 261 -259 261 -260 135 40 c74 23 137 43 140 45 3 3 -15 22 -38 43
l-44 38 -80 -25 -81 -25 -261 260 -261 260 -164 -49 -164 -50 -261 259 -261
260 -164 -50 -165 -49 -88 88 -88 88 0 -75z"/>
<path d="M2715 978 c-2 -7 -21 -69 -41 -137 l-37 -123 182 -182 181 -181 0 75
0 75 -120 120 c-66 66 -120 126 -120 133 0 8 10 47 21 88 24 81 23 86 -33 125
-21 16 -29 17 -33 7z"/>
<path d="M0 854 l0 -80 47 -43 46 -43 156 46 c86 25 160 46 166 46 5 0 126
-116 267 -257 l257 -257 158 47 c87 26 163 47 168 47 6 0 91 -81 190 -180
l180 -180 80 0 80 0 -242 242 -242 242 -158 -47 c-87 -26 -162 -47 -168 -47
-5 0 -126 116 -267 257 l-257 257 -158 -47 c-87 -26 -162 -47 -168 -47 -5 0
-38 28 -72 62 l-63 62 0 -80z"/>
<path d="M2818 822 l-17 -57 99 -100 100 -100 0 78 0 78 -79 79 c-43 44 -80
80 -82 80 -2 0 -12 -26 -21 -58z"/>
<path d="M270 698 c-74 -23 -137 -43 -140 -45 -2 -2 15 -21 37 -43 l42 -39 82
25 82 26 261 -260 261 -260 164 50 164 49 102 -101 101 -101 72 3 72 3 -157
156 -158 157 -164 -50 -164 -50 -261 260 -261 260 -135 -40z"/>
<path d="M0 638 l0 -73 160 -160 161 -161 -36 -116 c-19 -64 -35 -119 -35
-123 0 -3 23 -5 52 -3 l52 3 42 139 42 138 -214 214 c-119 118 -217 214 -220
214 -2 0 -4 -33 -4 -72z"/>
<path d="M296 554 c-22 -8 -41 -16 -44 -18 -2 -3 115 -124 261 -270 l266 -266
135 0 c96 0 154 5 196 17 56 15 61 15 78 0 14 -13 38 -17 98 -17 l79 0 -77 77
-77 77 -158 -47 c-87 -26 -163 -47 -168 -47 -6 0 -125 115 -265 255 -140 140
-262 255 -270 254 -8 0 -33 -7 -54 -15z"/>
<path d="M0 430 l0 -76 75 -74 c41 -41 75 -81 75 -90 0 -8 -11 -51 -25 -95
-14 -44 -25 -84 -25 -88 0 -4 24 -7 52 -5 l53 3 34 114 34 113 -137 137 -136
136 0 -75z"/>
<path d="M0 147 l0 -148 27 3 c25 3 29 11 55 93 l28 90 -55 55 -55 55 0 -148z"/>
<path d="M466 228 c-15 -44 -66 -216 -66 -222 0 -4 24 -6 52 -4 l53 3 24 82
c26 90 26 94 -31 134 -21 16 -29 17 -32 7z"/>
<path d="M567 73 c-8 -32 -13 -61 -11 -65 3 -4 41 -8 85 -8 l81 0 -64 65 c-34
36 -65 65 -69 65 -3 0 -13 -26 -22 -57z"/>
<path d="M2045 30 l-90 -29 128 0 c70 -1 127 1 127 4 0 12 -50 55 -62 54 -7 0
-53 -14 -103 -29z"/>
</g>
</svg>
