<?xml version="1.0" standalone="no"?>
<!DOCTYPE svg PUBLIC "-//W3C//DTD SVG 20010904//EN"
 "http://www.w3.org/TR/2001/REC-SVG-20010904/DTD/svg10.dtd">
<svg version="1.0" xmlns="http://www.w3.org/2000/svg"
 width="300.000000pt" height="300.000000pt" viewBox="0 0 300.000000 300.000000"
 preserveAspectRatio="xMidYMid meet">

<g transform="translate(0.000000,300.000000) scale(0.100000,-0.100000)"
fill="#000000" stroke="none">
<path d="M500 2715 c277 -278 285 -285 288 -254 3 30 -14 50 -250 286 -234
234 -255 253 -288 253 -34 0 -28 -7 250 -285z"/>
<path d="M550 2765 c230 -230 235 -235 238 -204 3 30 -11 47 -200 236 -187
187 -206 203 -238 203 -34 0 -30 -4 200 -235z"/>
<path d="M433 2983 c16 -16 18 -16 34 0 16 16 15 17 -17 17 -32 0 -33 -1 -17
-17z"/>
<path d="M657 2858 c136 -136 144 -142 160 -125 17 16 11 23 -107 142 -112
113 -128 125 -160 125 l-35 0 142 -142z"/>
<path d="M732 2883 c112 -112 119 -117 135 -100 17 16 12 22 -82 117 -88 89
-104 100 -135 100 l-35 0 117 -117z"/>
<path d="M807 2908 c88 -88 94 -92 110 -75 17 16 14 21 -57 92 -65 65 -79 75
-110 75 l-35 0 92 -92z"/>
<path d="M882 2933 c64 -64 69 -67 85 -50 16 16 15 20 -32 67 -41 41 -55 50
-85 50 l-35 0 67 -67z"/>
<path d="M958 2958 c39 -40 43 -42 59 -25 16 16 16 18 -7 42 -17 18 -34 25
-59 25 l-36 0 43 -42z"/>
<path d="M1033 2983 c16 -16 18 -16 34 0 16 16 15 17 -17 17 -32 0 -33 -1 -17
-17z"/>
<path d="M962 2847 l-152 -152 0 -200 0 -200 -147 -147 -148 -148 142 -142
c136 -136 144 -142 160 -125 17 16 11 23 -107 142 l-125 125 153 153 152 152
0 200 0 200 147 147 c147 148 148 148 113 148 -32 0 -49 -14 -188 -153z"/>
<path d="M1062 2847 l-152 -152 0 -200 0 -200 -148 -148 -148 -148 118 -116
c112 -111 119 -116 135 -100 17 16 12 23 -82 117 l-100 100 153 153 152 152 0
200 0 200 147 147 c147 148 148 148 113 148 -32 0 -49 -14 -188 -153z"/>
<path d="M1162 2847 l-152 -152 0 -200 0 -200 -147 -147 -148 -148 92 -92 c88
-88 94 -92 110 -75 17 16 14 21 -57 92 l-75 75 153 153 152 152 0 200 0 200
147 147 c147 148 148 148 113 148 -32 0 -49 -14 -188 -153z"/>
<path d="M1262 2847 l-152 -152 0 -200 0 -200 -147 -147 -148 -148 67 -67 c64
-64 69 -67 85 -50 16 16 15 20 -32 67 l-50 50 153 153 152 152 0 200 0 200
147 147 c147 148 148 148 113 148 -32 0 -49 -14 -188 -153z"/>
<path d="M1533 2983 c16 -16 18 -16 34 0 16 16 15 17 -17 17 -32 0 -33 -1 -17
-17z"/>
<path d="M1440 2825 c-166 -166 -174 -176 -157 -192 16 -17 27 -8 210 175 190
190 192 192 157 192 -32 0 -50 -15 -210 -175z"/>
<path d="M1515 2800 c-190 -190 -199 -201 -182 -217 16 -17 28 -7 235 200 213
213 216 217 182 217 -32 0 -51 -16 -235 -200z"/>
<path d="M1810 2903 l0 -98 152 -152 153 -153 -145 -145 c-145 -145 -145 -145
-110 -145 32 0 49 14 180 145 l145 145 -148 148 -147 147 0 103 0 102 -40 0
-40 0 0 -97z"/>
<path d="M1910 2903 l0 -98 152 -152 153 -153 -145 -145 c-145 -145 -145 -145
-110 -145 32 0 49 14 180 145 l145 145 -148 148 -147 147 0 103 0 102 -40 0
-40 0 0 -97z"/>
<path d="M2010 2903 l0 -98 152 -152 153 -153 -145 -145 c-145 -145 -145 -145
-110 -145 32 0 49 14 180 145 l145 145 -148 148 -147 147 0 103 0 102 -40 0
-40 0 0 -97z"/>
<path d="M2110 2903 l0 -98 152 -152 153 -153 -145 -145 c-145 -145 -145 -145
-110 -145 32 0 49 14 180 145 l145 145 -148 148 -147 147 0 103 0 102 -40 0
-40 0 0 -97z"/>
<path d="M2210 2963 l0 -37 35 34 c19 19 35 35 35 37 0 2 -16 3 -35 3 -34 0
-35 -1 -35 -37z"/>
<path d="M2261 2946 c-44 -45 -52 -58 -49 -85 l3 -32 85 86 85 85 -36 0 c-29
0 -44 -9 -88 -54z"/>
<path d="M2582 2833 c159 -159 169 -167 185 -150 17 16 10 25 -132 167 -136
136 -153 150 -185 150 -35 0 -34 -1 132 -167z"/>
<path d="M2660 2855 c131 -131 148 -145 180 -145 35 0 35 0 -110 145 -131 131
-148 145 -180 145 -35 0 -35 0 110 -145z"/>
<path d="M2760 2855 c131 -131 148 -145 180 -145 35 0 35 0 -110 145 -131 131
-148 145 -180 145 -35 0 -35 0 110 -145z"/>
<path d="M2855 2860 c139 -139 140 -140 143 -109 3 29 -7 43 -105 141 -96 96
-111 108 -143 108 l-35 0 140 -140z"/>
<path d="M2905 2910 l90 -91 3 32 c3 27 -5 40 -54 90 -49 50 -64 59 -93 59
l-36 0 90 -90z"/>
<path d="M2933 2983 c16 -16 18 -16 34 0 16 16 15 17 -17 17 -32 0 -33 -1 -17
-17z"/>
<path d="M0 2950 l0 -40 102 0 103 0 292 -292 c286 -286 293 -292 293 -258 0
33 -21 56 -298 333 l-297 297 -98 0 -97 0 0 -40z"/>
<path d="M479 2964 c-11 -13 9 -37 147 -175 157 -157 159 -159 162 -128 3 30
-9 44 -140 176 -78 78 -146 143 -149 143 -4 0 -12 -7 -20 -16z"/>
<path d="M1355 2840 c-133 -133 -139 -141 -122 -157 16 -17 24 -11 159 124
122 122 140 144 129 157 -8 9 -16 16 -20 16 -3 0 -69 -63 -146 -140z"/>
<path d="M2379 2964 c-11 -13 10 -38 154 -182 158 -158 168 -166 184 -149 17
16 9 25 -147 182 -91 91 -168 165 -171 165 -4 0 -12 -7 -20 -16z"/>
<path d="M2980 2964 c-11 -12 -10 -18 3 -32 16 -15 17 -14 17 16 0 36 -2 38
-20 16z"/>
<path d="M1575 2760 c-199 -199 -209 -211 -192 -227 16 -17 27 -8 213 178 181
181 195 198 192 228 -3 31 -7 27 -213 -179z"/>
<path d="M2329 2914 c-11 -13 10 -38 154 -182 158 -158 168 -166 184 -149 17
16 9 25 -147 182 -91 91 -168 165 -171 165 -4 0 -12 -7 -20 -16z"/>
<path d="M0 2850 l0 -40 102 0 103 0 147 -147 c140 -140 149 -147 165 -130 17
16 9 26 -152 187 l-170 170 -97 0 -98 0 0 -40z"/>
<path d="M2279 2864 c-11 -13 10 -38 154 -182 158 -158 168 -166 184 -149 17
16 9 25 -147 182 -91 91 -168 165 -171 165 -4 0 -12 -7 -20 -16z"/>
<path d="M1600 2685 c-175 -176 -184 -186 -167 -202 16 -17 26 -9 188 153 157
157 170 173 167 203 -3 31 -6 28 -188 -154z"/>
<path d="M2229 2814 c-11 -13 10 -38 154 -182 158 -158 168 -166 184 -149 17
16 9 25 -147 182 -91 91 -168 165 -171 165 -4 0 -12 -7 -20 -16z"/>
<path d="M0 2753 l0 -37 35 34 c19 19 35 35 35 37 0 2 -16 3 -35 3 -34 0 -35
-1 -35 -37z"/>
<path d="M51 2736 c-44 -45 -52 -58 -49 -85 l3 -32 85 86 85 85 -36 0 c-29 0
-44 -9 -88 -54z"/>
<path d="M179 2764 c-11 -13 5 -32 112 -140 l124 -124 -153 -153 -152 -152 0
-200 0 -201 -55 -54 c-46 -45 -55 -60 -55 -89 l0 -36 95 95 95 95 0 200 0 200
147 147 148 148 -140 140 c-77 77 -143 140 -146 140 -4 0 -12 -7 -20 -16z"/>
<path d="M1655 2640 l-140 -140 142 -142 c136 -136 144 -142 160 -125 17 16
11 23 -107 142 l-125 125 124 124 c107 108 123 127 112 140 -8 9 -16 16 -20
16 -3 0 -69 -63 -146 -140z"/>
<path d="M130 2714 c-12 -13 0 -29 86 -115 l99 -99 -152 -153 -151 -152 -4
-237 -3 -238 42 42 43 42 0 200 0 201 147 147 148 148 -115 115 c-63 63 -118
115 -121 115 -4 0 -12 -7 -19 -16z"/>
<path d="M1730 2615 l-115 -115 117 -117 c112 -112 119 -117 135 -100 17 16
12 22 -82 117 l-100 100 99 99 c86 86 98 102 86 115 -7 9 -15 16 -19 16 -3 0
-58 -52 -121 -115z"/>
<path d="M2535 2420 c-256 -256 -269 -271 -252 -287 16 -17 29 -5 265 230
l247 247 103 0 102 0 0 40 0 40 -98 0 -97 0 -270 -270z"/>
<path d="M80 2664 c-12 -13 -3 -26 61 -90 l74 -74 -108 -108 c-98 -98 -108
-112 -105 -141 3 -31 4 -30 143 109 l140 140 -90 90 c-49 49 -93 90 -96 90 -4
0 -12 -7 -19 -16z"/>
<path d="M1805 2590 l-90 -90 92 -92 c88 -88 94 -92 110 -75 17 16 14 21 -57
92 l-74 75 73 74 c64 64 73 77 61 90 -7 9 -15 16 -19 16 -3 0 -47 -41 -96 -90z"/>
<path d="M1210 2640 c0 -32 21 -56 297 -332 l298 -298 200 0 200 0 222 -222
c212 -212 224 -222 240 -205 17 16 5 29 -227 262 l-245 245 -200 0 -200 0
-292 292 c-285 285 -293 292 -293 258z"/>
<path d="M30 2615 c-11 -14 -6 -23 36 -66 l48 -49 -57 -58 c-47 -48 -57 -63
-57 -92 l0 -35 92 92 93 93 -65 65 c-35 36 -67 65 -71 65 -4 0 -12 -7 -19 -15z"/>
<path d="M1880 2565 l-65 -65 68 -67 c63 -64 68 -67 84 -50 16 16 15 20 -32
67 l-49 50 49 50 c41 42 46 51 35 65 -7 8 -15 15 -19 15 -4 0 -36 -29 -71 -65z"/>
<path d="M2560 2345 c-232 -233 -244 -246 -227 -262 16 -17 28 -7 240 205
l222 222 103 0 102 0 0 40 0 40 -98 0 -97 0 -245 -245z"/>
<path d="M0 2549 c0 -25 7 -42 25 -59 24 -23 26 -23 42 -7 17 16 15 20 -25 59
l-42 43 0 -36z"/>
<path d="M1955 2540 l-39 -40 42 -42 c39 -40 43 -42 59 -25 16 16 16 18 -7 42
l-23 25 23 25 c19 20 21 27 10 40 -18 21 -21 20 -65 -25z"/>
<path d="M1210 2540 c0 -32 21 -56 297 -332 l298 -298 200 0 200 0 197 -197
c188 -188 199 -197 215 -180 17 16 7 28 -202 237 l-220 220 -200 0 -200 0
-292 292 c-285 285 -293 292 -293 258z"/>
<path d="M380 2365 c-156 -157 -164 -166 -147 -182 16 -17 26 -9 184 149 144
144 165 169 154 182 -8 9 -16 16 -20 16 -3 0 -80 -74 -171 -165z"/>
<path d="M2030 2514 c-11 -12 -10 -18 3 -32 16 -15 18 -15 34 0 13 14 14 20 3
32 -7 9 -16 16 -20 16 -4 0 -13 -7 -20 -16z"/>
<path d="M2585 2270 c-209 -209 -219 -221 -202 -237 16 -17 27 -8 215 180
l197 197 103 0 102 0 0 40 0 40 -98 0 -97 0 -220 -220z"/>
<path d="M0 2450 c0 -32 1 -33 17 -17 16 16 16 18 0 34 -16 16 -17 15 -17 -17z"/>
<path d="M431 2316 c-155 -155 -163 -165 -149 -184 14 -20 21 -14 183 148 146
146 167 171 156 184 -8 9 -16 16 -20 16 -3 0 -80 -74 -170 -164z"/>
<path d="M1479 2464 c-11 -13 11 -38 157 -185 l169 -169 200 0 200 0 247 -247
c236 -235 249 -247 265 -230 17 16 4 31 -252 287 l-270 270 -200 0 -200 0
-145 145 c-80 80 -148 145 -151 145 -4 0 -12 -7 -20 -16z"/>
<path d="M2355 2340 c-133 -133 -139 -141 -122 -157 16 -17 24 -11 159 124
122 122 140 144 129 157 -8 9 -16 16 -20 16 -3 0 -69 -63 -146 -140z"/>
<path d="M1210 2440 c0 -32 21 -56 297 -332 l298 -298 200 0 200 0 172 -172
c164 -164 174 -172 190 -155 17 16 8 27 -177 212 l-195 195 -200 0 -200 0
-292 292 c-285 285 -293 292 -293 258z"/>
<path d="M480 2265 c-156 -157 -164 -166 -147 -182 16 -17 26 -9 184 149 144
144 165 169 154 182 -8 9 -16 16 -20 16 -3 0 -80 -74 -171 -165z"/>
<path d="M2610 2195 c-185 -185 -194 -196 -177 -212 16 -17 26 -9 190 155
l172 172 103 0 102 0 0 40 0 40 -98 0 -97 0 -195 -195z"/>
<path d="M530 2215 c-156 -157 -164 -166 -147 -182 16 -17 26 -9 184 149 144
144 165 169 154 182 -8 9 -16 16 -20 16 -3 0 -80 -74 -171 -165z"/>
<path d="M1210 2340 c0 -32 13 -49 145 -180 138 -137 146 -144 162 -127 17 16
10 25 -145 180 -161 161 -162 162 -162 127z"/>
<path d="M580 2165 c-156 -157 -164 -166 -147 -182 16 -17 26 -9 184 149 144
144 165 169 154 182 -8 9 -16 16 -20 16 -3 0 -80 -74 -171 -165z"/>
<path d="M2910 2205 l85 -86 3 32 c3 27 -5 40 -49 85 -44 45 -59 54 -88 54
l-36 0 85 -85z"/>
<path d="M2960 2255 c19 -19 35 -35 37 -35 2 0 3 16 3 35 0 34 -1 35 -37 35
l-37 0 34 -35z"/>
<path d="M1179 2264 c-11 -13 5 -32 112 -140 l124 -124 -145 -145 c-145 -145
-145 -145 -110 -145 32 0 49 14 180 145 l145 145 -140 140 c-77 77 -143 140
-146 140 -4 0 -12 -7 -20 -16z"/>
<path d="M2655 2140 l-140 -140 145 -145 c131 -131 148 -145 180 -145 35 0 35
0 -110 145 l-145 145 124 124 c107 108 123 127 112 140 -8 9 -16 16 -20 16 -3
0 -69 -63 -146 -140z"/>
<path d="M1130 2214 c-12 -13 0 -29 86 -115 l99 -99 -145 -145 c-145 -145
-145 -145 -110 -145 32 0 49 14 180 145 l145 145 -115 115 c-63 63 -118 115
-121 115 -4 0 -12 -7 -19 -16z"/>
<path d="M2730 2115 l-115 -115 145 -145 c131 -131 148 -145 180 -145 35 0 35
0 -110 145 l-145 145 99 99 c86 86 98 102 86 115 -7 9 -15 16 -19 16 -3 0 -58
-52 -121 -115z"/>
<path d="M1080 2164 c-12 -13 -3 -26 61 -90 l74 -74 -145 -145 c-145 -145
-145 -145 -110 -145 32 0 49 14 180 145 l145 145 -90 90 c-49 49 -93 90 -96
90 -4 0 -12 -7 -19 -16z"/>
<path d="M2805 2090 l-90 -90 140 -140 c139 -139 140 -140 143 -109 3 29 -7
43 -105 141 l-108 108 74 74 c64 64 73 77 61 90 -7 9 -15 16 -19 16 -3 0 -47
-41 -96 -90z"/>
<path d="M210 2140 c0 -32 21 -56 297 -332 l298 -298 200 0 200 0 222 -222
c212 -212 224 -222 240 -205 17 16 5 29 -227 262 l-245 245 -200 0 -200 0
-292 292 c-285 285 -293 292 -293 258z"/>
<path d="M1030 2115 c-11 -14 -6 -23 36 -66 l48 -49 -144 -145 c-145 -145
-145 -145 -110 -145 32 0 49 14 180 145 l145 145 -65 65 c-35 36 -67 65 -71
65 -4 0 -12 -7 -19 -15z"/>
<path d="M2880 2065 l-65 -65 93 -93 92 -92 0 35 c0 29 -10 44 -57 92 l-57 58
48 49 c42 43 47 52 36 66 -7 8 -15 15 -19 15 -4 0 -36 -29 -71 -65z"/>
<path d="M979 2064 c-11 -13 -6 -21 29 -57 40 -39 43 -41 59 -24 16 16 15 19
-22 57 -44 45 -47 46 -66 24z"/>
<path d="M2955 2041 c-37 -39 -38 -42 -22 -58 16 -16 19 -16 43 8 19 19 25 34
22 58 l-3 32 -40 -40z"/>
<path d="M210 2040 c0 -32 21 -56 297 -332 l298 -298 200 0 200 0 197 -197
c188 -188 199 -197 215 -180 17 16 7 28 -202 237 l-220 220 -200 0 -200 0
-292 292 c-285 285 -293 292 -293 258z"/>
<path d="M929 2014 c-11 -13 -6 -21 29 -57 40 -39 43 -41 59 -24 16 16 15 19
-22 57 -44 45 -47 46 -66 24z"/>
<path d="M1380 1865 c-156 -157 -164 -166 -147 -182 16 -17 26 -9 184 149 144
144 165 169 154 182 -8 9 -16 16 -20 16 -3 0 -80 -74 -171 -165z"/>
<path d="M479 1964 c-11 -13 11 -38 157 -185 l169 -169 200 0 200 0 247 -247
c236 -235 249 -247 265 -230 17 16 4 31 -252 287 l-270 270 -200 0 -200 0
-145 145 c-80 80 -148 145 -151 145 -4 0 -12 -7 -20 -16z"/>
<path d="M1430 1815 c-156 -157 -164 -166 -147 -182 16 -17 26 -9 184 149 144
144 165 169 154 182 -8 9 -16 16 -20 16 -3 0 -80 -74 -171 -165z"/>
<path d="M2479 1964 c-11 -13 7 -35 129 -157 135 -135 143 -141 159 -124 17
16 11 24 -122 157 -77 77 -143 140 -146 140 -4 0 -12 -7 -20 -16z"/>
<path d="M2980 1964 c-11 -12 -10 -18 3 -32 16 -15 17 -14 17 16 0 36 -2 38
-20 16z"/>
<path d="M210 1940 c0 -32 21 -56 297 -332 l298 -298 200 0 200 0 172 -172
c164 -164 174 -172 190 -155 17 16 8 27 -177 212 l-195 195 -200 0 -200 0
-292 292 c-285 285 -293 292 -293 258z"/>
<path d="M1480 1765 c-156 -157 -164 -166 -147 -182 16 -17 26 -9 184 149 144
144 165 169 154 182 -8 9 -16 16 -20 16 -3 0 -80 -74 -171 -165z"/>
<path d="M1530 1715 c-156 -157 -164 -166 -147 -182 16 -17 26 -9 184 149 144
144 165 169 154 182 -8 9 -16 16 -20 16 -3 0 -80 -74 -171 -165z"/>
<path d="M210 1840 c0 -32 13 -49 145 -180 138 -137 146 -144 162 -127 17 16
10 25 -145 180 -161 161 -162 162 -162 127z"/>
<path d="M1580 1665 c-156 -157 -164 -166 -147 -182 16 -17 26 -9 184 149 144
144 165 169 154 182 -8 9 -16 16 -20 16 -3 0 -80 -74 -171 -165z"/>
<path d="M1660 1645 l-145 -145 148 -148 147 -147 0 -200 0 -200 152 -152 153
-153 -145 -145 c-145 -145 -145 -145 -110 -145 32 0 49 14 180 145 l145 145
-148 148 -147 147 0 200 0 200 -152 152 -153 153 145 145 c145 145 145 145
110 145 -32 0 -49 -14 -180 -145z"/>
<path d="M1760 1645 l-145 -145 148 -148 147 -147 0 -200 0 -200 152 -152 153
-153 -145 -145 c-145 -145 -145 -145 -110 -145 32 0 49 14 180 145 l145 145
-148 148 -147 147 0 200 0 200 -152 152 -153 153 145 145 c145 145 145 145
110 145 -32 0 -49 -14 -180 -145z"/>
<path d="M1860 1645 l-145 -145 148 -148 147 -147 0 -200 0 -200 152 -152 153
-153 -145 -145 c-145 -145 -145 -145 -110 -145 32 0 49 14 180 145 l145 145
-148 148 -147 147 0 200 0 200 -152 152 -153 153 145 145 c145 145 145 145
110 145 -32 0 -49 -14 -180 -145z"/>
<path d="M1960 1645 l-145 -145 148 -148 147 -147 0 -200 0 -200 152 -152 153
-153 -145 -145 c-145 -145 -145 -145 -110 -145 32 0 49 14 180 145 l145 145
-148 148 -147 147 0 200 0 200 -152 152 -153 153 145 145 c145 145 145 145
110 145 -32 0 -49 -14 -180 -145z"/>
<path d="M179 1764 c-11 -13 5 -32 112 -140 l124 -124 -125 -125 c-118 -119
-124 -126 -107 -142 16 -17 24 -11 160 125 l142 142 -140 140 c-77 77 -143
140 -146 140 -4 0 -12 -7 -20 -16z"/>
<path d="M2179 1764 c-11 -13 5 -32 112 -140 l124 -124 -125 -125 c-118 -119
-124 -126 -107 -142 16 -17 24 -11 160 125 l142 142 -140 140 c-77 77 -143
140 -146 140 -4 0 -12 -7 -20 -16z"/>
<path d="M130 1714 c-12 -13 0 -29 86 -115 l99 -99 -100 -100 c-94 -95 -99
-101 -82 -117 16 -17 23 -12 135 100 l117 117 -115 115 c-63 63 -118 115 -121
115 -4 0 -12 -7 -19 -16z"/>
<path d="M2130 1714 c-12 -13 0 -29 86 -115 l99 -99 -100 -100 c-94 -95 -99
-101 -82 -117 16 -17 23 -12 135 100 l117 117 -115 115 c-63 63 -118 115 -121
115 -4 0 -12 -7 -19 -16z"/>
<path d="M2507 1392 c-276 -276 -297 -300 -297 -332 0 -34 8 -27 293 258 l292
292 103 0 102 0 0 40 0 40 -98 0 -97 0 -298 -298z"/>
<path d="M80 1664 c-12 -13 -3 -26 61 -90 l73 -74 -74 -75 c-71 -71 -74 -76
-57 -92 16 -17 22 -13 110 75 l92 92 -90 90 c-49 49 -93 90 -96 90 -4 0 -12
-7 -19 -16z"/>
<path d="M2080 1664 c-12 -13 -3 -26 61 -90 l73 -74 -74 -75 c-71 -71 -74 -76
-57 -92 16 -17 22 -13 110 75 l92 92 -90 90 c-49 49 -93 90 -96 90 -4 0 -12
-7 -19 -16z"/>
<path d="M30 1615 c-11 -14 -6 -23 35 -65 l49 -50 -49 -50 c-47 -47 -48 -51
-32 -67 16 -17 21 -14 84 50 l68 67 -65 65 c-35 36 -67 65 -71 65 -4 0 -12 -7
-19 -15z"/>
<path d="M2030 1615 c-11 -14 -6 -23 35 -65 l49 -50 -49 -50 c-47 -47 -48 -51
-32 -67 16 -17 21 -14 84 50 l68 67 -65 65 c-35 36 -67 65 -71 65 -4 0 -12 -7
-19 -15z"/>
<path d="M2507 1292 c-276 -276 -297 -300 -297 -332 0 -34 8 -27 293 258 l292
292 103 0 102 0 0 40 0 40 -98 0 -97 0 -298 -298z"/>
<path d="M2 1500 l0 -83 41 41 42 42 -42 42 -41 41 0 -83z"/>
<path d="M1980 1565 c-11 -13 -9 -20 10 -40 l23 -25 -23 -25 c-23 -24 -23 -26
-7 -42 16 -17 20 -15 59 25 l42 42 -39 40 c-44 45 -47 46 -65 25z"/>
<path d="M377 1362 c-155 -155 -168 -171 -165 -201 3 -31 6 -28 187 153 159
160 183 187 172 200 -8 9 -16 16 -20 16 -3 0 -82 -76 -174 -168z"/>
<path d="M1930 1514 c-11 -12 -10 -18 3 -32 16 -15 18 -15 34 0 13 14 14 20 3
32 -7 9 -16 16 -20 16 -4 0 -13 -7 -20 -16z"/>
<path d="M2507 1192 c-276 -276 -297 -300 -297 -332 0 -34 8 -27 293 258 l292
292 103 0 102 0 0 40 0 40 -98 0 -97 0 -298 -298z"/>
<path d="M402 1287 c-179 -179 -193 -196 -190 -226 3 -31 7 -27 212 178 181
181 208 212 197 225 -8 9 -16 16 -20 16 -3 0 -93 -87 -199 -193z"/>
<path d="M1479 1464 c-11 -13 7 -35 129 -157 135 -135 143 -141 159 -124 17
16 11 24 -122 157 -77 77 -143 140 -146 140 -4 0 -12 -7 -20 -16z"/>
<path d="M2352 1337 c-131 -132 -143 -146 -140 -176 3 -31 5 -29 162 128 138
138 158 162 147 175 -8 9 -16 16 -20 16 -3 0 -71 -65 -149 -143z"/>
<path d="M427 1212 c-203 -203 -218 -221 -215 -251 3 -31 8 -26 237 203 203
203 233 237 222 250 -8 9 -16 16 -20 16 -3 0 -104 -98 -224 -218z"/>
<path d="M2635 1220 c-161 -161 -169 -171 -152 -187 16 -17 25 -10 165 130
l147 147 103 0 102 0 0 40 0 40 -98 0 -97 0 -170 -170z"/>
<path d="M0 1349 c0 -29 9 -44 55 -89 l55 -54 0 -201 0 -200 152 -152 153
-153 -153 -153 -152 -152 0 -98 0 -97 40 0 40 0 0 102 0 103 147 147 148 148
-148 148 -147 147 0 200 0 200 -95 95 -95 95 0 -36z"/>
<path d="M452 1137 c-227 -227 -243 -246 -240 -276 3 -31 10 -25 262 228 225
225 258 262 247 275 -8 9 -16 16 -20 16 -3 0 -116 -110 -249 -243z"/>
<path d="M605 1190 c-133 -133 -139 -141 -122 -157 16 -17 24 -11 159 124 122
122 140 144 129 157 -8 9 -16 16 -20 16 -3 0 -69 -63 -146 -140z"/>
<path d="M660 1145 l-145 -145 142 -142 c136 -136 144 -142 160 -125 17 16 11
23 -107 142 l-125 125 145 145 c145 145 145 145 110 145 -32 0 -49 -14 -180
-145z"/>
<path d="M760 1145 l-145 -145 117 -117 c112 -112 119 -117 135 -100 17 16 12
22 -82 117 l-100 100 145 145 c145 145 145 145 110 145 -32 0 -49 -14 -180
-145z"/>
<path d="M860 1145 l-145 -145 92 -92 c88 -88 94 -92 110 -75 17 16 14 21 -57
92 l-75 75 145 145 c145 145 145 145 110 145 -32 0 -49 -14 -180 -145z"/>
<path d="M960 1145 l-145 -145 67 -67 c64 -64 69 -67 85 -50 16 16 15 20 -32
67 l-49 50 144 145 c145 145 145 145 110 145 -32 0 -49 -14 -180 -145z"/>
<path d="M2910 1205 l85 -86 3 32 c3 27 -5 40 -49 85 -44 45 -59 54 -88 54
l-36 0 85 -85z"/>
<path d="M2960 1255 c19 -19 35 -35 37 -35 2 0 3 16 3 35 0 34 -1 35 -37 35
l-37 0 34 -35z"/>
<path d="M8 1042 l4 -237 151 -153 152 -152 -153 -153 -152 -152 0 -98 0 -97
40 0 40 0 0 102 0 103 147 147 148 148 -148 148 -147 147 0 201 0 200 -43 42
-42 42 3 -238z"/>
<path d="M1179 1264 c-11 -13 5 -32 112 -140 l124 -124 -153 -153 -152 -152 0
-200 0 -200 -147 -147 c-147 -148 -148 -148 -113 -148 32 0 49 14 188 153
l152 152 0 200 0 200 147 147 148 148 -140 140 c-77 77 -143 140 -146 140 -4
0 -12 -7 -20 -16z"/>
<path d="M2655 1140 l-140 -140 142 -142 c136 -136 144 -142 160 -125 17 16
11 23 -107 142 l-125 125 124 124 c107 108 123 127 112 140 -8 9 -16 16 -20
16 -3 0 -69 -63 -146 -140z"/>
<path d="M1130 1214 c-12 -13 0 -29 86 -115 l99 -99 -153 -153 -152 -152 0
-200 0 -200 -147 -147 c-147 -148 -148 -148 -113 -148 32 0 49 14 188 153
l152 152 0 200 0 200 147 147 148 148 -115 115 c-63 63 -118 115 -121 115 -4
0 -12 -7 -19 -16z"/>
<path d="M2730 1115 l-115 -115 117 -117 c112 -112 119 -117 135 -100 17 16
12 22 -82 117 l-100 100 99 99 c86 86 98 102 86 115 -7 9 -15 16 -19 16 -3 0
-58 -52 -121 -115z"/>
<path d="M1080 1164 c-12 -13 -3 -26 61 -90 l74 -74 -153 -153 -152 -152 0
-200 0 -200 -147 -147 c-147 -148 -148 -148 -113 -148 32 0 49 14 188 153
l152 152 0 200 0 200 147 147 148 148 -90 90 c-49 49 -93 90 -96 90 -4 0 -12
-7 -19 -16z"/>
<path d="M2805 1090 l-90 -90 92 -92 c88 -88 94 -92 110 -75 17 16 14 21 -57
92 l-74 75 73 74 c64 64 73 77 61 90 -7 9 -15 16 -19 16 -3 0 -47 -41 -96 -90z"/>
<path d="M1525 910 c-247 -247 -259 -261 -242 -277 16 -17 29 -6 263 228 229
229 245 248 242 277 -3 32 -9 26 -263 -228z"/>
<path d="M1030 1115 c-11 -14 -6 -23 36 -66 l49 -49 -153 -153 -152 -152 0
-200 0 -200 -147 -147 c-147 -148 -148 -148 -113 -148 32 0 49 14 188 153
l152 152 0 200 0 200 147 147 148 148 -65 65 c-35 36 -67 65 -71 65 -4 0 -12
-7 -19 -15z"/>
<path d="M2880 1065 l-65 -65 68 -67 c63 -64 68 -67 84 -50 16 16 15 20 -32
67 l-49 50 49 50 c41 42 46 51 35 65 -7 8 -15 15 -19 15 -4 0 -36 -29 -71 -65z"/>
<path d="M979 1064 c-11 -13 -6 -21 29 -57 40 -39 43 -41 59 -24 16 16 15 19
-22 57 -44 45 -47 46 -66 24z"/>
<path d="M2955 1040 l-39 -40 41 -42 41 -41 0 81 c0 45 -1 82 -2 82 -1 0 -20
-18 -41 -40z"/>
<path d="M1550 835 c-223 -223 -234 -236 -217 -252 16 -17 28 -7 238 203 205
205 220 223 217 252 -3 32 -8 27 -238 -203z"/>
<path d="M429 1014 c-11 -13 13 -40 172 -200 181 -181 184 -184 187 -153 3 30
-10 46 -165 201 -92 92 -171 168 -174 168 -4 0 -12 -7 -20 -16z"/>
<path d="M929 1014 c-11 -13 -6 -21 29 -57 40 -39 43 -41 59 -24 16 16 15 19
-22 57 -44 45 -47 46 -66 24z"/>
<path d="M2429 1014 c-11 -13 13 -40 172 -200 181 -181 184 -184 187 -153 3
30 -10 46 -165 201 -92 92 -171 168 -174 168 -4 0 -12 -7 -20 -16z"/>
<path d="M379 964 c-11 -13 16 -44 197 -225 205 -205 209 -209 212 -178 3 30
-11 47 -190 226 -106 106 -196 193 -199 193 -4 0 -12 -7 -20 -16z"/>
<path d="M1355 840 c-133 -133 -139 -141 -122 -157 16 -17 24 -11 159 124 122
122 140 144 129 157 -8 9 -16 16 -20 16 -3 0 -69 -63 -146 -140z"/>
<path d="M2379 964 c-11 -13 16 -44 197 -225 205 -205 209 -209 212 -178 3 30
-11 47 -190 226 -106 106 -196 193 -199 193 -4 0 -12 -7 -20 -16z"/>
<path d="M1575 760 c-199 -199 -209 -211 -192 -227 16 -17 27 -8 213 178 181
181 195 198 192 228 -3 31 -7 27 -213 -179z"/>
<path d="M329 914 c-11 -13 19 -47 222 -250 229 -229 234 -234 237 -203 3 30
-12 48 -215 251 -120 120 -221 218 -224 218 -4 0 -12 -7 -20 -16z"/>
<path d="M2329 914 c-11 -13 19 -47 222 -250 229 -229 234 -234 237 -203 3 30
-12 48 -215 251 -120 120 -221 218 -224 218 -4 0 -12 -7 -20 -16z"/>
<path d="M279 864 c-11 -13 22 -50 247 -275 252 -253 259 -259 262 -228 3 30
-13 49 -240 276 -133 133 -246 243 -249 243 -4 0 -12 -7 -20 -16z"/>
<path d="M2279 864 c-11 -13 22 -50 247 -275 252 -253 259 -259 262 -228 3 30
-13 49 -240 276 -133 133 -246 243 -249 243 -4 0 -12 -7 -20 -16z"/>
<path d="M2903 788 l-93 -93 0 -200 0 -200 -147 -147 c-147 -148 -148 -148
-113 -148 32 0 49 14 188 153 l152 152 0 200 0 199 56 57 c47 48 55 61 52 88
l-3 32 -92 -93z"/>
<path d="M1600 685 c-175 -176 -184 -186 -167 -202 16 -17 26 -9 188 153 157
157 170 173 167 203 -3 31 -6 28 -188 -154z"/>
<path d="M229 814 c-11 -13 7 -35 129 -157 135 -135 143 -141 159 -124 17 16
11 24 -122 157 -77 77 -143 140 -146 140 -4 0 -12 -7 -20 -16z"/>
<path d="M2229 814 c-11 -13 7 -35 129 -157 135 -135 143 -141 159 -124 17 16
11 24 -122 157 -77 77 -143 140 -146 140 -4 0 -12 -7 -20 -16z"/>
<path d="M0 750 c0 -31 12 -47 107 -142 l108 -108 -108 -108 c-98 -98 -108
-112 -105 -141 3 -31 4 -30 143 109 l140 140 -143 143 c-142 141 -142 142
-142 107z"/>
<path d="M1655 640 l-140 -140 142 -142 c136 -136 144 -142 160 -125 17 16 11
23 -107 142 l-125 125 124 124 c107 108 123 127 112 140 -8 9 -16 16 -20 16
-3 0 -69 -63 -146 -140z"/>
<path d="M2952 737 l-42 -43 0 -199 0 -200 -147 -147 c-147 -148 -148 -148
-113 -148 32 0 49 14 187 153 l151 152 4 238 c2 130 3 237 3 237 -1 0 -20 -19
-43 -43z"/>
<path d="M1730 615 l-115 -115 117 -117 c112 -112 119 -117 135 -100 17 16 12
22 -82 117 l-100 100 99 99 c86 86 98 102 86 115 -7 9 -15 16 -19 16 -3 0 -58
-52 -121 -115z"/>
<path d="M0 650 c0 -29 10 -44 57 -92 l57 -58 -57 -58 c-47 -48 -57 -63 -57
-92 l0 -35 92 93 93 92 -93 92 -92 93 0 -35z"/>
<path d="M1805 590 l-90 -90 92 -92 c88 -88 94 -92 110 -75 17 16 14 21 -57
92 l-74 75 73 74 c64 64 73 77 61 90 -7 9 -15 16 -19 16 -3 0 -47 -41 -96 -90z"/>
<path d="M1210 640 c0 -33 21 -56 298 -332 l297 -296 237 -4 238 -3 -42 42
-42 43 -201 0 -200 0 -292 292 c-286 286 -293 292 -293 258z"/>
<path d="M1880 565 l-65 -65 68 -67 c63 -64 68 -67 84 -50 16 16 15 20 -32 67
l-49 50 49 50 c41 42 46 51 35 65 -7 8 -15 15 -19 15 -4 0 -36 -29 -71 -65z"/>
<path d="M0 550 c0 -32 1 -33 17 -17 16 16 16 18 0 34 -16 16 -17 15 -17 -17z"/>
<path d="M1955 540 l-39 -40 42 -42 c39 -40 43 -42 59 -25 16 16 16 18 -7 42
l-23 25 23 25 c19 20 21 27 10 40 -18 21 -21 20 -65 -25z"/>
<path d="M1210 540 c0 -33 19 -54 253 -288 236 -236 256 -253 286 -250 31 3
24 11 -254 288 -278 278 -285 284 -285 250z"/>
<path d="M30 514 c-11 -12 -10 -18 3 -32 16 -15 18 -15 34 0 13 14 14 20 3 32
-7 9 -16 16 -20 16 -4 0 -13 -7 -20 -16z"/>
<path d="M380 365 c-156 -157 -164 -166 -147 -182 16 -17 26 -9 184 149 144
144 165 169 154 182 -8 9 -16 16 -20 16 -3 0 -80 -74 -171 -165z"/>
<path d="M2030 514 c-11 -12 -10 -18 3 -32 16 -15 18 -15 34 0 13 14 14 20 3
32 -7 9 -16 16 -20 16 -4 0 -13 -7 -20 -16z"/>
<path d="M2380 365 c-156 -157 -164 -166 -147 -182 16 -17 26 -9 184 149 144
144 165 169 154 182 -8 9 -16 16 -20 16 -3 0 -80 -74 -171 -165z"/>
<path d="M0 450 c0 -32 1 -33 17 -17 16 16 16 18 0 34 -16 16 -17 15 -17 -17z"/>
<path d="M430 315 c-156 -157 -164 -166 -147 -182 16 -17 26 -9 184 149 144
144 165 169 154 182 -8 9 -16 16 -20 16 -3 0 -80 -74 -171 -165z"/>
<path d="M1479 464 c-11 -13 11 -38 157 -185 l169 -169 200 0 201 0 54 -55
c45 -46 60 -55 89 -55 l36 0 -95 95 -95 95 -200 0 -200 0 -145 145 c-80 80
-148 145 -151 145 -4 0 -12 -7 -20 -16z"/>
<path d="M2430 315 c-156 -157 -164 -166 -147 -182 16 -17 26 -9 184 149 144
144 165 169 154 182 -8 9 -16 16 -20 16 -3 0 -80 -74 -171 -165z"/>
<path d="M1210 440 c0 -32 16 -51 203 -238 189 -189 206 -203 236 -200 31 3
26 8 -204 238 -231 230 -235 234 -235 200z"/>
<path d="M480 265 c-156 -157 -164 -166 -147 -182 16 -17 26 -9 184 149 144
144 165 169 154 182 -8 9 -16 16 -20 16 -3 0 -80 -74 -171 -165z"/>
<path d="M2480 265 c-156 -157 -164 -166 -147 -182 16 -17 26 -9 184 149 144
144 165 169 154 182 -8 9 -16 16 -20 16 -3 0 -80 -74 -171 -165z"/>
<path d="M530 215 c-156 -157 -164 -166 -147 -182 16 -17 26 -9 184 149 144
144 165 169 154 182 -8 9 -16 16 -20 16 -3 0 -80 -74 -171 -165z"/>
<path d="M2530 215 c-156 -157 -164 -166 -147 -182 16 -17 26 -9 184 149 144
144 165 169 154 182 -8 9 -16 16 -20 16 -3 0 -80 -74 -171 -165z"/>
<path d="M1210 340 c0 -32 13 -49 145 -180 138 -137 146 -144 162 -127 17 16
10 25 -145 180 -161 161 -162 162 -162 127z"/>
<path d="M580 165 c-164 -164 -165 -165 -130 -165 32 0 49 14 184 149 129 129
148 152 137 165 -8 9 -16 16 -20 16 -3 0 -80 -74 -171 -165z"/>
<path d="M2580 165 c-164 -164 -165 -165 -130 -165 32 0 49 14 184 149 129
129 148 152 137 165 -8 9 -16 16 -20 16 -3 0 -80 -74 -171 -165z"/>
<path d="M1179 264 c-11 -13 5 -32 112 -140 111 -111 127 -124 159 -124 l35 0
-140 140 c-77 77 -143 140 -146 140 -4 0 -12 -7 -20 -16z"/>
<path d="M2855 140 l-140 -140 35 0 c32 0 47 12 143 108 98 98 108 112 105
141 -3 31 -4 30 -143 -109z"/>
<path d="M1130 214 c-12 -13 0 -29 86 -115 87 -88 103 -99 134 -99 l35 0 -115
115 c-63 63 -118 115 -121 115 -4 0 -12 -7 -19 -16z"/>
<path d="M1080 164 c-12 -13 -3 -26 61 -90 63 -64 78 -74 109 -74 l35 0 -90
90 c-49 50 -93 90 -96 90 -4 0 -12 -7 -19 -16z"/>
<path d="M2905 90 l-90 -90 36 0 c29 0 44 9 93 59 49 50 57 63 54 90 l-3 32
-90 -91z"/>
<path d="M210 139 c0 -29 9 -44 54 -88 45 -44 58 -52 85 -49 l32 3 -86 85 -85
85 0 -36z"/>
<path d="M1030 115 c-11 -14 -6 -23 35 -65 41 -41 56 -50 84 -50 l35 0 -64 65
c-35 36 -67 65 -71 65 -4 0 -12 -7 -19 -15z"/>
<path d="M980 65 c-20 -24 23 -65 69 -65 l35 0 -39 40 c-44 45 -47 46 -65 25z"/>
<path d="M2980 64 c-11 -12 -10 -18 3 -32 16 -15 17 -14 17 16 0 36 -2 38 -20
16z"/>
<path d="M210 35 c0 -34 1 -35 37 -35 l37 0 -34 35 c-19 19 -35 35 -37 35 -2
0 -3 -16 -3 -35z"/>
<path d="M930 15 c-11 -13 -8 -15 20 -15 28 0 31 2 20 15 -7 8 -16 15 -20 15
-4 0 -13 -7 -20 -15z"/>
<path d="M1530 15 c-11 -13 -8 -15 20 -15 28 0 31 2 20 15 -7 8 -16 15 -20 15
-4 0 -13 -7 -20 -15z"/>
<path d="M2930 15 c-11 -13 -8 -15 20 -15 28 0 31 2 20 15 -7 8 -16 15 -20 15
-4 0 -13 -7 -20 -15z"/>
</g>
</svg>
