<?xml version="1.0" standalone="no"?>
<!DOCTYPE svg PUBLIC "-//W3C//DTD SVG 20010904//EN"
 "http://www.w3.org/TR/2001/REC-SVG-20010904/DTD/svg10.dtd">
<svg version="1.0" xmlns="http://www.w3.org/2000/svg"
 width="300.000000pt" height="300.000000pt" viewBox="0 0 300.000000 300.000000"
 preserveAspectRatio="xMidYMid meet">

<g transform="translate(0.000000,300.000000) scale(0.100000,-0.100000)"
fill="#000000" stroke="none">
<path d="M11 2986 c-7 -8 -11 -38 -9 -71 l3 -56 70 71 69 70 -61 0 c-40 0 -65
-5 -72 -14z"/>
<path d="M97 2902 l-98 -98 3 -57 3 -57 155 155 155 155 -60 0 -60 0 -98 -98z"/>
<path d="M177 2822 l-178 -178 3 -57 3 -57 235 235 235 235 -60 0 -60 0 -178
-178z"/>
<path d="M262 2737 l-263 -263 3 -57 3 -57 320 320 320 320 -60 0 -60 0 -263
-263z"/>
<path d="M700 2992 c0 -5 11 -19 25 -32 l26 -24 32 32 32 32 -58 0 c-31 0 -57
-4 -57 -8z"/>
<path d="M817 2962 c-20 -21 -37 -42 -37 -48 0 -6 11 -21 25 -34 l26 -24 72
72 72 72 -61 0 c-56 0 -62 -2 -97 -38z"/>
<path d="M940 2915 l-84 -84 24 -26 c13 -14 28 -25 34 -25 6 0 61 50 121 110
l110 110 -60 0 -60 0 -85 -85z"/>
<path d="M1067 2872 l-127 -128 30 -29 31 -29 157 157 157 157 -60 0 -60 0
-128 -128z"/>
<path d="M1840 2515 c267 -267 489 -485 495 -485 6 0 78 67 160 150 l149 149
-29 31 -29 30 -121 -120 c-67 -66 -126 -120 -131 -120 -5 0 -200 191 -434 425
l-425 425 -60 0 -60 0 485 -485z"/>
<path d="M1930 2595 l405 -405 112 112 113 113 -30 30 -30 30 -78 -78 c-42
-42 -82 -77 -87 -77 -6 0 -163 153 -350 340 l-340 340 -60 0 -60 0 405 -405z"/>
<path d="M1700 2992 c0 -4 142 -149 315 -322 l315 -315 72 72 72 72 -29 31
-29 30 -42 -41 -42 -42 -261 262 -261 261 -55 0 c-30 0 -55 -3 -55 -8z"/>
<path d="M2090 2765 c129 -129 240 -235 246 -235 6 0 21 11 34 25 l24 26 -209
209 -210 210 -60 0 -60 0 235 -235z"/>
<path d="M2347 2678 l322 -322 26 24 c14 13 25 28 25 34 0 6 -129 140 -288
299 l-287 287 -60 0 -60 0 322 -322z"/>
<path d="M2467 2718 l283 -283 32 32 31 32 -251 250 -251 251 -63 0 -63 0 282
-282z"/>
<path d="M2590 2765 c129 -129 240 -235 246 -235 6 0 21 11 34 25 l24 26 -209
209 -210 210 -60 0 -60 0 235 -235z"/>
<path d="M2722 2803 l197 -197 26 24 c14 13 25 28 25 34 0 6 -73 84 -163 174
l-162 162 -60 0 -60 0 197 -197z"/>
<path d="M2700 2992 c0 -5 11 -19 25 -32 l26 -24 32 32 32 32 -58 0 c-31 0
-57 -4 -57 -8z"/>
<path d="M2817 2962 c-20 -21 -37 -42 -37 -48 0 -6 11 -21 25 -34 l26 -24 72
72 72 72 -61 0 c-56 0 -62 -2 -97 -38z"/>
<path d="M637 2942 l-27 -28 155 -154 154 -154 26 24 c14 13 25 28 25 34 0 11
-290 306 -301 306 -3 0 -17 -13 -32 -28z"/>
<path d="M1177 2822 c-81 -81 -147 -152 -147 -158 0 -6 11 -21 25 -34 l26 -24
154 154 155 155 -25 28 c-14 15 -29 27 -33 27 -4 0 -74 -66 -155 -148z"/>
<path d="M2925 2900 l-70 -70 31 -30 30 -30 42 43 c42 43 43 46 40 101 l-3 57
-70 -71z"/>
<path d="M555 2860 l-29 -31 149 -149 c82 -83 155 -150 161 -150 6 0 21 11 34
25 l24 26 -155 155 -155 155 -29 -31z"/>
<path d="M1260 2735 l-154 -154 24 -26 c13 -14 28 -25 34 -25 6 0 79 67 161
150 l149 150 -20 27 c-11 15 -24 28 -30 30 -5 2 -79 -67 -164 -152z"/>
<path d="M472 2777 l-32 -33 155 -154 156 -154 32 32 32 32 -156 155 -156 154
-31 -32z"/>
<path d="M1347 2652 l-158 -158 31 -29 31 -29 156 156 156 156 -29 31 -29 31
-158 -158z"/>
<path d="M2967 2772 l-27 -28 30 -29 30 -29 0 57 c0 31 -1 57 -3 57 -2 0 -15
-13 -30 -28z"/>
<path d="M387 2692 l-27 -28 155 -154 154 -154 26 24 c14 13 25 28 25 34 0 11
-290 306 -301 306 -3 0 -17 -13 -32 -28z"/>
<path d="M1425 2570 l-149 -150 20 -27 c11 -15 24 -28 30 -30 5 -2 79 67 164
152 l155 155 -29 25 c-16 14 -32 25 -35 25 -4 0 -74 -67 -156 -150z"/>
<path d="M167 2472 l-167 -167 0 -60 0 -60 197 197 198 198 -30 30 -30 30
-168 -168z"/>
<path d="M675 2320 l-320 -320 335 -335 334 -334 -166 -168 -166 -168 30 -29
30 -29 196 196 197 197 -328 328 c-180 180 -327 334 -327 342 0 9 115 130 255
270 l255 254 125 -124 125 -124 30 29 31 29 -153 153 c-84 84 -155 153 -158
153 -3 0 -149 -144 -325 -320z"/>
<path d="M1345 2320 l-320 -320 155 -155 155 -155 30 30 30 30 -125 125 -125
125 260 260 260 260 120 -120 c66 -66 125 -120 131 -120 12 0 54 42 54 55 0 8
-295 305 -302 305 -2 0 -147 -144 -323 -320z"/>
<path d="M2675 2320 l-320 -320 320 -320 320 -320 3 57 3 57 -263 263 -263
263 263 262 263 263 -3 58 -3 57 -320 -320z"/>
<path d="M207 2352 l-208 -208 3 -57 3 -57 235 235 235 235 -30 30 -30 30
-208 -208z"/>
<path d="M247 2222 l-247 -247 0 -60 0 -60 280 280 280 279 -27 28 c-15 15
-29 28 -32 28 -4 0 -117 -111 -254 -248z"/>
<path d="M760 2235 l-235 -235 328 -328 c180 -180 327 -332 327 -337 0 -6 -90
-100 -200 -210 -110 -110 -200 -205 -200 -211 0 -6 11 -21 25 -34 l26 -24 239
239 240 240 -332 332 -333 333 177 177 178 178 83 -83 83 -82 29 30 29 30
-109 110 c-60 61 -112 110 -115 110 -3 0 -111 -106 -240 -235z"/>
<path d="M1428 2233 l-237 -238 107 -107 c59 -60 113 -108 118 -108 12 0 54
42 54 54 0 5 -34 42 -75 84 -41 42 -75 78 -75 81 0 4 79 85 175 181 l175 175
83 -83 83 -82 29 30 29 30 -109 110 c-60 61 -112 110 -115 110 -3 0 -112 -107
-242 -237z"/>
<path d="M2760 2235 l-235 -235 235 -235 235 -235 3 57 3 57 -178 178 -178
178 178 178 178 178 -3 57 -3 57 -235 -235z"/>
<path d="M292 2097 l-293 -293 3 -57 3 -57 320 320 320 320 -30 30 -30 30
-293 -293z"/>
<path d="M848 2153 l-157 -158 329 -330 c182 -181 330 -332 330 -335 0 -3
-111 -116 -247 -252 l-247 -247 24 -26 c13 -14 28 -25 34 -25 14 0 556 541
556 555 0 5 -145 155 -322 332 -178 178 -324 327 -326 331 -1 4 38 48 88 97
l90 89 40 -39 40 -39 32 31 32 32 -70 71 -69 70 -157 -157z"/>
<path d="M1510 2155 l-155 -155 72 -72 72 -72 31 29 30 29 -35 36 c-19 20 -35
43 -35 51 0 16 159 179 175 179 5 0 26 -17 47 -37 l38 -37 30 30 30 29 -73 73
-72 72 -155 -155z"/>
<path d="M1846 2151 l-156 -156 155 -155 155 -154 33 32 32 33 -105 103 c-58
56 -114 113 -124 125 l-20 22 123 123 123 123 -30 31 -29 30 -157 -157z"/>
<path d="M2842 2148 l-152 -153 155 -155 155 -155 0 64 0 63 -90 89 c-49 48
-90 91 -90 96 0 4 41 49 91 99 l90 90 -3 57 -3 57 -153 -152z"/>
<path d="M1965 2110 l-110 -110 110 -110 c60 -60 115 -110 121 -110 6 0 21 11
34 25 l24 26 -77 77 c-42 43 -77 84 -77 92 0 8 35 50 77 92 l78 78 -27 25
c-15 14 -31 25 -35 25 -5 0 -58 -49 -118 -110z"/>
<path d="M925 2070 l-70 -70 335 -335 334 -335 -292 -292 -292 -293 30 -30 30
-30 323 323 322 322 -328 328 c-180 180 -327 334 -327 343 0 8 16 30 35 49
l35 34 -27 28 c-15 15 -29 28 -33 28 -3 0 -37 -32 -75 -70z"/>
<path d="M1595 2070 l-69 -70 29 -30 29 -30 68 67 c37 37 68 71 68 75 0 10
-41 58 -50 58 -3 0 -37 -31 -75 -70z"/>
<path d="M2095 2070 l-70 -70 72 -72 72 -72 26 24 c14 13 25 28 25 34 0 6 -17
27 -37 48 l-37 38 39 40 39 40 -20 27 c-11 15 -25 28 -30 30 -5 2 -41 -28 -79
-67z"/>
<path d="M2925 2070 l-70 -70 73 -73 72 -72 0 61 c0 33 -5 65 -12 72 -8 8 -8
15 1 26 7 8 11 37 9 71 l-3 56 -70 -71z"/>
<path d="M2221 2028 l-34 -30 32 -31 31 -32 32 32 31 31 -29 30 -30 30 -33
-30z"/>
<path d="M302 1947 c-12 -13 -22 -27 -22 -31 0 -4 68 -76 150 -159 l151 -151
32 32 32 32 -151 150 c-82 82 -155 150 -160 150 -6 0 -20 -10 -32 -23z"/>
<path d="M1512 1817 l-153 -153 31 -29 31 -29 149 149 c83 82 150 155 150 161
0 10 -41 54 -51 54 -2 0 -73 -69 -157 -153z"/>
<path d="M2007 1652 l-318 -318 31 -29 31 -29 322 322 322 323 -28 24 c-15 14
-31 25 -35 25 -4 0 -150 -143 -325 -318z"/>
<path d="M217 1862 l-27 -28 155 -154 154 -154 31 29 31 29 -153 153 c-84 84
-155 153 -159 153 -3 0 -17 -13 -32 -28z"/>
<path d="M1592 1737 l-153 -153 31 -29 31 -29 154 154 155 154 -27 28 c-15 15
-29 28 -32 28 -4 0 -75 -69 -159 -153z"/>
<path d="M2095 1570 l-320 -320 30 -30 30 -30 319 319 318 319 -23 31 c-12 17
-25 31 -28 31 -4 0 -150 -144 -326 -320z"/>
<path d="M135 1780 l-29 -31 154 -154 155 -155 30 30 30 30 -155 155 -156 156
-29 -31z"/>
<path d="M1680 1655 l-155 -155 30 -30 30 -30 155 155 155 155 -30 30 -30 30
-155 -155z"/>
<path d="M2182 1487 l-323 -323 31 -29 31 -29 320 320 321 321 -29 31 -29 32
-322 -323z"/>
<path d="M52 1697 c-12 -13 -22 -27 -22 -33 0 -5 68 -76 151 -158 l150 -150
32 32 32 32 -150 150 c-82 83 -155 150 -161 150 -6 0 -20 -10 -32 -23z"/>
<path d="M1762 1567 l-153 -153 31 -29 31 -29 149 149 c83 82 150 155 150 161
0 10 -41 54 -51 54 -2 0 -73 -69 -157 -153z"/>
<path d="M2257 1402 l-318 -318 31 -29 31 -29 321 321 321 321 -26 26 c-14 14
-30 26 -34 26 -5 0 -151 -143 -326 -318z"/>
<path d="M0 1587 c0 -31 1 -57 3 -57 2 0 15 13 30 28 l27 28 -30 29 -30 29 0
-57z"/>
<path d="M345 1320 l-319 -319 29 -31 29 -31 318 318 c175 175 318 323 318
329 0 10 -41 54 -51 54 -2 0 -148 -144 -324 -320z"/>
<path d="M2635 1610 l-29 -30 124 -125 125 -125 -593 -592 -592 -593 -125 125
-125 125 -32 -33 -32 -32 149 -150 c83 -82 155 -150 160 -150 12 0 1305 1292
1305 1304 0 9 -294 306 -303 306 -2 0 -16 -14 -32 -30z"/>
<path d="M42 1517 c-40 -41 -42 -46 -42 -102 l0 -60 72 73 73 72 -30 30 -31
30 -42 -43z"/>
<path d="M431 1236 l-322 -322 31 -29 31 -29 322 322 322 322 -31 29 -31 29
-322 -322z"/>
<path d="M2555 1530 l-29 -30 77 -78 c42 -43 77 -82 77 -87 0 -13 -1002 -1015
-1015 -1015 -5 0 -45 35 -87 77 l-78 78 -30 -30 -30 -30 113 -113 112 -112
573 573 572 572 -113 113 -113 112 -29 -30z"/>
<path d="M95 1400 l-69 -70 69 -70 70 -70 29 30 30 30 -39 40 -39 40 37 38
c20 21 37 42 37 48 0 10 -41 54 -51 54 -2 0 -36 -31 -74 -70z"/>
<path d="M507 1152 l-318 -318 31 -29 31 -29 321 321 322 322 -24 26 c-13 14
-28 25 -34 25 -6 0 -154 -143 -329 -318z"/>
<path d="M2467 1443 l-27 -27 42 -43 42 -43 -427 -427 -427 -427 -43 42 -43
42 -29 -30 -29 -31 72 -72 72 -72 487 487 488 488 -70 70 c-38 38 -72 70 -75
70 -3 0 -18 -12 -33 -27z"/>
<path d="M217 1362 l-27 -28 30 -29 30 -29 30 29 30 29 -27 28 c-15 15 -30 28
-33 28 -3 0 -18 -13 -33 -28z"/>
<path d="M595 1070 l-319 -319 29 -31 29 -31 318 318 c175 175 318 323 318
329 0 10 -41 54 -51 54 -2 0 -148 -144 -324 -320z"/>
<path d="M2010 985 l-405 -405 27 -25 c15 -14 31 -25 35 -25 12 0 803 794 803
806 0 10 -41 54 -51 54 -2 0 -186 -182 -409 -405z"/>
<path d="M1510 1155 l-154 -154 29 -31 29 -30 121 120 c66 66 125 120 130 120
5 0 64 -54 130 -120 l121 -120 29 30 29 31 -154 154 -155 155 -155 -155z"/>
<path d="M2842 1150 l-152 -154 30 -31 30 -30 126 126 125 125 -3 60 -3 59
-153 -155z"/>
<path d="M0 1245 c0 -51 3 -58 41 -96 l41 -41 31 31 32 31 -65 65 c-35 36 -68
65 -72 65 -4 0 -8 -25 -8 -55z"/>
<path d="M0 1087 c0 -31 1 -57 3 -57 2 0 15 13 30 28 l27 28 -30 29 -30 29 0
-57z"/>
<path d="M1552 1027 l-112 -113 30 -29 30 -29 83 82 83 82 82 -82 82 -82 33
32 32 32 -110 110 c-60 61 -112 110 -115 110 -3 0 -56 -51 -118 -113z"/>
<path d="M2885 1030 l-109 -110 20 -27 c12 -16 26 -28 32 -28 6 0 47 36 92 79
l81 79 -3 59 -3 58 -110 -110z"/>
<path d="M0 915 l0 -60 125 -125 125 -125 30 30 30 30 -155 155 -155 155 0
-60z"/>
<path d="M637 942 l-27 -28 195 -194 195 -195 72 72 72 72 -24 26 c-13 14 -28
25 -34 25 -6 0 -27 -17 -48 -37 l-38 -37 -163 162 c-89 89 -165 162 -168 162
-3 0 -17 -13 -32 -28z"/>
<path d="M1301 946 c-30 -32 -27 -36 109 -171 l111 -109 -261 -261 -260 -260
-290 290 -290 290 -30 -30 -30 -30 320 -320 320 -320 322 322 323 323 -150
150 c-83 82 -155 150 -161 150 -6 0 -21 -11 -33 -24z"/>
<path d="M1595 900 l-69 -69 24 -26 c13 -14 28 -25 34 -25 6 0 27 17 48 37
l38 37 40 -39 40 -39 30 29 30 29 -67 68 c-37 37 -70 68 -73 68 -3 0 -37 -31
-75 -70z"/>
<path d="M2637 942 l-27 -28 155 -154 154 -154 26 24 c14 13 25 28 25 34 0 11
-290 306 -301 306 -3 0 -17 -13 -32 -28z"/>
<path d="M2926 901 l-70 -70 24 -26 c13 -14 29 -25 35 -25 6 0 28 17 49 38 35
37 37 42 34 96 l-3 57 -69 -70z"/>
<path d="M555 860 l-29 -31 237 -237 237 -237 155 155 155 155 -72 72 -73 73
-29 -30 -30 -30 37 -38 c20 -21 37 -42 37 -48 0 -5 -41 -50 -90 -99 l-90 -90
-208 208 -208 208 -29 -31z"/>
<path d="M1217 862 l-27 -28 80 -79 c44 -44 80 -84 80 -90 0 -13 -332 -345
-345 -345 -6 0 -120 110 -255 245 l-244 245 -32 -31 -31 -30 280 -281 280
-280 233 233 c129 129 234 238 234 244 0 10 -211 225 -221 225 -3 0 -17 -13
-32 -28z"/>
<path d="M2555 860 l-29 -31 149 -149 c82 -83 155 -150 161 -150 6 0 21 11 34
25 l24 26 -155 155 -155 155 -29 -31z"/>
<path d="M0 752 l0 -63 79 -79 c44 -44 83 -80 88 -80 12 0 53 43 53 56 0 5
-49 59 -110 119 l-110 110 0 -63z"/>
<path d="M1635 780 l-29 -30 29 -30 29 -30 30 30 31 30 -31 30 -30 30 -29 -30z"/>
<path d="M2468 776 l-26 -32 154 -154 154 -155 32 32 32 32 -155 156 c-84 85
-156 154 -159 154 -3 0 -17 -15 -32 -33z"/>
<path d="M2968 776 l-27 -33 29 -28 30 -29 0 62 c0 34 -1 62 -2 61 -2 0 -15
-15 -30 -33z"/>
<path d="M2387 692 l-27 -28 155 -154 154 -154 26 24 c14 13 25 28 25 34 0 11
-290 306 -301 306 -3 0 -17 -13 -32 -28z"/>
<path d="M0 584 c0 -57 2 -62 43 -102 l43 -42 29 30 29 31 -72 72 -72 72 0
-61z"/>
<path d="M167 472 l-167 -167 0 -60 0 -60 168 168 167 167 120 -120 c66 -66
125 -120 131 -120 6 0 21 11 34 25 l24 26 -154 154 -155 155 -168 -168z"/>
<path d="M2185 490 c-83 -83 -152 -153 -154 -155 -6 -7 41 -55 53 -55 6 0 79
67 161 150 l150 150 -31 30 -30 30 -149 -150z"/>
<path d="M2675 320 l-320 -320 60 0 60 0 263 263 263 263 -3 57 -3 57 -320
-320z"/>
<path d="M2260 405 l-155 -155 30 -30 30 -30 155 155 155 155 -30 30 -30 30
-155 -155z"/>
<path d="M0 417 c0 -31 1 -57 3 -57 2 0 15 13 30 28 l27 28 -30 29 -30 29 0
-57z"/>
<path d="M162 307 l-162 -162 0 -60 0 -60 163 163 c89 89 165 162 169 162 4 0
44 -37 88 -82 l82 -81 31 31 32 32 -110 110 c-60 61 -114 110 -120 110 -6 0
-83 -73 -173 -163z"/>
<path d="M2342 317 l-153 -153 31 -29 31 -29 154 154 155 154 -27 28 c-15 15
-29 28 -32 28 -4 0 -75 -69 -159 -153z"/>
<path d="M2760 235 l-235 -235 60 0 60 0 178 178 178 178 -3 57 -3 57 -235
-235z"/>
<path d="M2430 235 l-154 -154 24 -26 c13 -14 28 -25 34 -25 6 0 79 67 161
150 l150 150 -30 30 -30 30 -155 -155z"/>
<path d="M180 155 l-155 -155 60 0 60 0 90 90 c49 49 94 90 99 90 6 0 27 -17
48 -37 l38 -37 25 24 c14 13 25 28 25 35 0 6 -30 41 -68 78 l-67 67 -155 -155z"/>
<path d="M510 155 l-155 -155 60 0 60 0 125 125 125 125 -30 30 -30 30 -155
-155z"/>
<path d="M1180 155 l-155 -155 60 0 60 0 125 125 125 125 -30 30 -30 30 -155
-155z"/>
<path d="M1967 278 l-27 -30 122 -124 123 -124 65 0 65 0 -155 155 c-85 85
-157 154 -160 154 -3 -1 -17 -15 -33 -31z"/>
<path d="M2847 155 l-149 -150 58 -3 58 -3 93 94 94 93 -3 59 -3 59 -148 -149z"/>
<path d="M635 110 l-110 -110 60 0 60 0 83 83 82 83 -28 27 c-15 15 -30 27
-33 27 -2 0 -54 -49 -114 -110z"/>
<path d="M1305 110 l-110 -110 60 0 60 0 78 78 c42 42 77 82 77 88 0 10 -41
54 -51 54 -2 0 -54 -49 -114 -110z"/>
<path d="M1883 191 l-22 -28 82 -81 82 -82 60 0 60 0 -110 110 c-60 61 -114
110 -120 109 -5 0 -20 -13 -32 -28z"/>
<path d="M265 70 l-69 -70 60 0 c57 0 62 2 99 40 l39 40 -30 30 -29 30 -70
-70z"/>
<path d="M765 70 l-69 -70 60 0 c57 0 62 2 99 40 l39 40 -30 30 -29 30 -70
-70z"/>
<path d="M1425 70 l-69 -70 59 0 c56 0 61 2 102 42 l43 42 -27 28 c-15 15 -29
28 -33 28 -3 0 -37 -31 -75 -70z"/>
<path d="M1805 110 l-29 -30 40 -41 c39 -39 43 -40 98 -37 l57 3 -69 68 -68
67 -29 -30z"/>
<path d="M2925 70 l-69 -70 61 0 c75 0 85 10 81 85 l-3 56 -70 -71z"/>
<path d="M885 30 l-29 -30 59 0 59 0 -29 30 c-16 17 -29 30 -30 30 -1 0 -14
-13 -30 -30z"/>
<path d="M1555 30 l-29 -30 59 0 59 0 -29 30 c-16 17 -29 30 -30 30 -1 0 -14
-13 -30 -30z"/>
<path d="M1718 29 l-27 -29 62 0 61 0 -29 30 c-16 17 -31 29 -34 29 -3 -1 -18
-14 -33 -30z"/>
</g>
</svg>
