<?xml version="1.0" standalone="no"?>
<!DOCTYPE svg PUBLIC "-//W3C//DTD SVG 20010904//EN"
 "http://www.w3.org/TR/2001/REC-SVG-20010904/DTD/svg10.dtd">
<svg version="1.0" xmlns="http://www.w3.org/2000/svg"
 width="600.000000pt" height="600.000000pt" viewBox="0 0 600.000000 600.000000"
 preserveAspectRatio="xMidYMid meet">

<g transform="translate(0.000000,600.000000) scale(0.100000,-0.100000)"
fill="#000000" stroke="none">
<path d="M172 5985 c329 -55 627 -187 870 -384 282 -229 508 -315 823 -316
229 0 365 31 570 130 170 82 230 126 495 361 75 66 169 134 280 202 l35 22
-49 0 c-44 0 -57 -6 -125 -57 -42 -32 -120 -97 -174 -146 -257 -234 -491 -361
-777 -423 -103 -23 -380 -26 -475 -5 -243 52 -418 137 -628 305 -174 139 -332
229 -520 295 -85 30 -94 31 -245 30 l-157 -1 77 -13z"/>
<path d="M735 5937 c138 -72 207 -117 335 -220 243 -196 467 -284 751 -294
235 -9 418 32 634 140 149 74 255 149 380 267 33 32 90 83 128 114 65 54 66
56 37 56 -22 0 -47 -16 -107 -71 -250 -226 -485 -354 -765 -416 -130 -28 -411
-25 -538 6 -214 53 -399 148 -574 294 -34 28 -108 81 -165 119 -103 67 -106
68 -170 68 l-66 -1 120 -62z"/>
<path d="M880 5996 c0 -2 19 -16 43 -31 23 -16 89 -65 147 -110 159 -125 272
-188 423 -239 300 -99 660 -71 952 76 129 65 308 192 384 272 32 33 33 36 13
36 -12 0 -60 -29 -106 -64 -172 -129 -348 -216 -546 -269 -111 -30 -123 -31
-320 -31 -190 0 -212 2 -302 26 -200 54 -334 122 -515 260 -83 63 -110 78
-138 78 -19 0 -35 -2 -35 -4z"/>
<path d="M1070 5996 c0 -11 123 -98 204 -144 293 -168 655 -203 983 -96 111
36 285 123 373 186 l75 53 -37 3 c-26 2 -48 -4 -75 -21 -392 -248 -891 -278
-1288 -79 -38 19 -94 50 -123 68 -29 19 -65 34 -82 34 -17 0 -30 -2 -30 -4z"/>
<path d="M1330 5961 c174 -89 334 -126 540 -125 205 0 391 43 557 128 l68 35
-62 1 c-42 0 -90 -9 -152 -30 -150 -49 -249 -64 -416 -63 -164 0 -247 14 -398
64 -61 20 -107 29 -150 29 l-62 -1 75 -38z"/>
<path d="M1655 5987 c22 -6 119 -11 215 -11 96 0 193 5 215 11 31 9 -14 11
-215 11 -201 0 -246 -2 -215 -11z"/>
<path d="M3305 5954 c-120 -61 -241 -146 -353 -246 -177 -158 -217 -191 -314
-255 -166 -109 -341 -181 -534 -219 -109 -22 -337 -24 -444 -5 -223 40 -465
155 -640 306 -211 180 -511 319 -823 378 l-129 25 7 -57 c21 -175 95 -415 181
-582 57 -111 122 -209 219 -329 156 -194 256 -406 296 -630 21 -118 17 -344
-10 -470 -56 -263 -192 -518 -390 -732 -167 -181 -244 -285 -326 -443 -44 -84
-45 -87 -45 -178 l1 -92 33 90 c91 249 197 418 397 635 104 113 169 198 230
300 232 388 260 817 80 1196 -54 114 -103 189 -197 304 -133 164 -250 376
-313 565 -30 93 -85 324 -78 331 2 2 39 -3 83 -12 325 -66 568 -180 834 -394
208 -166 390 -248 630 -285 369 -57 770 75 1090 360 195 173 235 206 318 261
108 72 247 142 372 188 l95 35 -90 0 c-89 1 -93 0 -180 -45z"/>
<path d="M3910 5993 c-194 -19 -384 -70 -547 -148 -185 -88 -273 -151 -543
-390 -243 -216 -536 -346 -841 -375 -200 -19 -418 16 -608 99 -124 53 -213
107 -332 202 -244 195 -438 295 -708 365 -52 13 -96 23 -97 21 -7 -6 55 -225
85 -303 67 -173 150 -314 290 -489 189 -237 286 -465 311 -736 34 -362 -107
-758 -379 -1065 -39 -43 -101 -113 -137 -154 -190 -214 -326 -499 -380 -795
-24 -135 -25 -438 0 -580 61 -361 200 -706 418 -1036 68 -104 73 -108 181
-180 133 -87 353 -202 492 -257 748 -296 1416 -206 1934 260 234 211 377 310
551 381 194 80 333 108 531 108 310 0 587 -104 847 -319 214 -176 485 -307
759 -366 l32 -7 -29 109 c-66 254 -181 481 -338 669 -161 193 -260 393 -308
623 -27 129 -25 363 5 500 59 277 187 511 411 755 56 61 125 142 154 180 378
499 434 1144 158 1822 -92 226 -256 514 -342 602 -121 123 -546 338 -830 419
-261 75 -531 106 -740 85z m440 -89 c221 -32 449 -102 687 -211 159 -73 375
-199 414 -241 35 -38 145 -224 207 -347 107 -215 190 -461 234 -694 19 -99 23
-150 23 -351 0 -209 -3 -247 -24 -345 -34 -159 -73 -273 -146 -420 -77 -155
-158 -270 -299 -425 -247 -271 -361 -478 -422 -762 -27 -124 -25 -372 4 -496
48 -206 133 -372 291 -567 139 -172 240 -357 311 -573 22 -68 40 -129 40 -137
0 -11 -14 -10 -72 7 -233 65 -449 177 -643 333 -281 226 -521 318 -830 318
-355 0 -661 -134 -992 -436 -154 -140 -269 -222 -423 -301 -537 -273 -1173
-241 -1835 93 -93 48 -206 110 -250 138 -74 48 -85 60 -141 150 -239 384 -370
759 -404 1158 -36 413 80 831 321 1155 33 45 102 128 154 185 141 153 229 276
295 410 105 212 143 368 143 585 1 154 -17 264 -65 398 -55 158 -104 240 -260
440 -101 130 -184 266 -238 391 -39 90 -100 270 -100 296 0 22 24 19 155 -25
215 -72 389 -168 570 -315 291 -236 597 -337 920 -306 311 31 583 157 843 393
217 196 304 259 481 348 314 157 669 209 1051 154z"/>
<path d="M3856 5850 c-362 -45 -662 -191 -955 -463 -234 -217 -449 -341 -711
-409 -96 -25 -141 -31 -271 -35 -239 -8 -416 29 -621 132 -105 53 -154 85
-273 180 -173 139 -344 236 -531 302 l-80 29 33 -91 c70 -194 140 -311 341
-575 118 -155 197 -319 244 -505 20 -78 23 -115 23 -285 0 -170 -3 -207 -23
-285 -72 -285 -195 -505 -419 -745 -154 -167 -233 -279 -313 -445 -100 -210
-147 -403 -156 -650 -17 -421 107 -850 373 -1296 l75 -126 102 -60 c204 -122
330 -183 527 -253 432 -156 885 -171 1259 -42 227 78 408 192 623 390 233 215
443 335 707 404 153 40 365 49 521 23 236 -39 435 -134 654 -310 110 -89 202
-148 322 -209 83 -41 273 -118 273 -111 0 2 -14 43 -31 92 -62 174 -155 338
-285 500 -170 213 -257 387 -305 616 -30 141 -30 351 0 494 54 258 180 506
360 709 39 43 101 113 137 154 173 195 305 456 364 719 108 484 -24 1087 -353
1615 -71 114 -101 137 -333 258 -260 135 -503 219 -764 263 -110 19 -414 28
-514 15z m385 -70 c342 -35 681 -148 1030 -345 92 -52 99 -58 140 -127 71
-120 174 -335 224 -467 152 -404 189 -828 104 -1186 -71 -299 -202 -537 -440
-796 -233 -254 -361 -490 -416 -767 -23 -119 -23 -338 1 -452 47 -221 136
-399 296 -595 105 -128 208 -302 273 -463 14 -34 23 -62 21 -62 -3 0 -44 16
-90 35 -160 66 -290 146 -450 275 -170 136 -328 219 -512 267 -130 34 -363 43
-498 19 -272 -47 -518 -174 -753 -388 -324 -295 -576 -428 -941 -493 -436 -79
-992 40 -1480 316 -130 74 -142 88 -254 308 -428 842 -370 1649 161 2235 187
207 273 325 343 471 91 190 131 363 131 565 -1 300 -86 530 -300 807 -123 159
-183 252 -241 375 -39 83 -72 168 -66 168 1 0 31 -12 67 -26 121 -49 274 -135
374 -210 55 -41 136 -102 179 -134 147 -110 338 -194 516 -225 109 -19 313
-19 423 0 259 45 519 180 737 381 137 126 203 180 305 247 323 213 717 307
1116 267z"/>
<path d="M3870 5713 c-302 -45 -501 -118 -715 -261 -99 -66 -142 -101 -296
-240 -293 -264 -596 -395 -944 -409 -168 -6 -289 11 -441 62 -179 59 -268 112
-527 310 -58 44 -151 104 -207 134 l-101 53 26 -53 c51 -101 123 -214 195
-302 147 -184 224 -319 279 -489 115 -360 66 -745 -139 -1092 -65 -110 -121
-183 -255 -332 -143 -159 -207 -249 -284 -394 -66 -127 -119 -274 -153 -426
-29 -134 -32 -506 -5 -654 54 -290 151 -555 300 -823 l71 -128 87 -50 c313
-179 645 -292 963 -330 162 -19 426 -7 571 26 303 68 540 195 785 421 241 221
437 339 680 410 427 124 839 36 1210 -261 52 -42 124 -95 160 -119 65 -43 212
-126 222 -126 11 0 -74 154 -133 240 -31 47 -91 127 -131 177 -190 236 -288
511 -288 806 0 261 62 485 198 710 73 122 132 198 259 338 231 255 353 480
422 779 82 351 37 773 -126 1180 -52 132 -81 191 -166 347 l-62 112 -110 63
c-280 159 -593 268 -896 313 -97 14 -378 19 -449 8z m437 -78 c143 -19 290
-53 438 -102 222 -73 504 -208 545 -261 32 -40 164 -315 205 -425 178 -485
200 -936 65 -1340 -81 -241 -203 -437 -415 -667 -282 -305 -416 -618 -416
-975 -1 -285 93 -543 282 -779 102 -128 209 -286 209 -309 0 -13 -173 100
-263 172 -132 106 -196 147 -311 202 -359 171 -752 158 -1124 -36 -129 -67
-234 -143 -360 -257 -122 -112 -237 -203 -324 -257 -301 -183 -611 -262 -977
-248 -331 12 -644 98 -985 271 l-160 81 -49 90 c-144 265 -245 553 -293 830
-24 143 -29 398 -10 540 36 270 123 504 271 725 61 91 99 137 266 324 418 468
488 1092 175 1576 -26 39 -79 113 -120 163 -78 98 -116 152 -161 231 l-29 49
52 -29 c52 -29 145 -95 318 -226 99 -75 249 -154 364 -192 237 -78 518 -74
770 10 206 69 383 178 571 351 309 285 617 439 978 488 133 18 347 18 488 0z"/>
<path d="M3940 5579 c-181 -11 -336 -47 -505 -116 -196 -80 -332 -170 -534
-351 -229 -208 -390 -307 -621 -382 -420 -138 -851 -64 -1202 207 l-70 54 49
-60 c104 -129 194 -308 238 -476 78 -293 51 -585 -80 -878 -78 -175 -162 -296
-363 -519 -318 -353 -455 -743 -431 -1228 15 -298 98 -590 259 -916 l80 -160
132 -67 c213 -106 344 -155 548 -207 295 -75 583 -85 843 -30 149 32 239 64
392 140 156 77 279 166 460 331 301 275 645 418 1004 419 164 0 394 -56 553
-136 89 -44 224 -133 257 -168 14 -14 29 -26 34 -26 5 0 -6 17 -25 38 -87 96
-184 272 -236 427 -95 285 -79 624 44 912 77 179 167 317 316 482 184 204 261
311 339 475 103 216 147 399 156 646 14 384 -78 750 -290 1155 l-52 100 -150
76 c-389 195 -766 280 -1145 258z m475 -98 c221 -41 442 -115 658 -218 l119
-57 53 -106 c113 -227 194 -467 236 -705 19 -106 23 -167 23 -330 1 -209 -6
-271 -50 -448 -28 -111 -65 -210 -125 -330 -80 -159 -153 -258 -370 -502 -392
-440 -480 -1026 -224 -1492 19 -35 33 -63 31 -63 -2 0 -43 20 -90 44 -97 50
-202 87 -316 112 -108 24 -357 24 -469 0 -253 -54 -479 -170 -676 -345 -319
-284 -470 -380 -729 -466 -203 -68 -284 -79 -551 -80 -191 0 -258 4 -330 18
-274 55 -496 129 -717 240 l-83 42 -58 115 c-106 211 -185 445 -230 679 -19
100 -22 149 -21 351 0 206 3 248 22 339 50 228 133 430 250 606 57 86 93 129
268 325 177 199 295 428 351 682 24 110 24 370 -1 476 -25 113 -63 218 -114
317 l-47 91 80 -42 c101 -54 185 -85 305 -114 127 -31 371 -34 499 -6 257 56
482 172 685 353 231 207 288 250 436 334 162 92 404 173 592 198 124 16 466 6
593 -18z"/>
<path d="M3899 5440 c-349 -32 -675 -177 -947 -422 -160 -144 -249 -214 -347
-275 -356 -222 -758 -276 -1133 -154 -48 16 -88 28 -89 27 -1 -1 9 -32 22 -69
56 -154 84 -379 65 -537 -23 -203 -79 -377 -176 -550 -73 -130 -135 -214 -267
-358 -138 -152 -220 -265 -291 -402 -265 -511 -241 -1123 69 -1761 l47 -97 97
-46 c739 -347 1422 -323 1959 71 39 29 127 103 195 164 261 237 498 364 781
421 131 26 335 28 460 4 100 -19 244 -62 265 -80 12 -9 13 -7 7 9 -117 305
-125 599 -26 896 80 241 174 389 418 660 211 235 339 481 403 776 26 123 37
415 20 560 -31 260 -124 561 -253 816 l-29 59 -135 65 c-244 117 -540 200
-794 223 -128 11 -193 11 -321 0z m436 -86 c207 -28 426 -91 633 -182 59 -26
115 -52 125 -57 35 -22 163 -347 211 -540 53 -213 60 -276 60 -520 0 -257 -12
-342 -79 -543 -87 -259 -193 -426 -451 -712 -240 -265 -366 -560 -381 -886 -6
-123 11 -266 42 -372 8 -25 13 -47 11 -49 -1 -1 -52 8 -112 21 -143 32 -256
40 -379 27 -189 -19 -369 -78 -548 -179 -103 -58 -190 -124 -337 -257 -161
-146 -268 -221 -425 -300 -391 -196 -814 -232 -1293 -111 -119 30 -322 102
-437 155 -75 35 -83 42 -105 87 -221 468 -294 940 -210 1355 64 315 200 570
455 854 185 205 288 367 359 563 86 241 94 531 20 781 -6 22 -5 23 17 17 191
-56 436 -67 614 -27 132 30 218 62 345 127 134 69 247 151 397 287 157 143
271 224 428 302 324 162 650 211 1040 159z"/>
<path d="M3875 5300 c-191 -20 -391 -81 -563 -170 -147 -76 -258 -155 -412
-295 -67 -60 -161 -138 -208 -172 -175 -126 -403 -224 -596 -258 -109 -19
-333 -19 -436 -1 -41 8 -76 13 -77 12 0 0 6 -35 14 -76 23 -120 12 -397 -21
-521 -72 -271 -186 -471 -408 -716 -60 -65 -135 -154 -168 -198 -73 -98 -177
-299 -219 -422 -153 -449 -109 -946 132 -1485 29 -64 46 -75 216 -142 168 -66
331 -112 506 -143 157 -27 466 -24 613 5 300 60 560 188 782 386 194 174 239
210 315 261 170 112 355 189 540 225 154 29 361 27 511 -5 20 -4 20 -3 6 58
-21 93 -20 351 2 460 36 187 115 377 225 543 56 84 84 118 267 324 440 495
529 1174 247 1890 -82 209 -75 199 -205 254 -367 157 -735 221 -1063 186z
m350 -71 c220 -19 482 -84 699 -175 97 -40 91 -33 161 -220 171 -456 194 -920
65 -1316 -75 -230 -204 -440 -405 -663 -299 -330 -425 -617 -429 -970 0 -77 2
-156 7 -176 l7 -36 -157 5 c-186 5 -291 -10 -453 -64 -207 -69 -378 -177 -591
-372 -333 -304 -681 -454 -1110 -478 -273 -15 -609 47 -914 168 l-110 43 -32
65 c-47 95 -129 350 -158 492 -98 484 -23 938 218 1320 62 97 137 192 251 315
190 207 307 413 374 661 24 89 26 114 26 300 l1 204 39 -6 c72 -12 280 -7 368
9 280 49 514 173 769 408 234 215 427 331 691 416 216 69 437 92 683 70z"/>
<path d="M3880 5164 c-203 -26 -385 -79 -555 -164 -147 -74 -262 -155 -414
-294 -228 -207 -403 -316 -626 -389 -132 -44 -222 -59 -382 -64 l-153 -6 0
-108 c0 -388 -141 -706 -470 -1064 -287 -311 -432 -657 -447 -1066 -11 -285
41 -570 159 -872 l42 -107 101 -39 c174 -67 301 -103 485 -138 150 -27 489
-25 636 4 337 69 575 197 869 470 225 209 499 352 770 404 39 7 134 13 212 14
l143 0 0 131 c0 76 7 167 16 215 49 270 178 527 370 742 223 249 280 328 365
497 222 446 224 947 6 1524 l-41 109 -61 28 c-129 58 -346 122 -530 155 -87
15 -418 27 -495 18z m510 -93 c136 -24 333 -77 446 -120 l80 -31 42 -118 c96
-266 135 -481 135 -742 0 -257 -32 -426 -123 -652 -80 -198 -199 -379 -374
-565 -257 -277 -388 -554 -418 -889 l-11 -131 -116 -6 c-190 -9 -407 -75 -579
-176 -112 -66 -201 -133 -334 -253 -209 -188 -366 -290 -568 -369 -224 -88
-442 -124 -695 -116 -239 9 -431 47 -680 134 l-110 39 -33 84 c-115 291 -173
676 -143 955 44 404 192 716 495 1045 122 132 200 241 269 378 93 182 147 387
147 557 l0 82 123 6 c180 9 332 50 509 138 153 75 246 142 408 292 293 272
592 418 970 473 132 19 409 12 560 -15z"/>
<path d="M3855 5024 c-367 -55 -652 -189 -917 -431 -194 -177 -299 -253 -463
-336 -155 -77 -328 -126 -506 -142 l-77 -7 -7 -77 c-25 -274 -129 -537 -302
-764 -25 -31 -94 -112 -155 -180 -60 -67 -137 -160 -169 -206 -120 -171 -214
-390 -259 -602 -32 -145 -39 -426 -16 -593 20 -143 72 -349 117 -471 l34 -89
126 -42 c266 -89 460 -119 732 -112 205 6 321 26 491 85 240 83 376 172 676
439 248 220 536 352 840 385 l110 12 0 47 c0 75 30 227 66 338 66 202 180 396
336 570 209 234 276 327 358 497 101 207 149 408 157 655 9 247 -27 471 -118
747 l-41 122 -84 30 c-114 42 -236 75 -369 102 -88 17 -152 22 -320 24 -115 2
-223 1 -240 -1z m530 -89 c120 -22 231 -50 341 -86 l91 -30 31 -97 c192 -588
131 -1154 -171 -1607 -58 -88 -182 -240 -227 -280 -37 -33 -134 -156 -184
-232 -109 -170 -181 -349 -212 -536 l-18 -107 -36 -5 c-19 -3 -73 -13 -119
-21 -239 -44 -504 -186 -713 -381 -182 -170 -306 -259 -483 -344 -232 -112
-423 -158 -690 -166 -251 -8 -457 22 -720 104 l-90 29 -23 64 c-31 86 -77 263
-99 380 -13 71 -17 150 -17 315 -1 191 2 235 22 333 47 231 134 442 259 627
60 88 98 135 257 312 211 236 321 470 371 795 5 34 8 37 48 43 183 28 318 69
458 141 153 79 222 131 469 350 257 229 583 374 940 418 80 10 428 -3 515 -19z"/>
<path d="M3915 4889 c-364 -30 -689 -174 -974 -431 -154 -139 -197 -174 -296
-240 -164 -109 -354 -188 -536 -223 -45 -8 -85 -17 -87 -20 -3 -2 -11 -41 -19
-85 -29 -169 -114 -374 -221 -535 -64 -95 -102 -143 -248 -305 -417 -461 -536
-1076 -332 -1719 l32 -101 95 -31 c237 -74 518 -108 736 -90 392 34 706 171
995 436 193 177 322 269 486 346 99 47 240 94 326 109 114 19 104 10 122 109
18 101 73 265 118 355 82 164 162 276 331 461 176 193 291 386 367 612 53 160
71 268 77 464 8 237 -16 414 -88 658 l-32 111 -81 24 c-275 83 -533 115 -771
95z m415 -84 c118 -17 353 -72 375 -89 17 -12 68 -204 91 -341 22 -129 29
-380 15 -500 -31 -262 -97 -467 -216 -670 -74 -127 -139 -212 -263 -348 -129
-143 -214 -260 -281 -387 -51 -98 -115 -272 -127 -346 l-6 -41 -89 -22 c-245
-60 -453 -180 -689 -396 -369 -337 -733 -485 -1200 -485 -215 0 -398 25 -584
80 l-74 22 -31 117 c-49 189 -62 283 -68 486 -9 328 37 546 173 820 78 157
156 269 300 426 59 65 132 151 161 191 112 150 199 333 244 510 l22 87 54 11
c67 14 198 59 278 95 144 64 303 177 460 325 266 249 570 400 920 454 122 19
404 19 535 1z"/>
<path d="M3925 4753 c-391 -31 -723 -185 -1035 -478 -141 -132 -251 -210 -411
-291 -95 -47 -281 -114 -318 -114 -12 0 -23 -6 -25 -12 -62 -226 -116 -349
-219 -506 -62 -94 -91 -129 -260 -318 -174 -196 -301 -431 -361 -671 -42 -169
-50 -240 -50 -428 1 -192 20 -341 67 -515 l23 -85 78 -22 c116 -33 303 -62
445 -69 276 -14 540 39 786 155 165 78 296 171 470 332 142 131 251 208 406
285 93 46 281 114 316 114 16 0 24 15 42 82 66 240 190 455 384 667 297 322
433 602 483 991 25 195 -6 518 -72 746 l-15 51 -107 26 c-240 58 -431 76 -627
60z m390 -84 c94 -13 269 -49 284 -58 14 -9 55 -199 72 -334 16 -137 6 -433
-19 -557 -48 -230 -149 -466 -276 -644 -35 -49 -112 -142 -172 -207 -204 -225
-298 -374 -374 -594 l-28 -80 -88 -31 c-182 -63 -361 -171 -517 -310 -179
-161 -224 -197 -318 -260 -344 -230 -761 -321 -1199 -263 -140 18 -281 52
-290 68 -4 9 -17 59 -28 111 -94 443 -48 844 138 1209 77 151 157 263 310 431
183 202 303 396 361 582 l22 74 62 18 c84 24 248 104 348 169 92 60 159 114
297 241 275 253 630 411 1000 446 105 9 306 4 415 -11z"/>
<path d="M3895 4614 c-430 -63 -687 -183 -988 -463 -202 -188 -389 -305 -596
-376 l-65 -21 -22 -65 c-71 -210 -176 -375 -378 -598 -141 -154 -222 -268
-295 -416 -171 -345 -212 -707 -130 -1126 l21 -107 102 -21 c156 -33 296 -44
461 -38 251 9 468 65 684 178 147 76 258 155 409 293 66 59 159 137 208 172
105 75 271 162 371 195 l72 23 26 75 c67 191 190 384 371 583 60 66 137 158
171 206 268 375 360 846 260 1339 l-22 108 -48 12 c-124 31 -244 45 -407 48
-96 2 -188 1 -205 -1z m488 -93 c60 -11 110 -21 112 -23 9 -9 37 -203 45 -316
21 -301 -39 -622 -164 -871 -94 -187 -149 -265 -330 -466 -138 -153 -228 -283
-291 -420 -25 -55 -49 -106 -53 -113 -4 -7 -50 -32 -102 -55 -170 -77 -281
-154 -459 -315 -260 -236 -473 -358 -756 -432 -170 -45 -254 -55 -455 -54
-174 0 -384 22 -419 43 -6 4 -18 41 -25 82 -90 474 0 936 255 1316 57 84 114
153 233 283 131 143 240 312 310 482 11 29 24 41 58 55 157 61 333 177 503
330 153 137 192 168 290 233 207 135 476 230 740 260 116 13 382 3 508 -19z"/>
<path d="M3812 4465 c-241 -37 -457 -120 -657 -253 -90 -60 -132 -94 -307
-250 -141 -126 -333 -249 -469 -300 -19 -8 -39 -38 -77 -117 -89 -182 -164
-287 -346 -485 -230 -249 -374 -550 -421 -880 -19 -136 -17 -374 4 -515 l16
-110 70 -14 c48 -10 143 -15 305 -15 209 0 247 2 340 22 151 33 268 74 405
143 147 73 263 155 414 293 64 59 150 131 191 162 83 62 239 151 313 180 47
19 50 22 102 129 66 136 151 264 250 375 179 202 210 240 266 324 189 287 281
624 266 976 -6 115 -29 307 -39 315 -2 1 -34 8 -73 14 -108 19 -442 23 -553 6z
m511 -71 c61 -9 63 -14 78 -194 32 -379 -64 -766 -268 -1075 -66 -101 -119
-166 -247 -305 -95 -103 -194 -244 -249 -354 -34 -67 -36 -69 -127 -117 -125
-66 -221 -137 -381 -280 -312 -281 -609 -421 -989 -468 -111 -14 -294 -14
-420 0 -115 14 -104 1 -120 144 -49 451 79 909 352 1253 28 34 92 108 144 165
105 113 193 235 258 358 l44 81 92 49 c122 64 223 138 351 256 112 102 219
188 312 246 196 125 454 216 704 247 72 9 384 5 466 -6z"/>
<path d="M3796 4325 c-173 -28 -317 -75 -480 -157 -152 -76 -256 -151 -417
-299 -127 -117 -260 -215 -368 -273 -51 -26 -92 -55 -96 -66 -9 -30 -114 -200
-160 -260 -23 -30 -90 -108 -149 -173 -125 -138 -179 -210 -251 -332 -104
-177 -179 -399 -205 -608 -12 -93 -10 -470 2 -482 12 -12 278 -22 387 -14 226
15 396 62 606 164 153 74 263 150 400 276 173 159 325 270 440 322 32 14 47
30 70 75 56 109 163 257 267 371 298 328 433 594 484 959 19 135 15 475 -5
495 -18 18 -415 19 -525 2z m417 -61 l45 -6 7 -105 c14 -194 -21 -453 -86
-646 -82 -249 -201 -438 -427 -682 -46 -49 -122 -147 -169 -218 -58 -87 -95
-132 -116 -144 -70 -35 -207 -137 -302 -224 -55 -51 -129 -116 -165 -144 -239
-193 -550 -321 -865 -355 -114 -12 -378 -11 -391 3 -4 4 -10 68 -12 142 -15
441 134 863 417 1180 150 169 221 256 267 331 62 98 91 127 195 192 81 50 124
86 316 256 270 240 580 375 968 420 55 6 272 6 318 0z"/>
<path d="M3796 4184 c-330 -51 -616 -194 -883 -440 -121 -111 -207 -179 -302
-238 -62 -38 -79 -55 -116 -115 -57 -93 -121 -175 -209 -270 -159 -171 -248
-296 -327 -457 -107 -220 -148 -400 -156 -671 l-6 -193 69 -1 c336 -5 573 45
830 177 132 69 244 149 399 289 112 102 301 245 351 266 5 2 44 56 86 119 42
64 116 158 164 210 180 198 252 297 333 458 116 231 171 475 171 754 l0 128
-157 -1 c-87 -1 -198 -7 -247 -15z m334 -148 c0 -180 -43 -416 -104 -581 -40
-104 -118 -254 -184 -351 -60 -89 -98 -135 -246 -301 -43 -48 -102 -121 -130
-161 -36 -51 -68 -84 -111 -112 -33 -22 -98 -73 -145 -114 -267 -237 -349
-296 -525 -381 -220 -106 -469 -165 -699 -165 l-119 0 6 153 c6 181 31 318 88
483 86 249 187 409 423 671 49 54 111 130 137 168 36 52 72 87 138 135 49 36
143 114 209 174 160 145 271 223 427 300 183 91 323 133 565 169 14 3 80 5
148 6 l122 1 0 -94z"/>
<path d="M3895 4059 c-280 -26 -563 -132 -790 -294 -49 -36 -142 -112 -205
-170 -63 -58 -151 -131 -195 -163 -61 -43 -94 -76 -137 -137 -32 -44 -105
-132 -163 -195 -236 -256 -369 -504 -434 -801 -21 -100 -47 -356 -37 -366 11
-12 270 17 376 41 302 69 539 201 805 446 55 51 135 117 178 147 43 30 90 71
104 92 81 110 116 153 192 235 301 326 447 656 470 1058 l6 118 -40 -1 c-22
-1 -80 -6 -130 -10z m95 -93 c0 -14 -7 -76 -15 -139 -47 -361 -190 -663 -443
-940 -46 -50 -108 -121 -136 -155 -28 -35 -98 -104 -156 -153 -58 -49 -141
-121 -185 -160 -259 -230 -617 -382 -956 -406 l-92 -6 6 92 c15 203 79 428
178 623 72 140 148 249 269 383 49 55 113 130 142 166 29 36 70 79 92 95 21
16 97 82 170 147 244 220 468 348 737 421 110 30 250 53 332 55 54 1 57 0 57
-23z"/>
<path d="M3822 3913 c-202 -27 -426 -105 -594 -206 -126 -75 -197 -130 -319
-243 -52 -48 -117 -104 -146 -126 -29 -22 -76 -70 -106 -106 -30 -37 -92 -108
-139 -159 -227 -247 -376 -543 -423 -845 -9 -57 -18 -115 -20 -130 -4 -25 -3
-26 33 -22 372 48 669 180 925 410 48 43 128 113 176 154 49 41 123 116 165
165 42 50 108 126 147 170 208 233 344 528 389 841 17 117 22 112 -88 97z m18
-82 c0 -35 -46 -239 -71 -315 -81 -243 -197 -433 -403 -661 -232 -256 -478
-451 -701 -554 -141 -66 -400 -141 -484 -141 -27 0 -27 14 0 142 57 275 182
528 371 753 238 283 518 517 753 630 190 92 535 185 535 146z"/>
<path d="M3624 3735 c-168 -45 -317 -112 -469 -212 -186 -123 -452 -377 -611
-583 -141 -182 -245 -404 -294 -625 l-17 -82 82 18 c359 78 674 284 1017 666
166 184 267 341 341 528 33 84 87 270 87 301 0 19 -30 17 -136 -11z m42 -94
c-10 -65 -66 -220 -116 -326 -172 -360 -520 -705 -881 -874 -79 -37 -254 -100
-322 -115 -32 -8 -33 -9 15 144 152 484 579 938 1064 1131 60 23 220 75 243
78 2 1 1 -16 -3 -38z"/>
<path d="M3480 3551 c-253 -95 -499 -268 -702 -496 -151 -169 -267 -362 -336
-557 l-31 -87 87 31 c235 82 439 216 644 422 195 195 329 398 407 619 17 49
31 90 31 93 0 9 -28 2 -100 -25z m0 -76 c0 -16 -86 -201 -126 -269 -160 -279
-383 -482 -685 -625 -57 -27 -115 -52 -127 -56 -21 -6 -23 -4 -17 17 15 55
122 261 180 348 117 176 243 301 420 416 129 84 355 191 355 169z"/>
<path d="M3270 3317 c-287 -165 -474 -358 -615 -638 l-27 -52 79 43 c272 149
454 327 602 590 28 49 51 92 51 95 0 11 -18 3 -90 -38z m-61 -124 c-45 -75
-134 -198 -169 -233 -35 -35 -158 -124 -234 -170 l-38 -23 12 24 c34 64 130
199 175 244 42 42 254 195 271 195 3 0 -5 -17 -17 -37z"/>
<path d="M4750 5944 c176 -59 428 -175 570 -263 198 -123 203 -127 288 -256
155 -232 250 -427 338 -690 l53 -160 1 105 c0 100 -2 110 -42 210 -111 278
-334 639 -444 721 -177 131 -412 263 -613 345 -102 42 -110 44 -211 44 l-105
-1 165 -55z"/>
<path d="M5122 5927 c161 -82 290 -160 405 -246 119 -87 244 -264 395 -556
l77 -150 1 64 c0 58 -5 73 -46 150 -115 212 -281 435 -391 522 -91 73 -271
191 -374 248 -68 37 -83 41 -143 41 l-68 0 144 -73z"/>
<path d="M5339 5947 c125 -78 311 -218 356 -268 62 -67 145 -181 229 -313 l76
-119 0 50 c0 43 -7 59 -51 124 -168 243 -302 380 -523 529 -64 43 -82 50 -123
50 l-48 0 84 -53z"/>
<path d="M5480 5996 c0 -2 24 -21 53 -42 164 -120 304 -262 419 -425 l43 -61
3 37 c3 31 -4 45 -52 103 -78 94 -259 279 -334 340 -49 40 -71 52 -98 52 -18
0 -34 -2 -34 -4z"/>
<path d="M5783 5878 c68 -68 145 -147 171 -177 43 -50 46 -52 46 -26 0 21 -32
60 -142 176 -119 123 -148 149 -171 149 -27 0 -18 -10 96 -122z"/>
<path d="M5845 5958 c141 -152 155 -164 155 -134 0 8 -20 32 -43 53 -24 21
-59 57 -78 80 -19 24 -43 43 -54 43 -16 0 -12 -7 20 -42z"/>
<path d="M5944 5979 c15 -23 56 -54 56 -44 0 10 -54 65 -63 65 -4 0 -2 -9 7
-21z"/>
<path d="M1 5748 c-1 -151 0 -160 30 -245 64 -183 157 -347 294 -518 40 -49
93 -121 118 -160 215 -337 263 -727 136 -1110 -72 -217 -181 -396 -356 -588
-52 -56 -123 -140 -159 -187 -59 -78 -64 -89 -64 -135 l0 -50 44 70 c73 116
145 211 239 313 216 234 331 433 400 692 29 108 30 126 31 300 0 168 -3 194
-26 281 -55 201 -136 359 -269 523 -224 276 -341 541 -408 921 -7 39 -9 17
-10 -107z"/>
<path d="M0 5326 c0 -60 4 -73 41 -134 44 -72 91 -137 200 -277 97 -125 190
-314 231 -470 29 -112 31 -132 32 -300 1 -200 -8 -261 -60 -423 -67 -207 -180
-397 -348 -584 -78 -87 -96 -113 -96 -139 l0 -31 38 49 c21 26 80 93 131 148
204 222 325 443 387 710 15 64 19 118 18 265 0 168 -3 194 -27 283 -50 187
-133 346 -266 510 -98 122 -161 219 -227 350 l-54 109 0 -66z"/>
<path d="M1 5086 c-1 -32 8 -50 53 -106 165 -204 262 -409 302 -644 24 -135
15 -377 -20 -512 -50 -199 -137 -378 -267 -550 -42 -55 -69 -101 -69 -115 1
-56 220 223 299 380 155 308 186 656 85 968 -50 155 -113 263 -289 491 -33 42
-68 88 -77 102 l-17 25 0 -39z"/>
<path d="M0 4902 c0 -19 14 -53 34 -84 209 -328 257 -730 131 -1105 -33 -99
-93 -229 -142 -306 -17 -27 -23 -49 -21 -75 l3 -37 64 95 c84 127 126 211 171
350 48 147 64 244 64 400 -1 251 -70 466 -220 691 -25 37 -54 75 -65 85 -18
17 -19 16 -19 -14z"/>
<path d="M0 4682 c0 -46 8 -87 30 -148 47 -133 64 -240 64 -404 0 -162 -17
-268 -64 -410 -21 -62 -30 -107 -30 -151 l1 -64 35 68 c88 171 129 353 128
567 -1 210 -35 355 -124 528 l-39 77 -1 -63z"/>
<path d="M2 4130 c0 -199 2 -245 11 -210 14 60 14 375 0 425 -9 32 -11 -12
-11 -215z"/>
<path d="M5962 3480 c-72 -205 -205 -422 -360 -590 -313 -339 -445 -620 -459
-975 -11 -296 72 -554 259 -798 191 -249 258 -359 327 -534 42 -106 84 -249
105 -363 l14 -71 -42 6 c-84 14 -264 64 -361 100 -178 66 -332 155 -500 290
-221 178 -406 263 -655 301 -359 55 -765 -79 -1076 -355 -192 -171 -231 -204
-315 -261 -109 -75 -263 -153 -389 -196 l-95 -34 93 0 c90 0 97 2 175 41 129
64 261 158 402 285 194 175 310 256 477 333 187 87 359 125 563 125 328 0 579
-97 875 -337 239 -193 500 -308 833 -367 l98 -17 -7 46 c-12 95 -57 277 -91
375 -65 189 -158 355 -288 516 -245 304 -346 582 -331 920 8 200 45 346 136
537 75 159 155 272 309 441 123 133 221 268 285 393 l57 108 -3 88 -3 88 -33
-95z"/>
<path d="M5953 3174 c-62 -104 -147 -215 -255 -331 -119 -128 -201 -244 -271
-381 -103 -201 -147 -381 -147 -598 0 -297 87 -525 308 -812 65 -83 139 -189
165 -236 109 -191 189 -413 224 -621 l18 -110 3 155 c2 145 1 160 -24 235 -60
183 -164 368 -308 548 -96 122 -127 168 -180 274 -186 368 -183 789 9 1175 73
146 153 260 295 418 67 74 141 165 166 201 40 57 45 71 42 110 l-3 44 -42 -71z"/>
<path d="M5953 2977 c-18 -23 -75 -89 -128 -147 -353 -385 -485 -838 -370
-1269 49 -182 120 -317 267 -503 102 -130 156 -213 223 -347 l54 -106 1 66 c0
63 -2 70 -57 157 -32 50 -89 131 -128 179 -177 221 -271 416 -311 643 -18 102
-20 316 -3 420 28 184 122 416 234 580 59 87 107 147 208 258 36 41 57 73 57
88 0 34 -10 30 -47 -19z"/>
<path d="M5921 2785 c-174 -199 -288 -422 -342 -666 -30 -135 -32 -350 -5
-479 38 -184 120 -365 227 -505 33 -44 91 -120 127 -169 65 -87 67 -88 70 -58
3 34 4 33 -115 192 -130 173 -220 395 -249 613 -46 350 68 726 317 1044 43 55
63 104 42 102 -5 0 -37 -33 -72 -74z"/>
<path d="M5969 2670 c-171 -227 -279 -539 -279 -806 0 -268 111 -571 285 -779
l25 -30 0 34 c0 22 -15 57 -46 108 -144 229 -212 519 -186 782 20 205 81 393
183 573 38 66 50 96 47 120 l-3 33 -26 -35z"/>
<path d="M5973 2453 c-118 -219 -169 -530 -129 -772 21 -126 54 -229 109 -341
l42 -85 3 57 c2 43 -4 77 -26 140 -53 149 -67 236 -66 418 0 181 13 267 66
422 22 65 28 101 26 145 l-3 58 -22 -42z"/>
<path d="M5983 2073 c-11 -68 -8 -402 5 -438 8 -22 10 35 11 228 1 141 -1 257
-3 257 -3 0 -8 -21 -13 -47z"/>
<path d="M1 1316 c-1 -102 1 -114 35 -200 82 -208 276 -544 389 -674 73 -84
397 -282 630 -384 l120 -52 120 -3 120 -3 -97 30 c-256 79 -501 195 -742 353
l-108 71 -90 135 c-142 216 -281 511 -352 752 l-25 84 0 -109z"/>
<path d="M0 954 c0 -65 3 -72 66 -183 119 -209 264 -400 362 -478 91 -73 269
-191 373 -247 77 -41 92 -46 150 -46 l64 1 -150 77 c-291 151 -445 260 -535
380 -92 123 -175 259 -257 420 l-73 143 0 -67z"/>
<path d="M1 697 c-1 -43 5 -58 58 -135 151 -220 290 -359 510 -511 65 -45 81
-51 124 -51 l50 0 -89 56 c-317 199 -383 267 -641 670 -10 16 -12 12 -12 -29z"/>
<path d="M3990 714 c-14 -3 -63 -12 -110 -21 -113 -21 -235 -64 -347 -123
-159 -83 -219 -127 -450 -334 -72 -64 -190 -149 -309 -223 -16 -10 -12 -12 29
-12 43 -1 56 5 120 52 40 30 108 87 152 127 124 114 193 169 280 226 368 239
773 304 1151 183 131 -41 289 -123 398 -206 273 -209 384 -275 578 -347 97
-36 97 -36 255 -35 l158 1 -80 14 c-230 41 -432 112 -625 221 -73 41 -111 67
-316 223 -154 117 -310 191 -484 231 -83 19 -342 34 -400 23z"/>
<path d="M3924 565 c-276 -50 -519 -175 -749 -385 -55 -51 -124 -110 -153
-133 -51 -40 -52 -42 -26 -45 18 -3 37 6 59 25 18 15 72 62 120 103 209 181
444 302 695 356 120 25 328 30 451 9 250 -41 432 -127 662 -310 48 -38 129
-96 179 -127 87 -55 94 -58 157 -58 l66 0 -105 53 c-127 64 -217 122 -330 212
-216 173 -399 261 -624 300 -106 18 -303 18 -402 0z"/>
<path d="M0 488 c0 -33 11 -50 89 -140 91 -106 230 -244 313 -311 38 -31 53
-38 82 -35 l36 3 -82 60 c-148 109 -230 195 -410 425 l-27 35 -1 -37z"/>
<path d="M4030 439 c-289 -20 -586 -155 -846 -386 -55 -49 -57 -53 -32 -53 17
0 57 23 117 68 170 128 345 213 541 264 95 25 142 31 268 35 240 9 409 -27
616 -130 99 -48 136 -73 257 -164 79 -61 101 -73 133 -73 l38 0 -85 63 c-47
34 -118 88 -160 120 -247 191 -531 277 -847 256z"/>
<path d="M0 317 c0 -17 43 -68 143 -171 118 -122 147 -147 168 -144 21 3 5 22
-143 170 -134 134 -168 163 -168 145z"/>
<path d="M4000 299 c-218 -23 -466 -120 -660 -260 l-55 -39 44 0 c26 0 53 7
69 19 54 37 217 113 316 146 141 47 257 66 416 66 245 0 455 -59 663 -185 58
-35 86 -46 110 -44 32 3 31 4 -48 62 -176 128 -398 213 -616 236 -112 11 -117
11 -239 -1z"/>
<path d="M0 173 c0 -11 17 -32 38 -47 20 -16 54 -51 75 -77 24 -30 46 -49 59
-49 16 0 10 11 -33 58 -30 32 -73 75 -96 96 -36 32 -43 35 -43 19z"/>
<path d="M3975 159 c-38 -5 -112 -20 -163 -34 -95 -25 -288 -101 -298 -116
-13 -21 118 -8 205 21 144 47 249 63 406 63 158 0 265 -17 406 -64 68 -23 104
-29 147 -27 l57 3 -85 41 c-164 79 -302 112 -490 119 -63 2 -146 0 -185 -6z"/>
<path d="M0 65 c1 -16 50 -68 58 -61 3 4 -8 21 -26 39 -18 17 -32 27 -32 22z"/>
<path d="M3965 20 c-33 -6 -67 -11 -75 -14 -8 -2 98 -4 235 -4 170 0 239 3
215 9 -51 14 -305 19 -375 9z"/>
</g>
</svg>
