<?xml version="1.0" encoding="UTF-8"?>
<!DOCTYPE svg PUBLIC "-//W3C//DTD SVG 1.1//EN" "http://www.w3.org/Graphics/SVG/1.1/DTD/svg11.dtd">
<svg xmlns="http://www.w3.org/2000/svg" version="1.1" width="600px" height="600px" style="shape-rendering:geometricPrecision; text-rendering:geometricPrecision; image-rendering:optimizeQuality; fill-rule:evenodd; clip-rule:evenodd" xmlns:xlink="http://www.w3.org/1999/xlink">
<g><path style="opacity:0.004" fill="#f5f5f5" d="M -0.5,-0.5 C 2.5,-0.5 5.5,-0.5 8.5,-0.5C 38.377,3.40609 66.0437,13.5728 91.5,30C 101.809,38.4866 112.476,46.4866 123.5,54C 166.054,77.2177 208.721,77.2177 251.5,54C 257.337,50.5825 263.004,46.9158 268.5,43C 279.5,33.3333 290.5,23.6667 301.5,14C 308.727,8.89451 316.061,4.06118 323.5,-0.5C 328.5,-0.5 333.5,-0.5 338.5,-0.5C 326.765,5.54005 315.431,12.3734 304.5,20C 294.535,28.2962 284.869,36.9628 275.5,46C 249.203,66.8235 219.203,77.6569 185.5,78.5C 162.133,78.0769 140.466,71.9102 120.5,60C 107.833,50.6667 95.1667,41.3333 82.5,32C 59.0313,18.0104 33.698,9.51039 6.5,6.5C 9.50796,33.6906 18.008,59.024 32,82.5C 40.0905,93.6795 48.4238,104.679 57,115.5C 83.8365,159.423 85.5031,204.423 62,250.5C 53.2985,266.543 42.2985,280.876 29,293.5C 17.1411,307.23 7.30773,322.23 -0.5,338.5C -0.5,333.5 -0.5,328.5 -0.5,323.5C 5.06244,314.726 10.8958,306.06 17,297.5C 31.9513,283.226 44.618,267.226 55,249.5C 83.0465,192.422 75.3798,140.755 32,94.5C 14.9426,68.4869 4.10924,40.1536 -0.5,9.5C -0.5,6.16667 -0.5,2.83333 -0.5,-0.5 Z"/></g>
<g><path style="opacity:1" fill="#0e0e0e" d="M 8.5,-0.5 C 19.5,-0.5 30.5,-0.5 41.5,-0.5C 67.0227,7.76096 89.6893,20.9276 109.5,39C 157.127,70.7853 206.127,72.7853 256.5,45C 271.447,35.6801 285.113,24.6801 297.5,12C 303.02,7.96963 308.353,3.80296 313.5,-0.5C 316.833,-0.5 320.167,-0.5 323.5,-0.5C 316.061,4.06118 308.727,8.89451 301.5,14C 290.5,23.6667 279.5,33.3333 268.5,43C 263.004,46.9158 257.337,50.5825 251.5,54C 208.721,77.2177 166.054,77.2177 123.5,54C 112.476,46.4866 101.809,38.4866 91.5,30C 66.0437,13.5728 38.377,3.40609 8.5,-0.5 Z"/></g>
<g><path style="opacity:0.004" fill="#f5f5f5" d="M 41.5,-0.5 C 48.1667,-0.5 54.8333,-0.5 61.5,-0.5C 80.1462,8.15672 97.1462,19.3234 112.5,33C 151.498,60.4152 193.165,65.0818 237.5,47C 248.149,42.3458 258.149,36.6791 267.5,30C 279.064,19.5953 290.73,9.42863 302.5,-0.5C 306.167,-0.5 309.833,-0.5 313.5,-0.5C 308.353,3.80296 303.02,7.96963 297.5,12C 285.113,24.6801 271.447,35.6801 256.5,45C 206.127,72.7853 157.127,70.7853 109.5,39C 89.6893,20.9276 67.0227,7.76096 41.5,-0.5 Z"/></g>
<g><path style="opacity:1" fill="#0d0d0d" d="M 61.5,-0.5 C 65.8333,-0.5 70.1667,-0.5 74.5,-0.5C 88.1593,7.97721 101.159,17.4772 113.5,28C 154.133,53.893 196.8,57.5596 241.5,39C 262.246,29.0712 280.579,15.9045 296.5,-0.5C 298.5,-0.5 300.5,-0.5 302.5,-0.5C 290.73,9.42863 279.064,19.5953 267.5,30C 258.149,36.6791 248.149,42.3458 237.5,47C 193.165,65.0818 151.498,60.4152 112.5,33C 97.1462,19.3234 80.1462,8.15672 61.5,-0.5 Z"/></g>
<g><path style="opacity:0.004" fill="#f4f4f4" d="M 74.5,-0.5 C 78.8333,-0.5 83.1667,-0.5 87.5,-0.5C 97.2668,6.7541 106.933,14.2541 116.5,22C 155.904,46.9993 197.238,50.3326 240.5,32C 257.638,24.0142 272.638,13.1809 285.5,-0.5C 289.167,-0.5 292.833,-0.5 296.5,-0.5C 280.579,15.9045 262.246,29.0712 241.5,39C 196.8,57.5596 154.133,53.893 113.5,28C 101.159,17.4772 88.1593,7.97721 74.5,-0.5 Z"/></g>
<g><path style="opacity:1" fill="#0d0d0d" d="M 87.5,-0.5 C 90.1667,-0.5 92.8333,-0.5 95.5,-0.5C 136.658,37.1639 183.658,46.3306 236.5,27C 248.269,22.2847 259.269,16.2847 269.5,9C 273.359,5.96839 277.026,2.80173 280.5,-0.5C 282.167,-0.5 283.833,-0.5 285.5,-0.5C 272.638,13.1809 257.638,24.0142 240.5,32C 197.238,50.3326 155.904,46.9993 116.5,22C 106.933,14.2541 97.2668,6.7541 87.5,-0.5 Z"/></g>
<g><path style="opacity:0.004" fill="#f5f5f5" d="M 95.5,-0.5 C 99.1667,-0.5 102.833,-0.5 106.5,-0.5C 129.022,19.5166 155.522,29.85 186,30.5C 213.023,29.4919 237.856,21.6585 260.5,7C 263.69,4.63556 266.69,2.13556 269.5,-0.5C 273.167,-0.5 276.833,-0.5 280.5,-0.5C 277.026,2.80173 273.359,5.96839 269.5,9C 259.269,16.2847 248.269,22.2847 236.5,27C 183.658,46.3306 136.658,37.1639 95.5,-0.5 Z"/></g>
<g><path style="opacity:1" fill="#0d0d0d" d="M 106.5,-0.5 C 108.833,-0.5 111.167,-0.5 113.5,-0.5C 153.822,27.0939 196.488,30.9273 241.5,11C 248.719,7.89779 255.386,4.06446 261.5,-0.5C 264.167,-0.5 266.833,-0.5 269.5,-0.5C 266.69,2.13556 263.69,4.63556 260.5,7C 237.856,21.6585 213.023,29.4919 186,30.5C 155.522,29.85 129.022,19.5166 106.5,-0.5 Z"/></g>
<g><path style="opacity:0.004" fill="#f3f3f3" d="M 113.5,-0.5 C 117.833,-0.5 122.167,-0.5 126.5,-0.5C 143.907,10.6491 163.074,16.3157 184,16.5C 207.148,16.6096 228.648,10.943 248.5,-0.5C 252.833,-0.5 257.167,-0.5 261.5,-0.5C 255.386,4.06446 248.719,7.89779 241.5,11C 196.488,30.9273 153.822,27.0939 113.5,-0.5 Z"/></g>
<g><path style="opacity:1" fill="#0b0b0b" d="M 126.5,-0.5 C 130.833,-0.5 135.167,-0.5 139.5,-0.5C 163.621,10.1127 188.621,12.2794 214.5,6C 221.509,4.49617 228.175,2.32951 234.5,-0.5C 239.167,-0.5 243.833,-0.5 248.5,-0.5C 228.648,10.943 207.148,16.6096 184,16.5C 163.074,16.3157 143.907,10.6491 126.5,-0.5 Z"/></g>
<g><path style="opacity:0.004" fill="#f4f4f4" d="M 139.5,-0.5 C 146.5,-0.5 153.5,-0.5 160.5,-0.5C 177.484,3.38543 194.484,3.38543 211.5,-0.5C 219.167,-0.5 226.833,-0.5 234.5,-0.5C 228.175,2.32951 221.509,4.49617 214.5,6C 188.621,12.2794 163.621,10.1127 139.5,-0.5 Z"/></g>
<g><path style="opacity:1" fill="#101010" d="M 160.5,-0.5 C 177.5,-0.5 194.5,-0.5 211.5,-0.5C 194.484,3.38543 177.484,3.38543 160.5,-0.5 Z"/></g>
<g><path style="opacity:1" fill="#0d0d0d" d="M 338.5,-0.5 C 344.5,-0.5 350.5,-0.5 356.5,-0.5C 333.015,7.41024 311.682,19.2436 292.5,35C 263.408,66.7932 227.241,83.6265 184,85.5C 150.41,83.7839 121.576,71.2839 97.5,48C 72.6299,30.2426 44.9632,19.0759 14.5,14.5C 18.4754,39.7856 26.9754,63.4522 40,85.5C 49.3333,98.1667 58.6667,110.833 68,123.5C 90.6569,164.42 91.3236,205.753 70,247.5C 60.2899,264.553 48.2899,279.886 34,293.5C 18.3074,312.22 6.80741,333.22 -0.5,356.5C -0.5,350.5 -0.5,344.5 -0.5,338.5C 7.30773,322.23 17.1411,307.23 29,293.5C 42.2985,280.876 53.2985,266.543 62,250.5C 85.5031,204.423 83.8365,159.423 57,115.5C 48.4238,104.679 40.0905,93.6795 32,82.5C 18.008,59.024 9.50796,33.6906 6.5,6.5C 33.698,9.51039 59.0313,18.0104 82.5,32C 95.1667,41.3333 107.833,50.6667 120.5,60C 140.466,71.9102 162.133,78.0769 185.5,78.5C 219.203,77.6569 249.203,66.8235 275.5,46C 284.869,36.9628 294.535,28.2962 304.5,20C 315.431,12.3734 326.765,5.54005 338.5,-0.5 Z"/></g>
<g><path style="opacity:0.004" fill="#f5f5f5" d="M 356.5,-0.5 C 367.833,-0.5 379.167,-0.5 390.5,-0.5C 360.945,2.63294 333.945,12.7996 309.5,30C 297.907,38.9221 286.907,48.5888 276.5,59C 244.91,84.1934 208.91,94.86 168.5,91C 138.828,85.6645 113.161,72.6645 91.5,52C 70.6227,36.8802 47.6227,27.3802 22.5,23.5C 27.7864,48.2102 37.6197,70.8769 52,91.5C 102.038,149.147 105.371,209.48 62,272.5C 50.9597,284.538 40.293,296.871 30,309.5C 12.8051,333.926 2.63843,360.926 -0.5,390.5C -0.5,379.167 -0.5,367.833 -0.5,356.5C 6.80741,333.22 18.3074,312.22 34,293.5C 48.2899,279.886 60.2899,264.553 70,247.5C 91.3236,205.753 90.6569,164.42 68,123.5C 58.6667,110.833 49.3333,98.1667 40,85.5C 26.9754,63.4522 18.4754,39.7856 14.5,14.5C 44.9632,19.0759 72.6299,30.2426 97.5,48C 121.576,71.2839 150.41,83.7839 184,85.5C 227.241,83.6265 263.408,66.7932 292.5,35C 311.682,19.2436 333.015,7.41024 356.5,-0.5 Z"/></g>
<g><path style="opacity:0.004" fill="#f5f5f5" d="M 413.5,-0.5 C 428.167,-0.5 442.833,-0.5 457.5,-0.5C 491.376,9.10396 522.709,24.104 551.5,44.5C 573.618,73.7361 589.618,106.069 599.5,141.5C 599.5,154.833 599.5,168.167 599.5,181.5C 593.832,131.999 575.832,87.4987 545.5,48C 505.689,20.2319 461.689,4.06518 413.5,-0.5 Z"/></g>
<g><path style="opacity:1" fill="#0e0e0e" d="M 457.5,-0.5 C 464.833,-0.5 472.167,-0.5 479.5,-0.5C 506.563,9.69633 531.563,23.5297 554.5,41C 573.515,64.8632 588.515,91.0299 599.5,119.5C 599.5,126.833 599.5,134.167 599.5,141.5C 589.618,106.069 573.618,73.7361 551.5,44.5C 522.709,24.104 491.376,9.10396 457.5,-0.5 Z"/></g>
<g><path style="opacity:0.004" fill="#f5f5f5" d="M 479.5,-0.5 C 485.5,-0.5 491.5,-0.5 497.5,-0.5C 518.614,9.44599 538.614,21.2793 557.5,35C 564.767,42.9308 571.267,51.4308 577,60.5C 585.036,73.9079 592.536,87.5745 599.5,101.5C 599.5,107.5 599.5,113.5 599.5,119.5C 588.515,91.0299 573.515,64.8632 554.5,41C 531.563,23.5297 506.563,9.69633 479.5,-0.5 Z"/></g>
<g><path style="opacity:1" fill="#0e0e0e" d="M 497.5,-0.5 C 502.167,-0.5 506.833,-0.5 511.5,-0.5C 530.748,9.71378 548.581,22.0471 565,36.5C 578.261,52.6966 589.761,70.0299 599.5,88.5C 599.5,92.8333 599.5,97.1667 599.5,101.5C 592.536,87.5745 585.036,73.9079 577,60.5C 571.267,51.4308 564.767,42.9308 557.5,35C 538.614,21.2793 518.614,9.44599 497.5,-0.5 Z"/></g>
<g><path style="opacity:0.004" fill="#f4f4f4" d="M 511.5,-0.5 C 516.167,-0.5 520.833,-0.5 525.5,-0.5C 542.275,9.32227 557.775,20.9889 572,34.5C 581.93,47.3779 591.097,60.7113 599.5,74.5C 599.5,79.1667 599.5,83.8333 599.5,88.5C 589.761,70.0299 578.261,52.6966 565,36.5C 548.581,22.0471 530.748,9.71378 511.5,-0.5 Z"/></g>
<g><path style="opacity:1" fill="#121212" d="M 525.5,-0.5 C 528.833,-0.5 532.167,-0.5 535.5,-0.5C 546.124,6.82722 556.457,14.6606 566.5,23C 578.357,35.9278 589.357,49.4278 599.5,63.5C 599.5,67.1667 599.5,70.8333 599.5,74.5C 591.097,60.7113 581.93,47.3779 572,34.5C 557.775,20.9889 542.275,9.32227 525.5,-0.5 Z"/></g>
<g><path style="opacity:0.004" fill="#f6f6f6" d="M 535.5,-0.5 C 539.5,-0.5 543.5,-0.5 547.5,-0.5C 557.874,7.79307 568.041,16.4597 578,25.5C 585.667,34.205 592.834,43.205 599.5,52.5C 599.5,56.1667 599.5,59.8333 599.5,63.5C 589.357,49.4278 578.357,35.9278 566.5,23C 556.457,14.6606 546.124,6.82722 535.5,-0.5 Z"/></g>
<g><path style="opacity:1" fill="#111111" d="M 547.5,-0.5 C 549.833,-0.5 552.167,-0.5 554.5,-0.5C 571.053,12.9302 586.053,27.9302 599.5,44.5C 599.5,47.1667 599.5,49.8333 599.5,52.5C 592.834,43.205 585.667,34.205 578,25.5C 568.041,16.4597 557.874,7.79307 547.5,-0.5 Z"/></g>
<g><path style="opacity:0.005" fill="#f5f5f5" d="M 554.5,-0.5 C 558.167,-0.5 561.833,-0.5 565.5,-0.5C 577.532,10.5316 588.866,22.1982 599.5,34.5C 599.5,37.8333 599.5,41.1667 599.5,44.5C 586.053,27.9302 571.053,12.9302 554.5,-0.5 Z"/></g>
<g><path style="opacity:1" fill="#161616" d="M 565.5,-0.5 C 567.5,-0.5 569.5,-0.5 571.5,-0.5C 580.133,9.80078 589.467,19.4674 599.5,28.5C 599.5,30.5 599.5,32.5 599.5,34.5C 588.866,22.1982 577.532,10.5316 565.5,-0.5 Z"/></g>
<g><path style="opacity:0.004" fill="#f7f7f7" d="M 571.5,-0.5 C 574.5,-0.5 577.5,-0.5 580.5,-0.5C 585.854,6.85446 592.188,13.1878 599.5,18.5C 599.5,21.8333 599.5,25.1667 599.5,28.5C 589.467,19.4674 580.133,9.80078 571.5,-0.5 Z"/></g>
<g><path style="opacity:0.004" fill="#f6f6f6" d="M 584.5,-0.5 C 587.167,-0.5 589.833,-0.5 592.5,-0.5C 593.833,2.83333 596.167,5.16667 599.5,6.5C 599.5,9.5 599.5,12.5 599.5,15.5C 593.137,11.4361 588.137,6.10274 584.5,-0.5 Z"/></g>
<g><path style="opacity:0.004" fill="#f7f7f7" d="M 594.5,-0.5 C 596.167,-0.5 597.833,-0.5 599.5,-0.5C 599.5,1.16667 599.5,2.83333 599.5,4.5C 597.167,3.5 595.5,1.83333 594.5,-0.5 Z"/></g>
<g><path style="opacity:1" fill="#0d0d0d" d="M 390.5,-0.5 C 398.167,-0.5 405.833,-0.5 413.5,-0.5C 461.689,4.06518 505.689,20.2319 545.5,48C 575.832,87.4987 593.832,131.999 599.5,181.5C 599.5,189.167 599.5,196.833 599.5,204.5C 596.337,237.152 585.17,266.819 566,293.5C 557.704,303.465 549.037,313.131 540,322.5C 507.985,362.253 499.319,406.586 514,455.5C 521.389,474.624 532.056,491.624 546,506.5C 561.199,527.419 571.365,550.585 576.5,576C 550.655,571.27 526.989,561.27 505.5,546C 464.308,507.725 416.975,497.725 363.5,516C 348.716,522.221 335.049,530.221 322.5,540C 308.281,554.562 292.614,567.229 275.5,578C 253.304,590.455 229.637,597.621 204.5,599.5C 196.167,599.5 187.833,599.5 179.5,599.5C 132.049,593.623 88.8823,576.623 50,548.5C 21.427,508.613 4.59368,464.28 -0.5,415.5C -0.5,407.167 -0.5,398.833 -0.5,390.5C 2.63843,360.926 12.8051,333.926 30,309.5C 40.293,296.871 50.9597,284.538 62,272.5C 105.371,209.48 102.038,149.147 52,91.5C 37.6197,70.8769 27.7864,48.2102 22.5,23.5C 47.6227,27.3802 70.6227,36.8802 91.5,52C 113.161,72.6645 138.828,85.6645 168.5,91C 208.91,94.86 244.91,84.1934 276.5,59C 286.907,48.5888 297.907,38.9221 309.5,30C 333.945,12.7996 360.945,2.63294 390.5,-0.5 Z"/></g>
<g><path style="opacity:1" fill="#2d2d2d" d="M 592.5,-0.5 C 593.167,-0.5 593.833,-0.5 594.5,-0.5C 595.5,1.83333 597.167,3.5 599.5,4.5C 599.5,5.16667 599.5,5.83333 599.5,6.5C 596.167,5.16667 593.833,2.83333 592.5,-0.5 Z"/></g>
<g><path style="opacity:0.004" fill="#f4f4f4" d="M 390.5,6.5 C 447.972,5.49319 499.805,21.8265 546,55.5C 568.888,88.8193 583.554,125.486 590,165.5C 596.624,212.997 586.291,256.331 559,295.5C 549.333,306.5 539.667,317.5 530,328.5C 494.44,374.749 490.107,423.749 517,475.5C 528.068,489.303 538.402,503.637 548,518.5C 557.005,533.858 563.005,550.191 566,567.5C 549.102,562.975 532.935,556.475 517.5,548C 502.637,538.402 488.303,528.068 474.5,517C 425.128,491.1 377.795,494.433 332.5,527C 323.203,534.629 314.203,542.629 305.5,551C 258.58,588.777 205.58,600.777 146.5,587C 113.072,578.698 82.2386,564.865 54,545.5C 21.4003,499.029 5.73366,447.363 7,390.5C 9.84889,358.824 20.5156,330.157 39,304.5C 50.6667,290.833 62.3333,277.167 74,263.5C 111.792,204.372 107.459,148.705 61,96.5C 46.5095,76.8065 37.0095,55.1399 32.5,31.5C 55.7726,37.3056 77.1059,47.1389 96.5,61C 152.78,109.774 211.114,112.108 271.5,68C 283.205,57.2927 295.205,46.9593 307.5,37C 332.799,20.1805 360.465,10.0138 390.5,6.5 Z"/></g>
<g><path style="opacity:1" fill="#1a1a1a" d="M 580.5,-0.5 C 581.833,-0.5 583.167,-0.5 584.5,-0.5C 588.137,6.10274 593.137,11.4361 599.5,15.5C 599.5,16.5 599.5,17.5 599.5,18.5C 592.188,13.1878 585.854,6.85446 580.5,-0.5 Z"/></g>
<g><path style="opacity:1" fill="#0d0d0d" d="M -0.5,9.5 C 4.10924,40.1536 14.9426,68.4869 32,94.5C 75.3798,140.755 83.0465,192.422 55,249.5C 44.618,267.226 31.9513,283.226 17,297.5C 10.8958,306.06 5.06244,314.726 -0.5,323.5C -0.5,320.167 -0.5,316.833 -0.5,313.5C 9.71941,300.437 20.5527,287.77 32,275.5C 58.7338,241.566 68.7338,203.233 62,160.5C 58.5486,145.598 52.882,131.598 45,118.5C 34.9463,105.446 25.2796,92.1131 16,78.5C 9.39839,66.4782 3.89839,54.1448 -0.5,41.5C -0.5,30.8333 -0.5,20.1667 -0.5,9.5 Z"/></g>
<g><path style="opacity:1" fill="#0c0c0c" d="M 390.5,13.5 C 445.293,12.2665 495.127,27.2665 540,58.5C 567.807,98.6301 582.973,143.13 585.5,192C 585.648,231.561 573.481,266.728 549,297.5C 532.672,313.18 519.006,330.846 508,350.5C 481.722,408.429 490.055,460.762 533,507.5C 543.989,523.141 551.989,540.141 557,558.5C 544.433,553.968 532.266,548.468 520.5,542C 506.167,531.667 491.833,521.333 477.5,511C 424.641,484.126 374.308,488.126 326.5,523C 316.535,531.296 306.869,539.963 297.5,549C 250.542,584.124 198.542,594.124 141.5,579C 113.062,570.778 86.3955,558.778 61.5,543C 41.3039,515.769 27.1372,485.603 19,452.5C 5.86485,400.07 14.5315,351.737 45,307.5C 57.4161,294.422 69.0828,280.755 80,266.5C 108.395,224.276 113.062,179.609 94,132.5C 86.2841,117.124 76.6174,103.124 65,90.5C 54.1412,75.4655 46.6412,59.1322 42.5,41.5C 59.7292,46.9484 75.7292,54.7818 90.5,65C 140.248,110.454 195.248,117.787 255.5,87C 265.39,81.1094 274.723,74.4427 283.5,67C 312.629,36.0248 348.296,18.1914 390.5,13.5 Z"/></g>
<g><path style="opacity:0.004" fill="#f4f4f4" d="M 390.5,20.5 C 442.897,19.466 491.231,32.966 535.5,61C 567.049,107.695 580.883,159.195 577,215.5C 572.458,248.495 559.792,277.828 539,303.5C 516.737,323.686 500.737,348.02 491,376.5C 479.92,417.294 486.92,454.627 512,488.5C 527.503,505.692 539.336,525.192 547.5,547C 536.275,543.913 525.608,539.247 515.5,533C 503.298,525.065 491.632,516.398 480.5,507C 441.405,483.156 400.738,480.156 358.5,498C 337.846,508.5 319.512,522.167 303.5,539C 257.781,574.482 206.448,586.149 149.5,574C 117.478,566.734 87.9781,553.9 61,535.5C 39.3202,500.462 25.9869,462.462 21,421.5C 17.1211,374.655 29.7878,332.988 59,296.5C 79.0678,277.771 94.4011,255.771 105,230.5C 121.418,181.19 112.085,137.523 77,99.5C 65.818,84.7991 57.6514,68.7991 52.5,51.5C 62.4071,55.4531 72.0737,59.9531 81.5,65C 96.01,75.0883 110.343,85.4216 124.5,96C 165.648,117.652 206.981,117.985 248.5,97C 265.89,86.9539 281.556,74.6205 295.5,60C 323.25,37.3625 354.917,24.1958 390.5,20.5 Z"/></g>
<g><path style="opacity:1" fill="#0c0c0c" d="M 391.5,27.5 C 442.207,26.2954 488.874,39.2954 531.5,66.5C 556.175,104.693 569.509,146.527 571.5,192C 571.603,234.042 558.103,270.875 531,302.5C 503.307,327.546 486.307,358.546 480,395.5C 476.277,426.491 482.611,455.157 499,481.5C 508.822,493.811 518.155,506.478 527,519.5C 530.308,525.058 532.975,530.725 535,536.5C 525.315,531.069 515.815,525.236 506.5,519C 461.932,478.28 411.599,469.28 355.5,492C 344.976,497.205 334.976,503.205 325.5,510C 314.5,519.667 303.5,529.333 292.5,539C 256.985,564.561 217.319,575.228 173.5,571C 135.303,566.231 99.9696,553.564 67.5,533C 37.0336,486.301 24.2002,435.134 29,379.5C 33.461,351.253 44.461,325.919 62,303.5C 79.0146,286.828 93.348,268.161 105,247.5C 127.35,199.827 124.016,154.16 95,110.5C 82.5435,96.3675 72.0435,80.8675 63.5,64C 72.5574,67.6725 81.224,72.3392 89.5,78C 104.993,92.5882 122.659,103.922 142.5,112C 190.643,126.638 234.643,118.638 274.5,88C 285.5,78.3333 296.5,68.6667 307.5,59C 332.71,40.8879 360.71,30.3879 391.5,27.5 Z"/></g>
<g><path style="opacity:0.004" fill="#f4f4f4" d="M 388.5,34.5 C 438.337,32.7253 484.67,44.5586 527.5,70C 550.842,108.033 563.175,149.366 564.5,194C 563.754,234.578 550.921,270.745 526,302.5C 511.049,316.774 498.382,332.774 488,350.5C 461.377,406.139 468.71,456.806 510,502.5C 514.291,508.915 518.458,515.415 522.5,522C 515.194,518.838 508.194,514.838 501.5,510C 460.467,472.127 413.8,463.127 361.5,483C 339.031,493.466 319.364,507.8 302.5,526C 255.328,562.17 202.661,573.17 144.5,559C 118.801,552.323 94.4677,542.323 71.5,529C 43.2539,483.439 31.4205,433.939 36,380.5C 40.464,349.401 52.464,321.735 72,297.5C 90.5294,280.308 105.196,260.308 116,237.5C 136.408,184.209 127.075,136.876 88,95.5C 83.791,89.5851 79.9576,83.4184 76.5,77C 81.4796,79.3283 86.4796,81.9949 91.5,85C 101.215,93.0498 111.215,100.716 121.5,108C 165.384,132.502 209.384,132.502 253.5,108C 262.112,102.387 270.446,96.3875 278.5,90C 308.589,58.4556 345.255,39.9556 388.5,34.5 Z"/></g>
<g><path style="opacity:1" fill="#0c0c0c" d="M 104.5,105.5 C 104.5,104.833 104.833,104.5 105.5,104.5C 146.993,136.188 191.993,142.022 240.5,122C 255.163,115.645 268.497,107.312 280.5,97C 329.747,46.5974 388.747,30.2641 457.5,48C 480.554,54.2409 502.388,63.4076 523,75.5C 547.901,116.329 559.234,160.662 557,208.5C 552.401,252.699 533.734,289.699 501,319.5C 475.147,350.059 463.48,385.393 466,425.5C 469.115,453.222 479.948,477.389 498.5,498C 447.427,458.519 393.76,455.185 337.5,488C 322.624,498.537 308.624,510.203 295.5,523C 251.26,555.382 202.26,565.382 148.5,553C 123.435,546.983 99.7683,537.65 77.5,525C 50.5653,482.429 38.732,435.929 42,385.5C 45.5746,355.367 56.5746,328.367 75,304.5C 88.8446,290.664 101.178,275.664 112,259.5C 139.842,212.809 140.509,165.809 114,118.5C 111.002,114.008 107.835,109.675 104.5,105.5 Z"/></g>
<g><path style="opacity:0.004" fill="#f4f4f4" d="M -0.5,41.5 C 3.89839,54.1448 9.39839,66.4782 16,78.5C 25.2796,92.1131 34.9463,105.446 45,118.5C 52.882,131.598 58.5486,145.598 62,160.5C 68.7338,203.233 58.7338,241.566 32,275.5C 20.5527,287.77 9.71941,300.437 -0.5,313.5C -0.5,309.833 -0.5,306.167 -0.5,302.5C 10.4686,290.025 21.3019,277.358 32,264.5C 59.2479,225.267 64.5812,183.267 48,138.5C 44.4262,130.347 40.0929,122.68 35,115.5C 20.1393,99.1098 8.30599,80.7764 -0.5,60.5C -0.5,54.1667 -0.5,47.8333 -0.5,41.5 Z"/></g>
<g><path style="opacity:0.004" fill="#f4f4f4" d="M 384.5,48.5 C 432.052,45.9772 476.719,56.1439 518.5,79C 545.894,125.752 555.394,175.919 547,229.5C 542.003,252.819 532.669,274.152 519,293.5C 510.412,304.759 501.079,315.426 491,325.5C 461.922,361.215 452.589,401.548 463,446.5C 466.112,457.514 470.946,467.681 477.5,477C 423.921,448.362 373.254,453.029 325.5,491C 278.281,541.071 220.614,559.738 152.5,547C 126.37,541.406 101.87,531.906 79,518.5C 54.3533,474.565 44.6867,427.565 50,377.5C 56.5255,339.775 73.5255,307.775 101,281.5C 131.052,249.009 143.719,210.676 139,166.5C 136.284,151.073 130.784,136.74 122.5,123.5C 168.887,147.758 214.554,145.925 259.5,118C 273.428,108.187 286.428,97.1873 298.5,85C 324.032,65.3995 352.698,53.2328 384.5,48.5 Z"/></g>
<g><path style="opacity:1" fill="#0e0e0e" d="M 395.5,54.5 C 437.365,54.2995 476.698,64.1328 513.5,84C 538.092,126.293 547.592,171.793 542,220.5C 537.584,246.099 527.917,269.433 513,290.5C 501.333,304.167 489.667,317.833 478,331.5C 457.105,361.629 448.771,394.962 453,431.5C 454.758,441.744 457.092,451.744 460,461.5C 412.424,444.547 368.257,451.047 327.5,481C 316.5,490.667 305.5,500.333 294.5,510C 255.101,538.848 211.101,549.515 162.5,542C 135.051,537.184 109.051,528.184 84.5,515C 63.5825,476.496 53.7492,435.33 55,391.5C 59.4282,348.311 77.4282,311.978 109,282.5C 140.575,246.439 152.241,204.772 144,157.5C 142.293,151.003 140.126,144.67 137.5,138.5C 190.529,155.661 238.529,146.161 281.5,110C 312.337,76.7482 350.337,58.2482 395.5,54.5 Z"/></g>
<g><path style="opacity:1" fill="#0e0e0e" d="M -0.5,60.5 C 8.30599,80.7764 20.1393,99.1098 35,115.5C 40.0929,122.68 44.4262,130.347 48,138.5C 64.5812,183.267 59.2479,225.267 32,264.5C 21.3019,277.358 10.4686,290.025 -0.5,302.5C -0.5,300.167 -0.5,297.833 -0.5,295.5C 39.6448,258.848 55.8115,213.515 48,159.5C 41.7306,134.289 29.7306,112.289 12,93.5C 7.80965,87.1015 3.64298,80.7682 -0.5,74.5C -0.5,69.8333 -0.5,65.1667 -0.5,60.5 Z"/></g>
<g><path style="opacity:0.004" fill="#f5f5f5" d="M 385.5,62.5 C 429.13,59.9082 470.463,68.4082 509.5,88C 535.084,135.914 542.251,186.414 531,239.5C 524.612,261.944 514.279,282.277 500,300.5C 484.718,315.105 471.718,331.438 461,349.5C 443.321,381.718 439.821,415.385 450.5,450.5C 410.956,439.14 373.956,444.64 339.5,467C 325.913,477.249 312.913,488.249 300.5,500C 258.024,532.534 210.358,543.867 157.5,534C 133.685,529.728 111.018,522.062 89.5,511C 67.1393,469.195 58.6393,424.695 64,377.5C 69.1748,346.269 81.8414,318.602 102,294.5C 127.659,271.524 144.326,243.191 152,209.5C 156.148,188.834 154.982,168.501 148.5,148.5C 191.238,160.186 230.572,153.019 266.5,127C 278.063,118.04 289.063,108.373 299.5,98C 325.04,78.4354 353.707,66.602 385.5,62.5 Z"/></g>
<g><path style="opacity:1" fill="#0d0d0d" d="M 394.5,68.5 C 433.139,67.8265 469.806,75.9932 504.5,93C 527.861,136.33 535.027,182.163 526,230.5C 519.557,259.057 506.557,284.057 487,305.5C 447.642,342.572 431.975,387.906 440,441.5C 400.162,433.779 363.662,441.613 330.5,465C 319.241,473.588 308.574,482.921 298.5,493C 257.765,524.685 211.765,536.351 160.5,528C 137.417,523.861 115.417,516.528 94.5,506C 72.8087,465.021 64.9754,421.521 71,375.5C 76.402,348.034 87.7354,323.367 105,301.5C 123.916,283.665 138.916,262.999 150,239.5C 160.554,212.792 163.387,185.459 158.5,157.5C 200.385,165.362 238.385,156.529 272.5,131C 282.465,122.704 292.131,114.037 301.5,105C 328.825,83.333 359.825,71.1663 394.5,68.5 Z"/></g>
<g><path style="opacity:0.004" fill="#f4f4f4" d="M -0.5,74.5 C 3.64298,80.7682 7.80965,87.1015 12,93.5C 29.7306,112.289 41.7306,134.289 48,159.5C 55.8115,213.515 39.6448,258.848 -0.5,295.5C -0.5,292.167 -0.5,288.833 -0.5,285.5C 34.2123,252.204 48.3789,211.538 42,163.5C 38.3319,146.504 31.6653,130.837 22,116.5C 14.2541,106.933 6.7541,97.2668 -0.5,87.5C -0.5,83.1667 -0.5,78.8333 -0.5,74.5 Z"/></g>
<g><path style="opacity:0.004" fill="#f4f4f4" d="M 391.5,75.5 C 429.179,74.4024 465.179,81.5691 499.5,97C 522.084,141.245 528.251,187.745 518,236.5C 511.634,259.563 501.301,280.563 487,299.5C 477.333,310.5 467.667,321.5 458,332.5C 436.24,362.469 427.74,395.803 432.5,432.5C 395.789,428.019 362.456,436.519 332.5,458C 322.869,465.962 313.536,474.296 304.5,483C 265.125,514.767 220.125,527.767 169.5,522C 145.073,518.966 121.739,512.3 99.5,502C 78.0625,460.473 71.2292,416.64 79,370.5C 84.2863,344.613 94.953,321.28 111,300.5C 120.667,289.5 130.333,278.5 140,267.5C 162.202,237.386 171.035,203.72 166.5,166.5C 203.739,170.941 237.406,162.108 267.5,140C 277.131,132.038 286.464,123.704 295.5,115C 323.527,92.1583 355.527,78.9916 391.5,75.5 Z"/></g>
<g><path style="opacity:1" fill="#0c0c0c" d="M 387.5,82.5 C 425.418,80.8742 461.751,87.5409 496.5,102.5C 504.99,123.809 511.157,145.809 515,168.5C 520.938,216.424 509.272,259.424 480,297.5C 461.084,315.335 446.084,336.001 435,359.5C 426.15,380.279 422.65,401.946 424.5,424.5C 389.506,422.394 357.84,431.56 329.5,452C 318.241,460.588 307.574,469.921 297.5,480C 258.905,509.902 215.238,521.569 166.5,515C 144.65,511.742 123.65,505.576 103.5,496.5C 83.5436,454.64 78.0436,410.973 87,365.5C 92.8273,342.18 103.161,321.18 118,302.5C 135.436,285.745 149.77,266.745 161,245.5C 171.384,222.963 175.884,199.296 174.5,174.5C 209.494,176.606 241.16,167.44 269.5,147C 281.093,138.078 292.093,128.411 302.5,118C 327.604,98.4482 355.938,86.6149 387.5,82.5 Z"/></g>
<g><path style="opacity:1" fill="#0d0d0d" d="M -0.5,87.5 C 6.7541,97.2668 14.2541,106.933 22,116.5C 31.6653,130.837 38.3319,146.504 42,163.5C 48.3789,211.538 34.2123,252.204 -0.5,285.5C -0.5,283.833 -0.5,282.167 -0.5,280.5C 36.31,237.944 45.4767,189.944 27,136.5C 19.5504,121.238 10.3838,107.238 -0.5,94.5C -0.5,92.1667 -0.5,89.8333 -0.5,87.5 Z"/></g>
<g><path style="opacity:0.004" fill="#f4f4f4" d="M 391.5,89.5 C 425.9,88.0889 458.9,94.0889 490.5,107.5C 512.77,155.832 515.27,205.166 498,255.5C 491.125,273.016 481.792,289.016 470,303.5C 450.9,321.038 436.233,341.705 426,365.5C 419.428,382.196 416.261,399.529 416.5,417.5C 384.927,416.97 356.594,426.136 331.5,445C 321.869,452.962 312.536,461.296 303.5,470C 253.711,508.192 198.378,518.859 137.5,502C 127.501,498.915 117.667,495.415 108,491.5C 91.0132,451.93 86.0132,410.93 93,368.5C 98.7597,343.985 109.093,321.651 124,301.5C 135.04,289.462 145.707,277.129 156,264.5C 173.461,239.614 181.961,211.947 181.5,181.5C 211.947,181.961 239.614,173.461 264.5,156C 275.759,147.412 286.426,138.079 296.5,128C 324.365,105.733 356.032,92.8992 391.5,89.5 Z"/></g>
<g><path style="opacity:0.004" fill="#f5f5f5" d="M -0.5,94.5 C 10.3838,107.238 19.5504,121.238 27,136.5C 45.4767,189.944 36.31,237.944 -0.5,280.5C -0.5,276.833 -0.5,273.167 -0.5,269.5C 23.2895,239.697 33.1228,205.697 29,167.5C 24.9927,144.157 15.1593,123.823 -0.5,106.5C -0.5,102.5 -0.5,98.5 -0.5,94.5 Z"/></g>
<g><path style="opacity:1" fill="#0c0c0c" d="M 385.5,96.5 C 420.349,94.5732 454.016,99.9065 486.5,112.5C 494.267,132.827 499.433,153.827 502,175.5C 506.139,233.109 487.139,281.443 445,320.5C 426.727,342.622 415.394,367.955 411,396.5C 410.501,401.155 410.334,405.821 410.5,410.5C 376.648,412.06 346.648,423.56 320.5,445C 273.377,495.037 216.043,512.703 148.5,498C 136.593,495.106 124.926,491.44 113.5,487C 93.0727,439.51 91.2393,391.344 108,342.5C 118.817,318.541 133.817,297.541 153,279.5C 174.832,253.154 186.665,222.82 188.5,188.5C 218.684,187.05 246.017,177.55 270.5,160C 281.797,150.706 292.797,141.039 303.5,131C 327.873,112.378 355.207,100.878 385.5,96.5 Z"/></g>
<g><path style="opacity:0.388" fill="#797979" d="M 105.5,104.5 C 104.833,104.5 104.5,104.833 104.5,105.5C 103.069,103.563 101.402,101.73 99.5,100C 102.121,100.427 104.121,101.927 105.5,104.5 Z"/></g>
<g><path style="opacity:0.004" fill="#f4f4f4" d="M 387.5,103.5 C 419.485,101.776 450.485,106.442 480.5,117.5C 500.165,166.108 500.332,214.774 481,263.5C 473.078,279.69 463.412,294.69 452,308.5C 424.161,334.178 407.994,365.845 403.5,403.5C 374.839,406.835 349.173,417.335 326.5,435C 267.578,495.39 198.245,511.057 118.5,482C 100.649,437.511 98.8153,392.344 113,346.5C 124.455,318.588 141.122,294.255 163,273.5C 181.331,250.687 192.164,224.687 195.5,195.5C 222.505,192.658 246.838,183.158 268.5,167C 280.538,155.96 292.871,145.293 305.5,135C 330.183,117.5 357.516,107 387.5,103.5 Z"/></g>
<g><path style="opacity:1" fill="#0d0d0d" d="M -0.5,106.5 C 15.1593,123.823 24.9927,144.157 29,167.5C 33.1228,205.697 23.2895,239.697 -0.5,269.5C -0.5,266.833 -0.5,264.167 -0.5,261.5C 22.9797,225.984 28.813,187.65 17,146.5C 12.6952,134.551 6.8619,123.551 -0.5,113.5C -0.5,111.167 -0.5,108.833 -0.5,106.5 Z"/></g>
<g><path style="opacity:1" fill="#0d0d0d" d="M 396.5,109.5 C 423.889,109.555 450.556,113.888 476.5,122.5C 485.983,150.029 489.816,178.362 488,207.5C 485.284,242.667 472.617,273.667 450,300.5C 425.562,322.625 408.895,349.625 400,381.5C 398.933,386.806 398.099,392.139 397.5,397.5C 358.916,403.613 326.583,421.113 300.5,450C 256.88,484.902 207.547,496.569 152.5,485C 142.685,482.673 133.018,479.839 123.5,476.5C 104.888,430.018 105.055,383.684 124,337.5C 130.5,323.82 138.5,311.154 148,299.5C 169.158,279.848 184.825,256.515 195,229.5C 198.1,220.371 200.267,211.037 201.5,201.5C 229.051,197.492 253.717,186.992 275.5,170C 286.312,160.098 297.312,150.431 308.5,141C 334.948,122.241 364.282,111.741 396.5,109.5 Z"/></g>
<g><path style="opacity:0.004" fill="#f3f3f3" d="M -0.5,113.5 C 6.8619,123.551 12.6952,134.551 17,146.5C 28.813,187.65 22.9797,225.984 -0.5,261.5C -0.5,257.167 -0.5,252.833 -0.5,248.5C 19.0366,213.437 21.5366,177.104 7,139.5C 4.72575,134.613 2.22575,129.946 -0.5,125.5C -0.5,121.5 -0.5,117.5 -0.5,113.5 Z"/></g>
<g><path style="opacity:0.004" fill="#f5f5f5" d="M 385.5,117.5 C 414.567,115.439 442.9,118.939 470.5,128C 495.034,204.026 478.868,269.86 422,325.5C 406.173,344.824 396.006,366.824 391.5,391.5C 366.931,396.186 344.931,406.353 325.5,422C 270.293,479.052 204.626,495.552 128.5,471.5C 117.316,438.906 114.482,405.573 120,371.5C 128.616,333.256 147.282,300.923 176,274.5C 191.627,254.577 202.461,232.243 208.5,207.5C 233.285,202.606 255.285,192.106 274.5,176C 297.039,151.809 324.039,134.475 355.5,124C 365.56,121.496 375.56,119.33 385.5,117.5 Z"/></g>
<g><path style="opacity:1" fill="#0d0d0d" d="M 391.5,123.5 C 416.41,122.327 440.743,125.494 464.5,133C 483.024,186.984 477.191,238.15 447,286.5C 438.746,297.425 429.746,307.758 420,317.5C 402.959,337.248 391.459,359.914 385.5,385.5C 351.711,394.124 323.044,411.291 299.5,437C 259.003,469.376 213.003,481.376 161.5,473C 151.893,471.432 142.559,468.932 133.5,465.5C 116.202,414.232 121.035,365.232 148,318.5C 151.754,312.658 155.754,306.991 160,301.5C 181.798,281.244 198.131,257.244 209,229.5C 210.335,224.162 211.669,218.829 213,213.5C 236.363,207.734 257.53,197.567 276.5,183C 290.719,168.438 306.386,155.771 323.5,145C 344.83,133.176 367.496,126.009 391.5,123.5 Z"/></g>
<g><path style="opacity:1" fill="#0b0b0b" d="M -0.5,125.5 C 2.22575,129.946 4.72575,134.613 7,139.5C 21.5366,177.104 19.0366,213.437 -0.5,248.5C -0.5,243.833 -0.5,239.167 -0.5,234.5C 12.7411,202.467 12.7411,170.467 -0.5,138.5C -0.5,134.167 -0.5,129.833 -0.5,125.5 Z"/></g>
<g><path style="opacity:0.004" fill="#f4f4f4" d="M 392.5,130.5 C 415.403,130.137 437.903,132.804 460,138.5C 476.837,197.492 467.171,251.492 431,300.5C 412.867,317.626 398.201,337.292 387,359.5C 384.102,365.964 381.769,372.63 380,379.5C 359.686,386.072 341.186,395.905 324.5,409C 272.386,463.07 210.219,479.903 138,459.5C 119.291,387.944 136.291,326.611 189,275.5C 203.038,258.76 212.871,239.76 218.5,218.5C 239.76,212.871 258.76,203.038 275.5,189C 307.327,155.086 346.327,135.586 392.5,130.5 Z"/></g>
<g><path style="opacity:1" fill="#0d0d0d" d="M 390.5,137.5 C 412.447,136.717 434.113,138.717 455.5,143.5C 467.128,189.523 461.962,233.523 440,275.5C 430.68,290.447 419.68,304.113 407,316.5C 392.019,333.788 381.186,353.455 374.5,375.5C 354.871,380.98 337.204,390.147 321.5,403C 272.403,454.614 213.07,472.114 143.5,455.5C 126.611,386.356 143.778,327.356 195,278.5C 208.301,262.571 217.968,244.571 224,224.5C 243.66,218.256 261.493,208.756 277.5,196C 296.403,175.891 318.403,160.224 343.5,149C 358.847,143.231 374.514,139.398 390.5,137.5 Z"/></g>
<g><path style="opacity:0.004" fill="#f4f4f4" d="M -0.5,138.5 C 12.7411,170.467 12.7411,202.467 -0.5,234.5C -0.5,226.833 -0.5,219.167 -0.5,211.5C 2.19441,198.764 3.02775,185.764 2,172.5C 1.58122,168.608 0.747883,164.942 -0.5,161.5C -0.5,153.833 -0.5,146.167 -0.5,138.5 Z"/></g>
<g><path style="opacity:0.004" fill="#f4f4f4" d="M 389.5,144.5 C 409.736,143.535 429.736,145.201 449.5,149.5C 463.676,217.115 446.176,274.781 397,322.5C 385.451,336.253 376.451,351.587 370,368.5C 344.899,378.93 323.066,394.096 304.5,414C 258.73,450.64 207.063,462.473 149.5,449.5C 134.923,382.416 152.09,325.083 201,277.5C 212.639,263.224 221.973,247.557 229,230.5C 242.559,224.601 255.393,217.435 267.5,209C 278.5,199.333 289.5,189.667 300.5,180C 327.031,160.214 356.697,148.381 389.5,144.5 Z"/></g>
<g><path style="opacity:1" fill="#0c0c0c" d="M 386.5,151.5 C 405.602,150.922 424.602,151.922 443.5,154.5C 453.347,201.425 445.513,245.092 420,285.5C 408.043,300.46 395.709,315.126 383,329.5C 375.548,340.065 369.382,351.399 364.5,363.5C 339.039,374.899 316.706,390.733 297.5,411C 255.09,443.617 207.424,454.784 154.5,444.5C 143.781,389.534 155.948,340.534 191,297.5C 209.795,279.904 224.128,259.237 234,235.5C 246.637,229.596 258.804,222.762 270.5,215C 281.759,206.412 292.426,197.079 302.5,187C 327.283,167.464 355.283,155.631 386.5,151.5 Z"/></g>
<g><path style="opacity:0.004" fill="#f3f3f3" d="M 388.5,158.5 C 404.244,158.013 419.911,158.846 435.5,161C 436.308,161.308 436.975,161.808 437.5,162.5C 446.086,212.555 435.253,257.889 405,298.5C 394.293,310.205 383.959,322.205 374,334.5C 368.545,342.412 363.878,350.746 360,359.5C 351.094,363.701 342.594,368.534 334.5,374C 319.125,387.377 303.458,400.377 287.5,413C 248.7,436.858 206.7,445.358 161.5,438.5C 152.989,391.554 161.822,348.221 188,308.5C 199.624,293.874 211.624,279.541 224,265.5C 229.505,257.16 234.505,248.493 239,239.5C 260.7,228.805 279.867,214.638 296.5,197C 323.569,175.48 354.235,162.646 388.5,158.5 Z"/></g>
<g><path style="opacity:1" fill="#0e0e0e" d="M -0.5,161.5 C 0.747883,164.942 1.58122,168.608 2,172.5C 3.02775,185.764 2.19441,198.764 -0.5,211.5C -0.5,194.833 -0.5,178.167 -0.5,161.5 Z"/></g>
<g><path style="opacity:1" fill="#0b0b0b" d="M 386.5,165.5 C 401.849,165.329 417.183,165.663 432.5,166.5C 438.138,212.175 427.971,253.842 402,291.5C 392.333,302.5 382.667,313.5 373,324.5C 366.081,333.998 359.915,343.998 354.5,354.5C 344.007,359.911 334.007,366.077 324.5,373C 313.5,382.667 302.5,392.333 291.5,402C 253.964,428.48 212.298,438.646 166.5,432.5C 160.206,388.443 169.373,348.109 194,311.5C 206.333,296.833 218.667,282.167 231,267.5C 236.093,260.32 240.426,252.653 244,244.5C 264.575,234.29 282.741,220.79 298.5,204C 324.157,182.669 353.491,169.836 386.5,165.5 Z"/></g>
<g><path style="opacity:0.004" fill="#f4f4f4" d="M 388.5,172.5 C 400.848,172.414 413.181,172.747 425.5,173.5C 430.484,233.732 410.984,284.399 367,325.5C 361.253,332.654 356.253,340.321 352,348.5C 343.167,354.667 334.333,360.833 325.5,367C 306.99,386.256 285.656,401.589 261.5,413C 233.545,424.347 204.545,428.514 174.5,425.5C 168.493,378.348 179.993,336.015 209,298.5C 218.037,289.131 226.704,279.465 235,269.5C 239.625,262.418 244.125,255.251 248.5,248C 257.342,243.415 265.675,238.082 273.5,232C 293.613,210.449 317.28,194.116 344.5,183C 358.95,178.015 373.616,174.515 388.5,172.5 Z"/></g>
<g><path style="opacity:1" fill="#0f0f0f" d="M 387.5,179.5 C 398.167,179.5 408.833,179.5 419.5,179.5C 422.147,224.386 409.647,264.386 382,299.5C 367.74,313.25 355.573,328.584 345.5,345.5C 337.995,350.085 330.662,354.918 323.5,360C 312.5,369.667 301.5,379.333 290.5,389C 257.244,412.097 220.244,422.264 179.5,419.5C 176.09,374.907 188.256,335.241 216,300.5C 230.621,286.556 242.954,270.89 253,253.5C 261.262,248.955 269.095,243.788 276.5,238C 292.453,222.038 310.12,208.372 329.5,197C 347.943,187.729 367.276,181.896 387.5,179.5 Z"/></g>
<g><path style="opacity:0.004" fill="#f6f6f6" d="M 384.5,186.5 C 393.833,186.5 403.167,186.5 412.5,186.5C 414.105,227.175 402.939,263.842 379,296.5C 371.038,306.131 362.704,315.464 354,324.5C 349.611,329.889 345.611,335.556 342,341.5C 336.079,345.544 330.245,349.711 324.5,354C 315.464,362.704 306.131,371.038 296.5,379C 263.82,402.946 227.154,414.113 186.5,412.5C 184.829,373.689 194.995,338.356 217,306.5C 225.254,295.575 234.254,285.242 244,275.5C 248.389,270.111 252.389,264.444 256,258.5C 271.044,247.796 285.21,235.963 298.5,223C 324.036,203.397 352.703,191.23 384.5,186.5 Z"/></g>
<g><path style="opacity:0.851" fill="#747474" d="M 393.5,193.5 C 397.634,192.515 401.968,192.182 406.5,192.5C 406.784,194.415 406.451,196.081 405.5,197.5C 405.5,196.167 405.5,194.833 405.5,193.5C 401.5,193.5 397.5,193.5 393.5,193.5 Z"/></g>
<g><path style="opacity:1" fill="#0e0e0e" d="M 393.5,193.5 C 397.5,193.5 401.5,193.5 405.5,193.5C 405.5,194.833 405.5,196.167 405.5,197.5C 403.968,244.632 386.135,284.299 352,316.5C 347.279,322.221 342.946,328.221 339,334.5C 324.849,345.17 311.349,356.67 298.5,369C 270.983,391.677 239.317,403.844 203.5,405.5C 200.167,405.5 196.833,405.5 193.5,405.5C 193.5,401.5 193.5,397.5 193.5,393.5C 195.608,359 207.441,328.334 229,301.5C 240.786,289.239 251.62,276.239 261.5,262.5C 266.973,258.86 272.306,255.027 277.5,251C 295.335,232.084 316.001,217.084 339.5,206C 356.782,198.731 374.782,194.564 393.5,193.5 Z"/></g>
<g><path style="opacity:0.004" fill="#f6f6f6" d="M 388.5,200.5 C 391.833,200.5 395.167,200.5 398.5,200.5C 397.211,234.199 387.045,264.866 368,292.5C 357.333,305.167 346.667,317.833 336,330.5C 324.073,340.883 312.239,351.383 300.5,362C 271.202,384.935 237.869,397.102 200.5,398.5C 201.384,365.229 211.217,334.895 230,307.5C 241.025,293.463 252.525,279.796 264.5,266.5C 276.315,256.52 287.981,246.353 299.5,236C 325.863,215.825 355.53,203.991 388.5,200.5 Z"/></g>
<g><path style="opacity:1" fill="#0e0e0e" d="M 380.5,207.5 C 384.167,207.5 387.833,207.5 391.5,207.5C 388.996,238.85 378.496,267.183 360,292.5C 349.626,303.872 339.626,315.539 330,327.5C 317.205,337.96 304.705,348.793 292.5,360C 267.388,378.874 239.055,389.374 207.5,391.5C 209.668,358.155 221.168,328.488 242,302.5C 251.414,293.091 260.08,283.091 268,272.5C 281.129,261.706 293.962,250.54 306.5,239C 328.728,222.758 353.394,212.258 380.5,207.5 Z"/></g>
<g><path style="opacity:0.004" fill="#f5f5f5" d="M 599.5,204.5 C 599.5,216.833 599.5,229.167 599.5,241.5C 591.846,265.477 580.013,287.143 564,306.5C 536.071,331.353 519.404,362.353 514,399.5C 511.5,427.497 517.5,453.497 532,477.5C 538.182,486.527 544.849,495.194 552,503.5C 569.277,527.825 579.777,554.825 583.5,584.5C 558.86,580.842 535.86,572.675 514.5,560C 501.833,550.667 489.167,541.333 476.5,532C 423.159,503.889 372.826,508.556 325.5,546C 302.113,571.187 274.113,589.02 241.5,599.5C 229.167,599.5 216.833,599.5 204.5,599.5C 229.637,597.621 253.304,590.455 275.5,578C 292.614,567.229 308.281,554.562 322.5,540C 335.049,530.221 348.716,522.221 363.5,516C 416.975,497.725 464.308,507.725 505.5,546C 526.989,561.27 550.655,571.27 576.5,576C 571.365,550.585 561.199,527.419 546,506.5C 532.056,491.624 521.389,474.624 514,455.5C 499.319,406.586 507.985,362.253 540,322.5C 549.037,313.131 557.704,303.465 566,293.5C 585.17,266.819 596.337,237.152 599.5,204.5 Z"/></g>
<g><path style="opacity:0.004" fill="#f5f5f5" d="M 377.5,215.5 C 379.5,215.5 381.5,215.5 383.5,215.5C 379.508,246.657 368.008,274.657 349,299.5C 327.736,326.197 302.569,348.364 273.5,366C 255.215,375.239 235.881,381.072 215.5,383.5C 218.932,352.647 230.098,324.98 249,300.5C 270.107,274.054 294.94,251.888 323.5,234C 340.63,224.902 358.63,218.736 377.5,215.5 Z"/></g>
<g><path style="opacity:1" fill="#0e0e0e" d="M 369.5,223.5 C 371.5,223.5 373.5,223.5 375.5,223.5C 368.786,258.931 352.619,289.265 327,314.5C 310.761,331.846 292.595,346.679 272.5,359C 257.062,367.201 240.729,372.701 223.5,375.5C 227.73,348.711 238.23,324.711 255,303.5C 262.705,295.463 270.039,287.13 277,278.5C 286.131,271.038 294.964,263.205 303.5,255C 323.36,239.902 345.36,229.402 369.5,223.5 Z"/></g>
<g><path style="opacity:0.004" fill="#f6f6f6" d="M 360.5,232.5 C 362.5,232.5 364.5,232.5 366.5,232.5C 360.107,262.289 346.607,288.289 326,310.5C 300.57,338.803 269.404,357.803 232.5,367.5C 233.699,358.052 236.199,348.718 240,339.5C 264.741,286.248 304.907,250.582 360.5,232.5 Z"/></g>
<g><path style="opacity:1" fill="#0f0f0f" d="M 354.5,241.5 C 355.675,241.281 356.675,241.614 357.5,242.5C 337.142,299.691 298.309,338.358 241,358.5C 258.215,306.271 292.049,268.771 342.5,246C 346.715,244.766 350.715,243.266 354.5,241.5 Z"/></g>
<g><path style="opacity:1" fill="#0e0e0e" d="M 599.5,241.5 C 599.5,247.833 599.5,254.167 599.5,260.5C 587.438,283.924 571.938,304.924 553,323.5C 520.679,364.113 512.679,409.113 529,458.5C 536.818,477.633 547.818,494.633 562,509.5C 579.136,534.905 589.136,562.905 592,593.5C 561.658,589.499 533.824,578.999 508.5,562C 489.332,543.912 466.999,531.245 441.5,524C 407.273,516.76 374.94,521.76 344.5,539C 335.485,544.507 326.818,550.507 318.5,557C 301.727,574.864 282.394,589.031 260.5,599.5C 254.167,599.5 247.833,599.5 241.5,599.5C 274.113,589.02 302.113,571.187 325.5,546C 372.826,508.556 423.159,503.889 476.5,532C 489.167,541.333 501.833,550.667 514.5,560C 535.86,572.675 558.86,580.842 583.5,584.5C 579.777,554.825 569.277,527.825 552,503.5C 544.849,495.194 538.182,486.527 532,477.5C 517.5,453.497 511.5,427.497 514,399.5C 519.404,362.353 536.071,331.353 564,306.5C 580.013,287.143 591.846,265.477 599.5,241.5 Z"/></g>
<g><path style="opacity:0.004" fill="#f5f5f5" d="M 345.5,251.5 C 346.376,251.369 347.043,251.702 347.5,252.5C 330.476,299.337 298.476,331.004 251.5,347.5C 263.039,313.252 284.039,286.419 314.5,267C 324.615,261.276 334.949,256.109 345.5,251.5 Z"/></g>
<g><path style="opacity:0.004" fill="#f5f5f5" d="M 599.5,260.5 C 599.5,265.5 599.5,270.5 599.5,275.5C 589.481,292.373 577.314,307.706 563,321.5C 544.328,343.516 532.662,368.849 528,397.5C 524.659,427.129 530.993,454.463 547,479.5C 554.667,489.5 562.333,499.5 570,509.5C 585.819,534.781 595.653,562.114 599.5,591.5C 599.5,594.167 599.5,596.833 599.5,599.5C 595.833,599.5 592.167,599.5 588.5,599.5C 558.531,595.187 530.864,584.687 505.5,568C 492.22,556.022 477.554,546.022 461.5,538C 422.424,522.149 384.424,524.482 347.5,545C 331.057,555.1 316.057,567.1 302.5,581C 293.596,587.42 284.596,593.587 275.5,599.5C 270.5,599.5 265.5,599.5 260.5,599.5C 282.394,589.031 301.727,574.864 318.5,557C 326.818,550.507 335.485,544.507 344.5,539C 374.94,521.76 407.273,516.76 441.5,524C 466.999,531.245 489.332,543.912 508.5,562C 533.824,578.999 561.658,589.499 592,593.5C 589.136,562.905 579.136,534.905 562,509.5C 547.818,494.633 536.818,477.633 529,458.5C 512.679,409.113 520.679,364.113 553,323.5C 571.938,304.924 587.438,283.924 599.5,260.5 Z"/></g>
<g><path style="opacity:1" fill="#0e0e0e" d="M 333.5,263.5 C 334.376,263.369 335.043,263.702 335.5,264.5C 320.167,296.5 296.5,320.167 264.5,335.5C 264.167,335.167 263.833,334.833 263.5,334.5C 278.828,302.84 302.161,279.173 333.5,263.5 Z"/></g>
<g><path style="opacity:1" fill="#0f0f0f" d="M 599.5,275.5 C 599.5,278.5 599.5,281.5 599.5,284.5C 589.327,298.52 578.16,311.854 566,324.5C 531.912,368.785 525.579,416.785 547,468.5C 553.944,482.059 562.611,494.393 573,505.5C 584.239,521.646 593.073,538.979 599.5,557.5C 599.5,568.833 599.5,580.167 599.5,591.5C 595.653,562.114 585.819,534.781 570,509.5C 562.333,499.5 554.667,489.5 547,479.5C 530.993,454.463 524.659,427.129 528,397.5C 532.662,368.849 544.328,343.516 563,321.5C 577.314,307.706 589.481,292.373 599.5,275.5 Z"/></g>
<g><path style="opacity:0.004" fill="#f6f6f6" d="M 319.5,277.5 C 321.028,277.517 321.528,278.184 321,279.5C 316.056,287.443 310.723,295.109 305,302.5C 296.223,309.943 286.89,316.609 277,322.5C 278.996,318.187 281.329,313.854 284,309.5C 287,305.5 290,301.5 293,297.5C 301.274,289.962 310.108,283.295 319.5,277.5 Z"/></g>
<g><path style="opacity:0.004" fill="#f5f5f5" d="M 599.5,284.5 C 599.5,288.833 599.5,293.167 599.5,297.5C 592.264,305.543 584.764,313.543 577,321.5C 547.064,355.811 536.064,395.477 544,440.5C 548.048,456.926 555.048,471.926 565,485.5C 579.026,501.559 590.526,519.226 599.5,538.5C 599.5,544.833 599.5,551.167 599.5,557.5C 593.073,538.979 584.239,521.646 573,505.5C 562.611,494.393 553.944,482.059 547,468.5C 525.579,416.785 531.912,368.785 566,324.5C 578.16,311.854 589.327,298.52 599.5,284.5 Z"/></g>
<g><path style="opacity:1" fill="#0f0f0f" d="M 599.5,297.5 C 599.5,299.167 599.5,300.833 599.5,302.5C 575.702,324.736 559.535,351.736 551,383.5C 543.784,418.458 549.451,451.125 568,481.5C 579.527,495.512 590.027,510.178 599.5,525.5C 599.5,529.833 599.5,534.167 599.5,538.5C 590.526,519.226 579.026,501.559 565,485.5C 555.048,471.926 548.048,456.926 544,440.5C 536.064,395.477 547.064,355.811 577,321.5C 584.764,313.543 592.264,305.543 599.5,297.5 Z"/></g>
<g><path style="opacity:0.004" fill="#f5f5f5" d="M 599.5,302.5 C 599.5,306.167 599.5,309.833 599.5,313.5C 562.776,348.51 548.943,391.177 558,441.5C 562.25,456.997 568.916,471.33 578,484.5C 585.429,493.722 592.596,503.055 599.5,512.5C 599.5,516.833 599.5,521.167 599.5,525.5C 590.027,510.178 579.527,495.512 568,481.5C 549.451,451.125 543.784,418.458 551,383.5C 559.535,351.736 575.702,324.736 599.5,302.5 Z"/></g>
<g><path style="opacity:1" fill="#0e0e0e" d="M 599.5,313.5 C 599.5,315.167 599.5,316.833 599.5,318.5C 561.864,360.948 552.698,408.948 572,462.5C 579.064,478.028 588.23,492.028 599.5,504.5C 599.5,507.167 599.5,509.833 599.5,512.5C 592.596,503.055 585.429,493.722 578,484.5C 568.916,471.33 562.25,456.997 558,441.5C 548.943,391.177 562.776,348.51 599.5,313.5 Z"/></g>
<g><path style="opacity:0.004" fill="#f3f3f3" d="M 599.5,318.5 C 599.5,322.167 599.5,325.833 599.5,329.5C 569.098,366.772 561.265,408.439 576,454.5C 581.319,469.159 589.152,482.159 599.5,493.5C 599.5,497.167 599.5,500.833 599.5,504.5C 588.23,492.028 579.064,478.028 572,462.5C 552.698,408.948 561.864,360.948 599.5,318.5 Z"/></g>
<g><path style="opacity:1" fill="#0b0b0b" d="M 599.5,329.5 C 599.5,331.833 599.5,334.167 599.5,336.5C 572.407,377.178 568.24,420.178 587,465.5C 590.632,472.932 594.799,479.932 599.5,486.5C 599.5,488.833 599.5,491.167 599.5,493.5C 589.152,482.159 581.319,469.159 576,454.5C 561.265,408.439 569.098,366.772 599.5,329.5 Z"/></g>
<g><path style="opacity:0.004" fill="#f4f4f4" d="M 599.5,336.5 C 599.5,341.167 599.5,345.833 599.5,350.5C 587.695,369.876 582.029,391.042 582.5,414C 582.444,435.61 588.111,455.443 599.5,473.5C 599.5,477.833 599.5,482.167 599.5,486.5C 594.799,479.932 590.632,472.932 587,465.5C 568.24,420.178 572.407,377.178 599.5,336.5 Z"/></g>
<g><path style="opacity:1" fill="#0c0c0c" d="M 599.5,350.5 C 599.5,354.5 599.5,358.5 599.5,362.5C 589.206,386.902 586.706,412.235 592,438.5C 593.636,446.245 596.136,453.578 599.5,460.5C 599.5,464.833 599.5,469.167 599.5,473.5C 588.111,455.443 582.444,435.61 582.5,414C 582.029,391.042 587.695,369.876 599.5,350.5 Z"/></g>
<g><path style="opacity:0.004" fill="#f4f4f4" d="M 599.5,362.5 C 599.5,370.833 599.5,379.167 599.5,387.5C 598.144,390.577 597.311,393.91 597,397.5C 596.333,407.833 596.333,418.167 597,428.5C 597.149,432.133 597.982,435.466 599.5,438.5C 599.5,445.833 599.5,453.167 599.5,460.5C 596.136,453.578 593.636,446.245 592,438.5C 586.706,412.235 589.206,386.902 599.5,362.5 Z"/></g>
<g><path style="opacity:1" fill="#1d1d1d" d="M 599.5,387.5 C 599.5,404.5 599.5,421.5 599.5,438.5C 597.982,435.466 597.149,432.133 597,428.5C 596.333,418.167 596.333,407.833 597,397.5C 597.311,393.91 598.144,390.577 599.5,387.5 Z"/></g>
<g><path style="opacity:1" fill="#555555" d="M 193.5,393.5 C 193.5,397.5 193.5,401.5 193.5,405.5C 196.833,405.5 200.167,405.5 203.5,405.5C 200.038,406.482 196.371,406.815 192.5,406.5C 192.182,401.968 192.515,397.634 193.5,393.5 Z"/></g>
<g><path style="opacity:0.004" fill="#f5f5f5" d="M -0.5,415.5 C 4.59368,464.28 21.427,508.613 50,548.5C 88.8823,576.623 132.049,593.623 179.5,599.5C 166.5,599.5 153.5,599.5 140.5,599.5C 106.158,589.912 74.6578,574.578 46,553.5C 24.84,524.181 9.33997,492.181 -0.5,457.5C -0.5,443.5 -0.5,429.5 -0.5,415.5 Z"/></g>
<g><path style="opacity:1" fill="#0e0e0e" d="M -0.5,457.5 C 9.33997,492.181 24.84,524.181 46,553.5C 74.6578,574.578 106.158,589.912 140.5,599.5C 133.167,599.5 125.833,599.5 118.5,599.5C 90.1559,588.747 64.3226,573.747 41,554.5C 23.5297,531.563 9.69633,506.563 -0.5,479.5C -0.5,472.167 -0.5,464.833 -0.5,457.5 Z"/></g>
<g><path style="opacity:0.004" fill="#f5f5f5" d="M -0.5,479.5 C 9.69633,506.563 23.5297,531.563 41,554.5C 64.3226,573.747 90.1559,588.747 118.5,599.5C 112.5,599.5 106.5,599.5 100.5,599.5C 78.5732,588.91 57.9065,576.243 38.5,561.5C 22.9373,541.704 9.93734,520.371 -0.5,497.5C -0.5,491.5 -0.5,485.5 -0.5,479.5 Z"/></g>
<g><path style="opacity:1" fill="#0f0f0f" d="M -0.5,497.5 C 9.93734,520.371 22.9373,541.704 38.5,561.5C 57.9065,576.243 78.5732,588.91 100.5,599.5C 96.1667,599.5 91.8333,599.5 87.5,599.5C 69.0299,589.761 51.6966,578.261 35.5,565C 21.8665,548.223 9.86646,530.389 -0.5,511.5C -0.5,506.833 -0.5,502.167 -0.5,497.5 Z"/></g>
<g><path style="opacity:0.004" fill="#f6f6f6" d="M -0.5,511.5 C 9.86646,530.389 21.8665,548.223 35.5,565C 51.6966,578.261 69.0299,589.761 87.5,599.5C 82.8333,599.5 78.1667,599.5 73.5,599.5C 59.2018,591.008 45.5351,581.508 32.5,571C 20.3771,556.562 9.37708,541.396 -0.5,525.5C -0.5,520.833 -0.5,516.167 -0.5,511.5 Z"/></g>
<g><path style="opacity:1" fill="#101010" d="M -0.5,525.5 C 9.37708,541.396 20.3771,556.562 32.5,571C 45.5351,581.508 59.2018,591.008 73.5,599.5C 70.1667,599.5 66.8333,599.5 63.5,599.5C 44.7129,587.554 28.2129,572.888 14,555.5C 9.30348,548.652 4.47015,541.985 -0.5,535.5C -0.5,532.167 -0.5,528.833 -0.5,525.5 Z"/></g>
<g><path style="opacity:1" fill="#0d0d0d" d="M 588.5,599.5 C 577.833,599.5 567.167,599.5 556.5,599.5C 544.572,595.234 532.905,590.067 521.5,584C 506.637,574.402 492.303,564.068 478.5,553C 436.003,529.532 393.003,528.532 349.5,550C 340.899,554.939 332.565,560.272 324.5,566C 311.897,577.78 298.897,588.947 285.5,599.5C 282.167,599.5 278.833,599.5 275.5,599.5C 284.596,593.587 293.596,587.42 302.5,581C 316.057,567.1 331.057,555.1 347.5,545C 384.424,524.482 422.424,522.149 461.5,538C 477.554,546.022 492.22,556.022 505.5,568C 530.864,584.687 558.531,595.187 588.5,599.5 Z"/></g>
<g><path style="opacity:0.004" fill="#f5f5f5" d="M 556.5,599.5 C 550.167,599.5 543.833,599.5 537.5,599.5C 518.141,590.649 500.475,579.149 484.5,565C 442.249,537.143 398.249,534.143 352.5,556C 345.332,560.083 338.332,564.416 331.5,569C 319.936,579.405 308.27,589.571 296.5,599.5C 292.833,599.5 289.167,599.5 285.5,599.5C 298.897,588.947 311.897,577.78 324.5,566C 332.565,560.272 340.899,554.939 349.5,550C 393.003,528.532 436.003,529.532 478.5,553C 492.303,564.068 506.637,574.402 521.5,584C 532.905,590.067 544.572,595.234 556.5,599.5 Z"/></g>
<g><path style="opacity:0.004" fill="#f7f7f7" d="M -0.5,535.5 C 4.47015,541.985 9.30348,548.652 14,555.5C 28.2129,572.888 44.7129,587.554 63.5,599.5C 59.5,599.5 55.5,599.5 51.5,599.5C 39.6401,590.819 28.4734,581.152 18,570.5C 11.8142,562.764 5.64751,555.097 -0.5,547.5C -0.5,543.5 -0.5,539.5 -0.5,535.5 Z"/></g>
<g><path style="opacity:1" fill="#0d0d0d" d="M 537.5,599.5 C 533.167,599.5 528.833,599.5 524.5,599.5C 511.176,591.358 498.509,582.191 486.5,572C 445.642,545.355 402.642,541.355 357.5,560C 336.754,569.929 318.421,583.095 302.5,599.5C 300.5,599.5 298.5,599.5 296.5,599.5C 308.27,589.571 319.936,579.405 331.5,569C 338.332,564.416 345.332,560.083 352.5,556C 398.249,534.143 442.249,537.143 484.5,565C 500.475,579.149 518.141,590.649 537.5,599.5 Z"/></g>
<g><path style="opacity:1" fill="#121212" d="M -0.5,547.5 C 5.64751,555.097 11.8142,562.764 18,570.5C 28.4734,581.152 39.6401,590.819 51.5,599.5C 48.8333,599.5 46.1667,599.5 43.5,599.5C 27.4652,585.799 12.7985,570.799 -0.5,554.5C -0.5,552.167 -0.5,549.833 -0.5,547.5 Z"/></g>
<g><path style="opacity:0.004" fill="#f4f4f4" d="M 524.5,599.5 C 520.167,599.5 515.833,599.5 511.5,599.5C 502.055,592.596 492.722,585.429 483.5,578C 444.673,552.57 403.673,548.57 360.5,566C 342.386,574.304 326.386,585.47 312.5,599.5C 309.167,599.5 305.833,599.5 302.5,599.5C 318.421,583.095 336.754,569.929 357.5,560C 402.642,541.355 445.642,545.355 486.5,572C 498.509,582.191 511.176,591.358 524.5,599.5 Z"/></g>
<g><path style="opacity:0.004" fill="#f6f6f6" d="M -0.5,554.5 C 12.7985,570.799 27.4652,585.799 43.5,599.5C 40.1667,599.5 36.8333,599.5 33.5,599.5C 21.8604,588.527 10.5271,577.194 -0.5,565.5C -0.5,561.833 -0.5,558.167 -0.5,554.5 Z"/></g>
<g><path style="opacity:1" fill="#0d0d0d" d="M 511.5,599.5 C 508.833,599.5 506.167,599.5 503.5,599.5C 462.962,562.737 416.628,553.237 364.5,571C 347.29,577.756 331.957,587.256 318.5,599.5C 316.5,599.5 314.5,599.5 312.5,599.5C 326.386,585.47 342.386,574.304 360.5,566C 403.673,548.57 444.673,552.57 483.5,578C 492.722,585.429 502.055,592.596 511.5,599.5 Z"/></g>
<g><path style="opacity:0.004" fill="#f5f5f5" d="M 503.5,599.5 C 499.833,599.5 496.167,599.5 492.5,599.5C 456.31,569.43 415.643,561.596 370.5,576C 355.204,581.305 341.537,589.138 329.5,599.5C 325.833,599.5 322.167,599.5 318.5,599.5C 331.957,587.256 347.29,577.756 364.5,571C 416.628,553.237 462.962,562.737 503.5,599.5 Z"/></g>
<g><path style="opacity:1" fill="#101010" d="M -0.5,565.5 C 10.5271,577.194 21.8604,588.527 33.5,599.5C 31.5,599.5 29.5,599.5 27.5,599.5C 18.8391,589.173 9.50574,579.506 -0.5,570.5C -0.5,568.833 -0.5,567.167 -0.5,565.5 Z"/></g>
<g><path style="opacity:1" fill="#0e0e0e" d="M 492.5,599.5 C 490.167,599.5 487.833,599.5 485.5,599.5C 451.866,576.666 415.199,570.499 375.5,581C 361.791,585.356 349.124,591.523 337.5,599.5C 334.833,599.5 332.167,599.5 329.5,599.5C 341.537,589.138 355.204,581.305 370.5,576C 415.643,561.596 456.31,569.43 492.5,599.5 Z"/></g>
<g><path style="opacity:0.004" fill="#f2f2f2" d="M -0.5,570.5 C 9.50574,579.506 18.8391,589.173 27.5,599.5C 24.5,599.5 21.5,599.5 18.5,599.5C 12.8247,592.457 6.49138,586.124 -0.5,580.5C -0.5,577.167 -0.5,573.833 -0.5,570.5 Z"/></g>
<g><path style="opacity:0.004" fill="#f5f5f5" d="M 485.5,599.5 C 481.167,599.5 476.833,599.5 472.5,599.5C 453.37,588.172 432.537,582.506 410,582.5C 388.567,583.039 368.734,588.705 350.5,599.5C 346.167,599.5 341.833,599.5 337.5,599.5C 349.124,591.523 361.791,585.356 375.5,581C 415.199,570.499 451.866,576.666 485.5,599.5 Z"/></g>
<g><path style="opacity:1" fill="#171717" d="M -0.5,580.5 C 6.49138,586.124 12.8247,592.457 18.5,599.5C 17.1667,599.5 15.8333,599.5 14.5,599.5C 10.6052,593.36 5.6052,588.36 -0.5,584.5C -0.5,583.167 -0.5,581.833 -0.5,580.5 Z"/></g>
<g><path style="opacity:1" fill="#0c0c0c" d="M 472.5,599.5 C 468.167,599.5 463.833,599.5 459.5,599.5C 427.776,586.301 396.109,586.301 364.5,599.5C 359.833,599.5 355.167,599.5 350.5,599.5C 368.734,588.705 388.567,583.039 410,582.5C 432.537,582.506 453.37,588.172 472.5,599.5 Z"/></g>
<g><path style="opacity:0.004" fill="#f7f7f7" d="M -0.5,584.5 C 5.6052,588.36 10.6052,593.36 14.5,599.5C 11.5,599.5 8.5,599.5 5.5,599.5C 4.24269,596.573 2.24269,594.239 -0.5,592.5C -0.5,589.833 -0.5,587.167 -0.5,584.5 Z"/></g>
<g><path style="opacity:0.004" fill="#f4f4f4" d="M 459.5,599.5 C 451.833,599.5 444.167,599.5 436.5,599.5C 428.454,597.287 420.121,596.287 411.5,596.5C 403.2,596.212 395.2,597.212 387.5,599.5C 379.833,599.5 372.167,599.5 364.5,599.5C 396.109,586.301 427.776,586.301 459.5,599.5 Z"/></g>
<g><path style="opacity:0.004" fill="#f7f7f7" d="M -0.5,594.5 C 1.58689,595.585 2.92022,597.251 3.5,599.5C 2.16667,599.5 0.833333,599.5 -0.5,599.5C -0.5,597.833 -0.5,596.167 -0.5,594.5 Z"/></g>
<g><path style="opacity:1" fill="#282828" d="M -0.5,592.5 C 2.24269,594.239 4.24269,596.573 5.5,599.5C 4.83333,599.5 4.16667,599.5 3.5,599.5C 2.92022,597.251 1.58689,595.585 -0.5,594.5C -0.5,593.833 -0.5,593.167 -0.5,592.5 Z"/></g>
<g><path style="opacity:1" fill="#151515" d="M 436.5,599.5 C 420.167,599.5 403.833,599.5 387.5,599.5C 395.2,597.212 403.2,596.212 411.5,596.5C 420.121,596.287 428.454,597.287 436.5,599.5 Z"/></g>
</svg>
