<?xml version="1.0" standalone="no"?>
<!DOCTYPE svg PUBLIC "-//W3C//DTD SVG 20010904//EN"
 "http://www.w3.org/TR/2001/REC-SVG-20010904/DTD/svg10.dtd">
<svg version="1.0" xmlns="http://www.w3.org/2000/svg"
 width="440.000000pt" height="600.000000pt" viewBox="0 0 440.000000 600.000000"
 preserveAspectRatio="xMidYMid meet">

<g transform="translate(0.000000,600.000000) scale(0.100000,-0.100000)"
fill="#000000" stroke="none">
<path d="M0 5987 c0 -17 280 -60 755 -117 734 -88 1010 -146 1328 -282 l118
-50 94 42 c310 136 628 204 1348 290 474 56 757 100 757 117 0 18 -45 17 -252
-7 -95 -10 -306 -31 -468 -45 -712 -61 -1087 -135 -1399 -275 l-85 -38 -55 27
c-120 60 -344 130 -557 175 -199 42 -446 74 -856 111 -213 19 -445 42 -515 50
-162 19 -213 19 -213 2z"/>
<path d="M944 5984 c540 -42 887 -113 1178 -240 l76 -34 80 34 c302 130 647
200 1177 240 l170 13 -374 2 c-366 1 -376 0 -500 -25 -156 -32 -326 -83 -453
-136 l-97 -40 -113 46 c-135 54 -315 107 -462 135 -97 19 -141 21 -479 20
l-372 -2 169 -13z"/>
<path d="M2000 5961 c58 -21 127 -48 153 -60 l49 -21 71 31 c40 18 108 44 152
60 l80 27 -113 1 c-94 1 -119 -2 -152 -19 l-40 -20 -40 20 c-33 17 -58 20
-152 19 l-113 0 105 -38z"/>
<path d="M0 5926 c0 -8 8 -17 17 -20 74 -21 590 -126 868 -176 366 -66 503
-94 689 -141 211 -53 429 -130 566 -199 l58 -29 104 48 c271 127 548 201 1188
316 304 55 827 161 892 181 10 3 18 12 18 20 0 12 -7 14 -27 10 -127 -26 -497
-90 -668 -116 -824 -122 -1082 -182 -1406 -325 l-99 -43 -99 43 c-311 137
-600 206 -1277 305 -229 33 -488 77 -687 115 -150 29 -137 28 -137 11z"/>
<path d="M0 5866 c0 -9 16 -19 43 -26 23 -7 179 -50 347 -97 168 -47 442 -118
610 -159 594 -143 809 -211 1073 -337 l127 -60 128 60 c274 131 472 192 1172
362 113 27 342 88 510 134 168 47 324 90 348 97 26 7 42 17 42 26 0 10 -6 13
-17 10 -123 -37 -676 -166 -1038 -241 -503 -105 -778 -188 -1058 -317 l-87
-41 -90 42 c-272 126 -528 203 -1035 311 -402 85 -931 208 -1057 246 -12 3
-18 0 -18 -10z"/>
<path d="M0 5808 c0 -8 36 -24 83 -37 45 -13 217 -71 382 -128 165 -57 469
-156 675 -219 518 -160 791 -264 982 -374 38 -22 73 -40 78 -40 4 0 44 20 89
45 196 111 468 214 959 365 196 60 499 158 672 218 173 60 352 120 397 133 47
13 83 29 83 37 0 6 -4 12 -9 12 -11 0 -176 -50 -486 -147 -132 -41 -395 -117
-585 -169 -531 -147 -792 -237 -1022 -356 l-98 -50 -97 50 c-233 119 -502 213
-993 347 -173 47 -432 122 -575 167 -333 103 -516 158 -527 158 -4 0 -8 -6 -8
-12z"/>
<path d="M0 5756 c0 -8 12 -17 28 -21 56 -14 336 -122 613 -235 157 -65 438
-175 625 -245 450 -169 650 -257 843 -374 46 -28 87 -51 91 -51 4 0 45 23 91
51 189 114 414 214 867 383 172 65 384 147 470 182 392 162 734 294 762 294 5
0 10 7 10 15 0 8 -2 15 -4 15 -14 0 -342 -117 -596 -213 -168 -63 -432 -158
-586 -210 -486 -165 -691 -248 -905 -367 l-109 -61 -109 61 c-214 119 -406
197 -886 360 -165 56 -437 154 -605 217 -255 96 -582 213 -596 213 -2 0 -4 -6
-4 -14z"/>
<path d="M0 5706 c0 -7 49 -31 118 -56 157 -58 344 -142 673 -300 150 -73 368
-174 484 -225 453 -200 633 -290 823 -415 l103 -68 77 53 c172 118 358 213
807 412 143 63 386 176 540 250 325 157 494 232 658 293 67 25 117 49 117 57
0 25 -266 -79 -715 -280 -154 -69 -401 -174 -550 -235 -460 -187 -642 -273
-831 -392 -53 -33 -100 -60 -106 -60 -5 0 -35 17 -66 38 -170 115 -417 233
-867 414 -110 44 -355 149 -545 233 -487 216 -720 307 -720 281z"/>
<path d="M0 5648 c0 -7 60 -35 133 -62 176 -64 373 -161 717 -353 157 -88 417
-227 577 -311 332 -172 536 -291 671 -392 52 -39 98 -70 102 -70 5 0 40 23 77
52 161 122 358 238 748 438 132 68 368 195 525 283 384 214 688 359 823 392
15 4 27 14 27 22 0 20 -20 15 -168 -43 -123 -48 -1586 -772 -1732 -857 -47
-28 -133 -83 -192 -123 l-108 -74 -107 74 c-171 116 -284 178 -653 358 -190
93 -352 172 -360 177 -85 47 -687 349 -760 382 -99 43 -297 119 -311 119 -5 0
-9 -6 -9 -12z"/>
<path d="M0 5586 c0 -9 35 -26 98 -46 206 -67 458 -203 878 -473 115 -73 310
-194 434 -267 381 -226 535 -328 701 -466 l89 -74 97 80 c150 124 302 226 623
418 162 97 399 242 525 322 127 81 275 174 330 207 184 111 434 228 571 268
34 10 54 21 54 30 0 20 -6 19 -107 -16 -204 -72 -392 -169 -796 -410 -139 -83
-362 -212 -496 -286 -383 -212 -517 -296 -699 -435 -102 -79 -103 -79 -126
-61 -265 205 -353 261 -791 503 -132 74 -350 199 -485 280 -401 241 -587 336
-798 411 -96 33 -102 34 -102 15z"/>
<path d="M0 5520 c0 -14 14 -23 58 -35 263 -73 525 -222 982 -556 102 -75 293
-209 425 -299 330 -224 491 -346 623 -474 l112 -109 68 68 c146 148 289 259
651 504 139 95 337 233 439 309 473 346 705 477 985 557 43 12 57 21 57 35 0
18 -4 17 -72 -4 -261 -83 -421 -170 -898 -491 -173 -117 -409 -272 -525 -345
-317 -200 -457 -301 -623 -448 l-82 -74 -78 69 c-167 150 -300 246 -627 453
-115 73 -352 229 -525 345 -465 313 -662 421 -902 493 -65 19 -68 19 -68 2z"/>
<path d="M0 5437 c0 -21 6 -25 46 -31 76 -10 249 -72 362 -131 188 -95 354
-213 677 -481 105 -86 284 -228 398 -316 355 -272 527 -425 659 -586 l60 -73
30 43 c47 66 301 314 413 404 55 44 190 149 300 234 110 85 279 219 375 299
314 259 500 391 689 486 103 51 274 112 345 121 40 6 46 10 46 31 0 18 -4 23
-17 19 -10 -3 -47 -12 -82 -21 -238 -60 -507 -219 -939 -553 -249 -192 -269
-207 -492 -367 -248 -178 -432 -329 -558 -458 l-112 -116 -103 106 c-159 164
-276 259 -657 533 -102 73 -252 186 -335 250 -301 233 -424 322 -565 407 -160
95 -319 167 -441 198 -35 9 -72 18 -81 21 -14 4 -18 -1 -18 -19z"/>
<path d="M0 5347 c0 -22 6 -25 78 -37 321 -52 586 -221 1097 -700 66 -62 219
-199 340 -304 354 -306 544 -508 646 -687 19 -32 36 -58 39 -58 3 0 20 26 39
58 102 179 287 376 651 693 129 112 303 267 385 344 466 432 711 589 1018 648
100 19 107 22 107 44 0 22 -3 24 -37 18 -183 -33 -363 -107 -542 -223 -162
-105 -287 -206 -626 -503 -66 -58 -192 -163 -280 -235 -345 -279 -522 -447
-641 -610 -38 -51 -71 -94 -74 -94 -3 0 -36 42 -73 92 -125 170 -260 299 -617
592 -129 106 -296 246 -370 311 -531 466 -770 611 -1102 668 -35 6 -38 5 -38
-17z"/>
<path d="M0 5240 c0 -30 1 -30 53 -30 28 0 93 -9 142 -19 205 -42 392 -144
615 -337 128 -111 1010 -1008 1096 -1115 137 -171 243 -367 275 -511 13 -57
29 -77 29 -37 0 35 49 169 95 262 54 106 102 178 205 305 101 125 1039 1068
1150 1156 228 181 442 276 657 293 l83 6 0 28 c0 16 -3 29 -7 29 -50 0 -218
-36 -288 -61 -247 -87 -430 -219 -794 -573 -119 -116 -305 -292 -412 -390
-394 -364 -580 -583 -670 -789 -13 -31 -26 -57 -29 -57 -3 0 -16 26 -29 57
-36 81 -121 214 -206 318 -98 120 -221 245 -455 461 -107 98 -289 271 -405
384 -291 285 -422 392 -609 498 -136 78 -283 126 -443 146 l-53 7 0 -31z"/>
<path d="M0 5123 l0 -28 98 -2 c189 -3 382 -72 566 -204 125 -89 313 -278 522
-524 98 -115 224 -259 279 -320 308 -336 437 -506 525 -690 136 -287 140 -562
11 -830 -103 -213 -270 -399 -636 -711 -115 -98 -266 -230 -335 -293 -281
-258 -454 -393 -625 -486 -93 -51 -265 -111 -347 -120 -56 -7 -58 -8 -58 -36
0 -27 3 -29 38 -29 86 1 246 47 367 108 174 86 343 217 610 472 99 95 277 261
395 369 249 228 343 319 426 417 217 253 314 480 315 734 1 219 -60 403 -209
626 -88 130 -193 252 -428 499 -116 121 -275 292 -355 380 -252 279 -402 418
-562 523 -165 106 -360 172 -513 172 l-84 0 0 -27z"/>
<path d="M4170 5136 c-94 -21 -161 -46 -262 -99 -192 -99 -378 -260 -659 -572
-79 -88 -240 -261 -358 -385 -329 -345 -451 -502 -545 -700 -163 -344 -124
-699 110 -1027 68 -94 218 -267 279 -321 143 -127 391 -356 585 -541 330 -315
487 -440 669 -530 126 -63 286 -110 374 -111 34 0 37 2 37 28 0 27 -2 29 -75
41 -279 47 -508 192 -965 610 -70 64 -213 190 -319 280 -392 332 -539 497
-647 725 -114 241 -118 503 -13 759 81 196 214 379 513 707 73 80 215 242 316
360 219 257 403 442 525 529 186 132 378 201 567 204 l98 2 0 28 0 27 -87 -1
c-49 -1 -113 -7 -143 -13z"/>
<path d="M27 5034 c-22 -4 -27 -11 -27 -33 l0 -27 133 -1 c154 0 242 -19 375
-83 225 -107 381 -259 698 -680 77 -102 209 -270 293 -375 265 -330 392 -543
448 -751 21 -81 26 -122 26 -224 1 -233 -70 -409 -253 -625 -103 -121 -223
-225 -510 -441 -102 -77 -270 -209 -375 -293 -328 -264 -551 -397 -744 -444
l-91 -22 0 -33 0 -34 42 7 c75 13 200 56 290 100 172 85 315 189 603 435 94
81 262 220 375 311 356 285 531 472 630 674 136 276 130 546 -20 847 -83 166
-183 304 -430 593 -80 94 -220 262 -310 375 -190 237 -368 425 -490 517 -104
78 -258 156 -364 183 -78 20 -245 33 -299 24z"/>
<path d="M4165 5029 c-147 -21 -313 -95 -455 -202 -121 -92 -299 -280 -490
-517 -90 -113 -230 -281 -310 -375 -247 -289 -347 -427 -430 -593 -150 -301
-156 -574 -21 -847 101 -203 275 -389 631 -675 113 -90 282 -230 375 -310 281
-240 420 -342 582 -425 90 -46 234 -97 311 -110 l42 -7 0 34 0 33 -91 22
c-193 47 -416 180 -744 444 -104 84 -273 216 -375 293 -102 76 -223 171 -270
210 -499 413 -619 831 -376 1314 66 131 184 302 357 517 84 105 216 273 293
375 223 296 322 410 452 519 212 176 387 245 627 245 l127 0 0 27 c0 22 -6 28
-31 33 -41 8 -129 6 -204 -5z"/>
<path d="M95 4914 c-98 -14 -95 -12 -95 -51 0 -30 3 -34 18 -28 9 5 74 10 144
13 96 3 145 0 205 -13 161 -35 350 -149 483 -291 99 -107 169 -199 321 -426
78 -117 186 -274 240 -349 208 -291 305 -451 373 -617 95 -235 92 -489 -8
-692 -109 -220 -269 -373 -665 -637 -113 -75 -289 -195 -391 -267 -102 -73
-222 -155 -267 -184 -111 -70 -281 -153 -376 -182 -76 -23 -77 -24 -77 -57 0
-39 0 -39 128 3 173 57 352 166 682 415 113 85 259 193 325 239 407 284 588
460 695 675 62 125 83 217 82 365 0 283 -104 506 -449 961 -77 102 -191 257
-253 345 -180 254 -258 352 -370 464 -156 157 -303 249 -466 290 -71 18 -224
32 -279 24z"/>
<path d="M4117 4909 c-138 -19 -275 -77 -408 -175 -149 -110 -272 -251 -506
-579 -82 -115 -206 -286 -277 -379 -172 -227 -257 -357 -328 -502 -162 -333
-152 -634 31 -912 114 -172 253 -299 591 -540 113 -80 287 -209 388 -285 354
-267 561 -384 765 -431 25 -6 27 -4 27 27 0 33 -1 34 -77 57 -164 50 -396 184
-693 400 -58 42 -205 143 -327 224 -350 233 -500 363 -615 534 -98 145 -140
283 -140 457 0 271 98 485 452 980 59 83 164 236 233 341 288 433 475 608 739
694 105 34 323 42 406 16 20 -7 22 -4 22 27 0 28 -5 36 -22 40 -48 12 -196 15
-261 6z"/>
<path d="M53 4777 c-52 -10 -53 -11 -53 -45 0 -32 2 -34 28 -28 148 31 293 32
407 2 87 -23 210 -87 290 -150 144 -114 257 -265 465 -621 68 -115 146 -246
175 -290 285 -445 377 -681 362 -933 -9 -153 -56 -281 -153 -412 -117 -160
-279 -283 -664 -506 -74 -43 -220 -131 -325 -197 -211 -132 -406 -233 -514
-268 -69 -22 -71 -24 -71 -56 0 -18 4 -33 8 -33 17 0 149 48 214 78 96 44 237
128 441 264 98 65 244 160 325 210 457 283 628 437 733 661 54 115 72 214 66
356 -10 259 -76 409 -394 894 -92 141 -205 316 -251 389 -130 207 -209 314
-312 418 -197 200 -377 281 -614 279 -61 -1 -135 -6 -163 -12z"/>
<path d="M3990 4769 c-226 -59 -407 -203 -607 -484 -27 -38 -103 -155 -168
-260 -65 -104 -171 -269 -235 -365 -282 -424 -357 -596 -367 -845 -5 -112 -2
-143 16 -215 51 -201 167 -368 370 -529 98 -78 202 -148 411 -278 80 -49 233
-148 340 -220 108 -71 241 -155 297 -187 102 -57 261 -127 321 -140 31 -7 32
-7 32 26 0 33 -2 35 -61 52 -95 29 -318 144 -504 261 -93 59 -255 157 -360
218 -308 179 -437 270 -557 390 -156 158 -234 323 -245 519 -15 248 62 451
344 906 76 122 183 299 238 393 201 343 335 501 516 611 161 97 346 129 536
93 43 -8 81 -15 86 -15 4 0 7 15 7 34 l0 33 -69 12 c-106 17 -254 13 -341 -10z"/>
<path d="M175 4663 c-16 -2 -63 -10 -102 -19 l-73 -15 0 -36 c0 -27 3 -34 15
-29 63 24 187 38 299 34 103 -4 133 -9 202 -35 107 -40 191 -95 279 -182 125
-124 224 -281 398 -626 41 -82 110 -215 154 -295 194 -357 255 -532 255 -735
0 -293 -145 -513 -470 -715 -44 -27 -174 -97 -289 -156 -114 -59 -290 -151
-390 -205 -198 -108 -259 -137 -373 -179 -73 -27 -75 -29 -78 -64 l-3 -36 79
29 c110 41 254 114 472 241 102 59 261 149 355 200 312 171 434 255 555 387
113 123 172 243 198 402 39 238 -35 469 -295 916 -61 105 -152 266 -203 360
-171 312 -255 434 -387 555 -171 157 -384 230 -598 203z"/>
<path d="M4005 4656 c-145 -28 -266 -92 -387 -205 -133 -125 -205 -229 -400
-586 -58 -104 -144 -257 -192 -340 -274 -467 -345 -732 -265 -991 82 -265 265
-439 724 -689 99 -54 263 -146 365 -205 216 -125 375 -207 478 -244 l73 -26
-3 37 c-3 34 -6 37 -55 54 -87 29 -209 87 -391 186 -95 51 -241 127 -325 169
-409 205 -594 337 -709 507 -84 124 -120 245 -120 402 0 201 65 388 257 740
50 94 140 263 198 376 158 309 221 406 350 537 84 86 188 154 289 189 98 35
278 43 397 19 44 -9 88 -19 96 -22 12 -5 15 2 15 29 l0 35 -71 17 c-100 22
-240 27 -324 11z"/>
<path d="M108 4520 c-48 -10 -92 -21 -97 -25 -10 -6 -16 -65 -7 -65 3 0 44 10
93 22 105 25 279 30 363 9 30 -7 91 -30 135 -51 201 -97 330 -263 495 -640 40
-91 99 -223 132 -295 137 -297 161 -353 193 -449 38 -113 65 -251 65 -333 0
-82 -27 -200 -64 -278 -105 -222 -275 -348 -735 -545 -79 -34 -223 -99 -321
-145 -97 -46 -218 -98 -268 -117 -90 -32 -92 -34 -92 -65 0 -18 2 -33 5 -33
22 0 218 85 350 152 88 44 268 132 399 194 271 129 392 197 501 286 285 229
356 543 210 933 -21 55 -94 215 -164 355 -69 140 -158 323 -196 405 -167 358
-312 539 -511 636 -144 70 -309 87 -486 49z"/>
<path d="M3950 4525 c-85 -19 -210 -82 -286 -144 -135 -110 -236 -265 -408
-627 -62 -131 -152 -315 -199 -409 -143 -288 -185 -416 -194 -596 -9 -190 39
-342 156 -485 110 -135 265 -236 627 -408 131 -62 307 -148 389 -190 125 -63
338 -156 359 -156 3 0 6 15 6 33 0 31 -2 33 -88 64 -49 18 -170 71 -270 118
-100 46 -246 112 -325 146 -464 200 -628 321 -733 544 -113 239 -78 478 138
939 44 94 118 259 165 366 46 107 107 236 135 286 68 125 168 255 241 315 70
57 195 120 277 140 84 21 258 16 363 -9 49 -12 91 -22 93 -22 3 0 4 14 2 32
-3 31 -6 33 -73 51 -95 25 -288 32 -375 12z"/>
<path d="M270 4412 c-64 -3 -158 -19 -218 -37 -47 -14 -52 -18 -52 -45 0 -17
3 -30 8 -30 4 0 41 9 82 21 42 11 125 22 190 26 97 5 128 2 199 -15 157 -40
285 -135 386 -287 67 -100 117 -206 184 -390 29 -77 90 -237 136 -355 134
-345 154 -418 162 -580 6 -137 -9 -218 -63 -327 -92 -185 -271 -311 -629 -442
-77 -29 -237 -90 -355 -136 -118 -46 -234 -89 -257 -96 -40 -11 -43 -15 -43
-46 0 -18 2 -33 5 -33 10 0 241 93 360 145 72 31 207 88 301 125 292 116 438
198 547 306 142 140 200 283 199 489 -1 162 -48 319 -196 657 -30 70 -86 203
-122 295 -121 304 -203 448 -321 565 -140 138 -308 202 -503 190z"/>
<path d="M4040 4413 c-183 -16 -339 -96 -460 -238 -90 -105 -171 -257 -275
-520 -37 -94 -98 -240 -135 -325 -140 -323 -182 -468 -183 -630 0 -122 15
-196 63 -295 100 -209 272 -332 695 -500 94 -37 226 -92 295 -122 128 -56 297
-125 338 -137 20 -7 22 -4 22 28 0 26 -4 36 -15 36 -9 0 -129 44 -268 98 -138
54 -310 120 -382 146 -175 65 -282 115 -380 181 -247 164 -344 401 -290 706
20 113 47 195 148 454 47 121 109 283 137 360 159 431 319 618 585 681 90 21
267 14 375 -15 41 -12 78 -21 83 -21 4 0 7 13 7 30 0 27 -5 31 -52 45 -89 26
-235 44 -308 38z"/>
<path d="M225 4283 c-16 -2 -74 -13 -128 -25 l-97 -21 0 -33 0 -32 73 19 c112
28 243 40 328 29 108 -13 174 -38 259 -95 139 -94 233 -244 315 -502 24 -76
80 -253 125 -393 99 -309 122 -412 123 -545 1 -162 -39 -281 -133 -394 -100
-121 -269 -209 -575 -301 -94 -28 -248 -76 -342 -107 -170 -56 -173 -57 -173
-85 0 -15 5 -28 10 -28 6 0 97 31 203 69 105 38 269 95 362 126 376 124 560
248 652 440 101 212 83 395 -85 865 -44 124 -104 292 -132 374 -84 243 -150
363 -262 474 -129 129 -322 190 -523 165z"/>
<path d="M3941 4275 c-135 -31 -255 -105 -339 -209 -100 -124 -153 -238 -266
-571 -41 -121 -95 -278 -121 -350 -121 -338 -134 -544 -45 -734 97 -206 263
-314 720 -469 129 -44 293 -101 363 -126 71 -25 133 -46 138 -46 5 0 9 13 9
28 0 28 -3 29 -172 85 -95 31 -249 79 -342 107 -255 77 -370 128 -487 216
-169 128 -247 328 -219 561 14 119 33 192 120 463 38 118 91 285 118 371 86
272 175 419 310 516 108 77 203 105 352 105 85 0 142 -7 218 -25 l102 -24 0
32 0 32 -97 22 c-126 29 -277 36 -362 16z"/>
<path d="M116 4140 c-115 -24 -116 -25 -116 -56 0 -25 2 -26 32 -21 18 4 69
13 113 21 324 61 555 -43 685 -307 58 -117 102 -274 237 -832 30 -125 41 -300
24 -387 -32 -164 -137 -298 -298 -381 -104 -53 -204 -86 -408 -133 -82 -19
-203 -49 -267 -67 -115 -31 -118 -32 -118 -59 0 -16 3 -28 8 -28 4 0 52 14
107 31 55 16 199 57 320 90 253 70 372 116 473 183 172 114 252 269 252 486 0
121 -22 237 -84 446 -24 82 -67 235 -96 339 -28 105 -68 231 -89 281 -90 218
-226 351 -407 398 -84 22 -254 20 -368 -4z"/>
<path d="M3916 4145 c-175 -45 -314 -178 -403 -388 -19 -45 -66 -192 -104
-327 -37 -135 -82 -292 -99 -350 -89 -305 -94 -514 -16 -668 59 -116 161 -210
300 -277 90 -43 184 -74 378 -126 84 -22 212 -58 283 -80 72 -21 133 -39 138
-39 4 0 7 12 7 28 0 27 -3 28 -120 60 -66 18 -180 46 -253 62 -458 104 -652
237 -712 491 -33 141 -17 293 64 599 27 102 59 230 71 285 56 252 134 430 235
530 157 157 338 189 683 119 32 -7 33 -6 30 22 -3 27 -8 30 -78 47 -103 25
-324 32 -404 12z"/>
<path d="M160 4029 c-152 -25 -160 -28 -160 -60 0 -24 4 -29 18 -25 9 3 60 12
112 21 326 52 533 -37 649 -278 47 -96 69 -181 110 -412 17 -93 42 -224 56
-290 69 -327 33 -531 -118 -671 -105 -97 -236 -148 -502 -194 -66 -11 -166
-30 -223 -42 -99 -20 -102 -21 -102 -48 l0 -27 178 39 c457 100 528 122 650
208 102 71 168 170 197 292 29 122 17 272 -41 516 -13 57 -40 179 -59 270 -46
217 -70 301 -110 388 -77 168 -196 271 -357 309 -69 16 -211 18 -298 4z"/>
<path d="M3936 4024 c-148 -36 -264 -134 -341 -288 -47 -96 -71 -181 -145
-521 -18 -82 -44 -199 -57 -260 -85 -386 0 -626 269 -759 106 -52 168 -70 428
-125 102 -22 213 -46 248 -54 l62 -15 0 28 c0 33 6 31 -274 81 -232 41 -316
63 -413 110 -150 72 -243 184 -279 335 -24 102 -14 258 29 474 20 96 48 243
63 325 44 248 93 369 189 474 106 113 244 160 442 147 90 -5 131 -11 221 -31
19 -5 22 -1 22 24 0 28 -3 30 -52 40 -173 35 -311 40 -412 15z"/>
<path d="M160 3913 c-170 -26 -160 -23 -160 -50 0 -25 2 -25 48 -19 113 15
292 19 354 6 123 -24 224 -91 288 -190 61 -96 89 -197 115 -423 9 -73 24 -196
35 -274 44 -316 16 -468 -110 -594 -68 -69 -134 -104 -254 -134 -75 -19 -401
-65 -460 -65 -11 0 -16 -9 -16 -31 0 -24 4 -29 18 -25 9 2 67 12 127 21 339
51 392 63 501 116 142 67 228 171 260 317 28 127 17 241 -81 828 -50 299 -182
467 -403 513 -50 10 -207 13 -262 4z"/>
<path d="M3963 3906 c-140 -32 -245 -119 -311 -257 -46 -95 -63 -157 -87 -309
-9 -58 -30 -188 -47 -290 -39 -240 -46 -382 -24 -482 31 -140 116 -248 247
-314 89 -44 182 -69 354 -94 151 -22 247 -38 283 -45 19 -5 22 -1 22 25 0 19
-5 30 -14 30 -52 0 -377 44 -449 61 -164 39 -289 124 -348 240 -49 97 -62 271
-34 457 8 53 23 175 35 270 23 197 40 285 70 364 58 155 178 257 338 288 62
13 241 9 355 -6 45 -6 47 -6 47 19 0 23 -5 26 -62 37 -103 19 -304 22 -375 6z"/>
<path d="M55 3791 c-46 -6 -50 -8 -53 -34 -3 -24 0 -28 15 -24 44 13 253 18
323 7 219 -32 336 -164 369 -415 6 -44 18 -195 27 -335 18 -285 13 -361 -32
-459 -75 -164 -205 -230 -494 -251 -74 -5 -152 -10 -172 -10 -34 0 -38 -3 -38
-26 l0 -26 82 7 c373 29 492 63 597 166 115 113 143 269 107 602 -8 73 -20
188 -26 256 -30 326 -128 480 -343 537 -53 14 -262 17 -362 5z"/>
<path d="M3987 3789 c-113 -27 -224 -114 -272 -214 -43 -91 -63 -192 -85 -427
-11 -123 -23 -230 -26 -240 -9 -32 -5 -264 6 -312 27 -122 106 -226 211 -278
98 -50 209 -71 497 -93 l82 -7 0 26 c0 24 -3 26 -42 26 -98 1 -301 20 -363 35
-250 58 -362 232 -341 535 4 52 13 187 21 300 16 223 38 333 81 408 87 148
247 213 489 198 55 -4 113 -9 128 -12 26 -6 28 -4 25 23 -3 26 -7 28 -58 35
-80 9 -309 7 -353 -3z"/>
<path d="M13 3683 c-7 -2 -13 -14 -13 -26 0 -21 3 -22 109 -19 303 10 459 -79
511 -290 16 -62 24 -554 11 -638 -23 -149 -75 -233 -178 -287 -80 -42 -154
-56 -315 -57 l-138 -1 0 -24 0 -24 158 6 c169 5 238 17 317 52 110 49 184 152
207 287 14 78 -4 634 -23 713 -17 73 -52 144 -93 192 -43 49 -137 98 -215 113
-54 10 -315 13 -338 3z"/>
<path d="M4040 3679 c-70 -14 -165 -65 -206 -112 -41 -48 -76 -119 -93 -192
-19 -79 -37 -635 -23 -713 15 -87 63 -183 115 -227 93 -81 177 -104 405 -112
l162 -6 0 24 0 24 -148 2 c-81 0 -169 6 -195 12 -168 39 -262 146 -288 329
-16 113 -6 578 14 647 60 213 208 295 512 283 102 -3 105 -3 105 18 0 14 -8
24 -22 28 -34 9 -286 5 -338 -5z"/>
<path d="M0 3566 c0 -24 2 -24 118 -31 275 -16 377 -78 418 -252 14 -60 15
-94 4 -293 -19 -364 -47 -438 -195 -507 -57 -27 -67 -28 -202 -27 -143 0 -143
0 -143 -23 0 -23 1 -23 138 -23 150 0 215 12 286 54 133 78 166 196 166 591 0
230 -9 293 -53 368 -69 118 -205 166 -464 167 -70 0 -73 -1 -73 -24z"/>
<path d="M4150 3579 c-182 -19 -285 -99 -326 -251 -17 -64 -19 -435 -4 -570
18 -152 64 -240 157 -295 67 -39 142 -53 291 -53 131 0 132 0 132 23 0 22 -1
22 -142 22 -137 0 -146 1 -206 29 -120 56 -165 139 -183 339 -16 185 -16 434
-1 487 18 62 73 134 125 165 55 32 159 53 300 61 105 6 107 6 107 30 0 24 -1
24 -87 23 -49 -1 -122 -5 -163 -10z"/>
<path d="M2 3469 c3 -23 9 -25 121 -37 142 -15 216 -41 268 -93 42 -42 69
-114 69 -185 0 -90 -43 -400 -62 -452 -45 -121 -139 -170 -305 -158 -87 6 -93
5 -93 -13 0 -27 18 -31 139 -31 133 0 188 17 247 75 62 63 82 126 99 324 19
216 19 337 0 392 -45 127 -145 178 -383 194 l-104 7 4 -23z"/>
<path d="M4230 3480 c-160 -15 -252 -63 -299 -155 -34 -64 -38 -176 -17 -416
18 -208 37 -270 100 -334 59 -58 114 -75 247 -75 121 0 139 4 139 31 0 18 -6
19 -93 13 -166 -12 -260 37 -305 158 -19 52 -62 362 -62 452 0 71 27 143 69
185 52 52 126 78 268 93 110 12 118 14 121 36 3 20 0 22 -45 21 -26 -1 -82 -5
-123 -9z"/>
<path d="M0 3377 c0 -23 5 -26 73 -37 207 -34 270 -76 291 -193 7 -36 -30
-284 -54 -366 -31 -109 -130 -164 -257 -143 -51 9 -53 8 -53 -13 0 -29 22 -35
124 -35 126 0 199 50 234 160 21 66 54 332 50 405 -7 143 -88 204 -303 230
-27 3 -62 8 -77 11 -25 5 -28 2 -28 -19z"/>
<path d="M4264 3380 c-132 -21 -203 -54 -243 -114 -36 -54 -39 -148 -12 -336
25 -170 34 -202 69 -254 40 -59 99 -86 187 -86 105 0 135 8 135 35 0 21 -2 22
-52 13 -114 -18 -201 19 -241 104 -31 65 -82 354 -72 407 11 57 46 111 90 136
36 21 113 41 233 60 36 6 42 10 42 31 0 13 -6 24 -12 23 -7 -1 -63 -9 -124
-19z"/>
<path d="M2 3278 c3 -19 15 -25 81 -40 182 -41 209 -90 163 -287 -29 -125 -42
-154 -81 -191 -23 -22 -36 -25 -96 -25 -64 0 -69 -2 -69 -21 0 -17 8 -23 38
-28 62 -10 94 -7 136 14 63 31 83 70 117 229 33 160 35 188 15 235 -28 66 -74
94 -201 120 -101 21 -107 21 -103 -6z"/>
<path d="M4271 3279 c-46 -10 -99 -29 -118 -41 -40 -28 -73 -91 -73 -141 0
-59 58 -306 80 -342 36 -59 111 -84 203 -69 29 5 37 11 37 28 0 19 -5 21 -69
21 -60 0 -73 3 -96 25 -39 36 -52 67 -81 187 -47 199 -19 250 163 291 66 15
78 21 81 40 4 27 -11 28 -127 1z"/>
<path d="M0 3186 c0 -22 7 -27 57 -42 63 -18 113 -60 113 -94 0 -27 -27 -124
-47 -167 -17 -36 -61 -58 -98 -49 -22 6 -25 3 -25 -18 0 -27 16 -36 64 -36 38
0 80 29 101 69 19 37 55 182 55 221 0 47 -51 94 -126 115 -32 9 -67 19 -76 21
-14 4 -18 -1 -18 -20z"/>
<path d="M4325 3191 c-75 -22 -98 -34 -124 -67 -26 -33 -26 -65 0 -167 34
-134 68 -177 139 -177 43 0 60 10 60 35 0 18 -4 21 -25 17 -38 -7 -82 16 -98
51 -26 56 -50 155 -43 181 9 38 40 61 106 79 53 15 60 20 60 42 0 29 3 29 -75
6z"/>
<path d="M0 3086 c0 -16 7 -27 20 -31 11 -3 26 -13 34 -21 21 -21 -2 -88 -32
-92 -26 -4 -31 -49 -6 -59 34 -13 61 14 84 81 31 93 21 110 -77 140 -20 6 -23
4 -23 -18z"/>
<path d="M4342 3093 c-59 -21 -68 -44 -47 -117 19 -66 46 -99 78 -94 16 2 23
11 25 32 2 15 -1 26 -6 22 -25 -15 -68 66 -51 96 5 9 20 19 34 22 18 5 25 13
25 31 0 29 0 29 -58 8z"/>
<path d="M2190 2801 c0 -33 -41 -154 -81 -238 -48 -101 -135 -232 -229 -343
-111 -131 -1011 -1020 -1135 -1120 -233 -189 -450 -288 -666 -306 l-79 -7 0
-30 0 -30 88 6 c180 13 364 78 534 190 176 114 320 248 623 577 99 107 275
292 391 411 297 305 442 492 528 681 17 38 33 68 36 67 3 0 29 -48 58 -107 97
-197 212 -340 583 -723 135 -140 301 -315 370 -389 68 -74 171 -182 229 -239
306 -302 573 -445 870 -467 l90 -7 0 30 0 30 -79 7 c-217 18 -434 118 -671
309 -163 132 -1099 1069 -1192 1194 -129 172 -212 334 -240 466 -12 55 -28 77
-28 38z"/>
<path d="M2144 2483 c-98 -167 -216 -315 -484 -603 -89 -96 -233 -256 -318
-355 -413 -475 -580 -624 -835 -745 -136 -65 -243 -92 -389 -98 -114 -4 -118
-5 -118 -27 0 -20 6 -23 63 -29 211 -23 501 73 717 235 182 137 308 268 588
609 97 118 260 312 363 430 248 286 350 415 433 554 l34 56 85 -128 c89 -133
209 -281 416 -517 68 -77 191 -223 274 -325 376 -461 541 -624 769 -761 180
-108 425 -171 596 -153 57 6 62 8 62 30 0 24 -2 24 -90 24 -311 0 -628 168
-945 502 -54 57 -182 200 -285 318 -103 118 -258 292 -345 385 -262 282 -379
429 -478 596 -29 49 -54 89 -57 89 -3 0 -28 -39 -56 -87z"/>
<path d="M2173 2411 c-38 -66 -197 -275 -378 -496 -95 -115 -243 -302 -330
-415 -301 -391 -490 -593 -673 -718 -223 -153 -466 -225 -699 -208 -89 7 -93
6 -93 -13 0 -29 47 -36 220 -35 188 2 294 28 465 114 146 73 226 132 368 270
159 153 258 274 484 590 108 151 142 196 424 567 75 98 157 211 184 251 26 39
51 72 54 72 3 0 37 -45 75 -101 38 -55 150 -204 248 -332 98 -128 227 -299
286 -381 313 -435 446 -594 634 -756 241 -210 529 -314 813 -296 120 7 145 13
145 35 0 14 -19 16 -157 17 -136 1 -172 5 -256 27 -208 55 -396 170 -595 361
-140 135 -230 241 -457 536 -87 113 -235 300 -330 415 -193 235 -318 400 -367
480 -18 30 -35 55 -38 55 -3 0 -15 -18 -27 -39z"/>
<path d="M2140 2257 c-30 -45 -121 -172 -201 -282 -80 -111 -219 -309 -309
-440 -89 -132 -199 -290 -244 -350 -351 -472 -666 -681 -1071 -711 -81 -6
-231 6 -292 22 -18 5 -23 2 -23 -14 0 -17 10 -23 52 -31 279 -57 560 -16 796
116 210 118 421 329 633 633 37 52 134 201 216 330 186 293 491 745 503 745
12 0 296 -420 512 -759 312 -488 468 -680 693 -853 267 -205 605 -281 943
-212 42 8 52 14 52 31 0 17 -4 19 -26 14 -107 -27 -252 -31 -387 -11 -354 53
-659 274 -982 710 -31 43 -129 183 -217 313 -88 129 -190 276 -226 326 -191
263 -322 447 -338 475 -10 17 -21 31 -24 31 -3 -1 -30 -38 -60 -83z"/>
<path d="M2063 2018 c-71 -112 -196 -315 -278 -453 -320 -541 -501 -773 -740
-953 -99 -74 -290 -167 -410 -199 -91 -24 -117 -27 -280 -27 -148 0 -195 4
-268 21 -81 19 -87 20 -87 3 0 -13 20 -21 98 -39 454 -101 850 16 1177 348
197 200 324 386 575 842 125 227 342 599 350 599 8 -1 200 -329 356 -610 274
-494 422 -702 644 -904 247 -224 577 -336 900 -306 152 14 300 49 300 70 0 16
-6 15 -82 -2 -46 -10 -144 -21 -218 -25 -473 -21 -852 213 -1220 753 -38 56
-144 227 -236 380 -183 308 -433 704 -444 704 -4 0 -65 -91 -137 -202z"/>
<path d="M2117 1943 c-41 -76 -123 -232 -182 -348 -211 -409 -343 -626 -493
-806 -216 -258 -461 -412 -754 -475 -62 -14 -124 -18 -243 -17 -157 1 -206 8
-424 60 -17 4 -22 2 -19 -7 6 -18 61 -36 208 -67 107 -23 149 -27 295 -27 181
1 248 11 395 59 185 61 333 158 500 325 230 231 331 397 690 1138 57 116 106
212 110 212 6 0 97 -182 261 -525 357 -746 696 -1085 1191 -1191 100 -22 367
-25 468 -6 158 31 280 65 280 80 0 10 -7 13 -22 9 -202 -49 -270 -59 -413 -60
-228 -3 -373 30 -565 129 -167 85 -303 197 -440 361 -159 191 -254 347 -497
813 -194 371 -253 480 -264 480 -4 0 -41 -62 -82 -137z"/>
<path d="M2080 1623 c-186 -421 -306 -644 -451 -836 -226 -301 -491 -481 -809
-548 -135 -28 -367 -31 -510 -5 -88 15 -252 56 -293 71 -12 5 -17 2 -17 -8 0
-16 29 -26 166 -61 146 -37 227 -48 395 -53 260 -8 429 26 631 128 382 192
646 549 938 1272 36 86 67 157 70 157 3 0 30 -60 59 -132 260 -645 483 -985
786 -1201 91 -65 268 -150 377 -181 242 -70 576 -60 873 25 39 11 78 23 88 25
9 3 17 11 17 19 0 9 -26 6 -105 -15 -179 -49 -286 -63 -455 -63 -122 0 -177 5
-259 22 -390 83 -693 325 -956 766 -81 134 -201 379 -326 663 -51 116 -96 212
-99 212 -3 0 -57 -116 -120 -257z"/>
<path d="M2136 1423 c-210 -530 -443 -866 -738 -1063 -316 -212 -671 -267
-1123 -175 -66 14 -155 36 -197 49 -60 18 -78 21 -78 10 0 -20 163 -66 375
-106 100 -19 155 -22 330 -23 184 0 223 3 315 23 273 61 479 180 686 394 166
173 330 445 450 750 22 54 41 98 44 98 3 0 22 -44 44 -98 66 -168 181 -392
267 -522 102 -153 290 -348 414 -429 146 -96 298 -158 475 -197 118 -26 462
-26 600 0 211 39 400 90 400 108 0 12 -2 11 -163 -30 -194 -51 -313 -66 -497
-66 -182 0 -292 15 -425 60 -240 80 -455 231 -626 440 -143 175 -303 467 -426
776 -32 81 -60 148 -63 148 -3 0 -31 -66 -64 -147z"/>
<path d="M2161 1103 c-69 -165 -191 -373 -296 -504 -209 -259 -464 -419 -786
-491 -92 -20 -129 -23 -324 -23 -245 1 -357 15 -614 81 -127 32 -157 36 -135
15 24 -24 397 -102 582 -122 155 -16 428 -7 550 20 448 96 793 379 1019 836
21 41 40 75 43 75 3 0 27 -44 55 -98 226 -444 565 -718 1007 -813 122 -27 395
-36 550 -20 185 20 558 98 582 122 22 21 -8 17 -135 -15 -223 -57 -364 -78
-569 -83 -278 -7 -457 26 -666 126 -246 117 -436 291 -605 551 -51 79 -142
251 -180 343 -17 42 -35 77 -39 77 -4 0 -22 -35 -39 -77z"/>
<path d="M2147 740 c-193 -321 -473 -547 -803 -649 -171 -53 -266 -65 -494
-66 -115 0 -247 6 -300 14 -159 22 -425 75 -532 107 -12 4 -18 0 -18 -10 0 -9
10 -18 22 -21 163 -37 352 -74 503 -96 60 -9 183 -14 365 -14 303 1 363 9 561
75 268 89 532 287 694 518 28 39 52 71 55 72 3 0 13 -13 23 -29 33 -57 145
-187 224 -261 185 -174 418 -293 688 -351 101 -22 133 -24 385 -24 301 0 354
6 675 71 207 42 205 42 205 60 0 10 -6 13 -17 10 -108 -32 -374 -85 -533 -107
-142 -20 -482 -18 -600 4 -119 22 -268 67 -366 112 -242 110 -476 328 -631
585 -27 44 -50 79 -53 79 -3 0 -26 -35 -53 -79z"/>
<path d="M2135 469 c-175 -207 -440 -368 -729 -444 l-91 -23 75 -1 c62 -1 95
6 191 38 210 71 382 172 537 317 l82 76 83 -77 c152 -142 329 -246 536 -316
96 -32 129 -39 191 -38 l75 1 -91 23 c-288 75 -554 237 -729 444 -33 39 -62
71 -65 71 -3 0 -32 -32 -65 -71z"/>
<path d="M2135 289 c-126 -105 -283 -194 -450 -255 l-90 -33 52 -1 c93 0 288
84 461 200 l93 62 87 -60 c165 -113 372 -202 465 -202 l52 1 -90 33 c-165 60
-302 137 -438 245 -42 34 -78 61 -79 60 -2 0 -30 -23 -63 -50z"/>
<path d="M2155 170 c-53 -37 -186 -105 -278 -141 l-72 -28 47 -1 c54 0 112 21
250 91 l98 49 98 -49 c140 -71 196 -91 250 -91 l47 1 -61 23 c-81 32 -210 97
-279 141 -30 19 -56 35 -58 35 -1 -1 -20 -14 -42 -30z"/>
<path d="M0 76 c0 -18 0 -18 190 -51 79 -14 176 -25 215 -24 l70 1 -85 14
c-85 14 -325 60 -367 71 -17 4 -23 1 -23 -11z"/>
<path d="M2092 46 c-86 -38 -91 -41 -60 -44 21 -2 60 8 102 26 l69 29 64 -29
c42 -19 77 -28 100 -26 32 3 27 6 -64 46 -54 23 -103 42 -108 41 -6 -1 -52
-20 -103 -43z"/>
<path d="M4286 69 c-49 -11 -150 -30 -225 -43 -134 -24 -135 -24 -67 -25 58
-1 332 38 389 55 19 6 24 35 5 33 -7 -1 -53 -10 -102 -20z"/>
<path d="M0 10 c0 -6 28 -10 68 -9 62 1 64 2 27 10 -56 11 -95 11 -95 -1z"/>
<path d="M2165 10 c-14 -6 -5 -9 35 -9 40 0 49 3 35 9 -11 5 -27 9 -35 9 -8 0
-24 -4 -35 -9z"/>
<path d="M4300 10 c-29 -6 -23 -8 33 -9 39 0 67 3 67 9 0 11 -47 11 -100 0z"/>
</g>
</svg>
