<?xml version="1.0" standalone="no"?>
<!DOCTYPE svg PUBLIC "-//W3C//DTD SVG 20010904//EN"
 "http://www.w3.org/TR/2001/REC-SVG-20010904/DTD/svg10.dtd">
<svg version="1.0" xmlns="http://www.w3.org/2000/svg"
 width="300.000000pt" height="300.000000pt" viewBox="0 0 300.000000 300.000000"
 preserveAspectRatio="xMidYMid meet">

<g transform="translate(0.000000,300.000000) scale(0.100000,-0.100000)"
fill="#000000" stroke="none">
<path d="M200 2825 l175 -175 35 35 35 35 -140 140 -140 140 -70 0 -70 0 175
-175z"/>
<path d="M342 2873 l128 -128 32 33 33 32 -95 95 -95 95 -65 0 -65 0 127 -127z"/>
<path d="M485 2920 l79 -80 33 32 33 32 -47 48 c-47 48 -48 48 -112 48 l-66 0
80 -80z"/>
<path d="M620 2965 l34 -35 33 32 c18 18 33 33 33 35 0 2 -30 3 -67 3 l-67 0
34 -35z"/>
<path d="M400 2625 l-375 -375 175 -175 175 -175 35 35 35 35 -140 140 -140
140 375 375 375 375 -70 0 -70 0 -375 -375z"/>
<path d="M590 2625 l-375 -375 127 -127 128 -128 32 33 33 32 -95 95 -94 94
345 345 c189 189 357 358 373 375 l30 31 -65 0 -64 0 -375 -375z"/>
<path d="M780 2625 l-375 -375 75 -77 c41 -43 76 -80 78 -82 1 -3 18 11 37 29
l35 34 -47 48 -48 48 375 375 375 375 -65 0 -65 0 -375 -375z"/>
<path d="M960 2625 l-374 -374 29 -31 c16 -16 34 -30 39 -30 6 0 193 182 416
405 l405 405 -70 0 -70 0 -375 -375z"/>
<path d="M1560 2965 l34 -35 33 32 c18 18 33 33 33 35 0 2 -30 3 -67 3 l-67 0
34 -35z"/>
<path d="M1667 2952 l-47 -48 33 -32 33 -32 79 80 80 80 -66 0 c-64 0 -65 0
-112 -48z"/>
<path d="M1810 2905 l-95 -95 33 -32 32 -33 128 128 127 127 -65 0 -65 0 -95
-95z"/>
<path d="M1945 2860 l-140 -140 35 -35 35 -35 175 175 175 175 -70 0 -70 0
-140 -140z"/>
<path d="M2305 2970 c16 -16 34 -30 40 -30 6 0 24 14 40 30 l29 30 -69 0 -69
0 29 -30z"/>
<path d="M2417 2952 l-47 -48 32 -31 33 -32 78 76 c42 41 77 77 77 79 0 2 -28
4 -63 4 -62 0 -64 -1 -110 -48z"/>
<path d="M2560 2905 l-95 -95 33 -32 32 -33 128 128 127 127 -65 0 -65 0 -95
-95z"/>
<path d="M2695 2860 l-140 -140 35 -35 35 -35 175 175 175 175 -70 0 -70 0
-140 -140z"/>
<path d="M0 2905 l0 -70 140 -140 140 -140 35 35 35 35 -175 175 -175 175 0
-70z"/>
<path d="M1467 2942 c-15 -15 -27 -32 -27 -38 0 -5 182 -191 405 -414 l405
-404 35 34 36 34 -408 408 c-224 224 -410 408 -414 408 -3 0 -17 -13 -32 -28z"/>
<path d="M2072 2797 l-172 -173 35 -34 35 -34 140 139 140 140 375 -375 375
-375 0 70 0 70 -373 373 c-204 204 -374 372 -377 372 -3 0 -83 -78 -178 -173z"/>
<path d="M2822 2797 l-172 -173 35 -34 36 -34 140 140 140 140 -3 67 -3 67
-173 -173z"/>
<path d="M1372 2847 l-32 -33 455 -454 455 -455 80 80 80 79 -32 33 -32 33
-48 -47 -48 -48 -423 423 -423 423 -32 -34z"/>
<path d="M0 2720 l0 -65 95 -95 95 -95 32 33 33 32 -128 128 -127 127 0 -65z"/>
<path d="M1275 2750 l-29 -31 502 -502 502 -502 127 127 128 128 -33 32 -32
33 -95 -95 -95 -95 -468 468 c-257 257 -470 467 -473 467 -3 0 -18 -14 -34
-30z"/>
<path d="M2120 2655 l-125 -125 33 -32 32 -33 95 95 95 95 375 -375 375 -375
0 65 0 65 -373 373 c-204 204 -374 372 -377 372 -3 0 -61 -56 -130 -125z"/>
<path d="M2870 2655 l-125 -125 33 -32 32 -33 96 96 95 95 -3 62 -3 62 -125
-125z"/>
<path d="M1182 2657 l-32 -33 550 -549 550 -550 175 175 175 175 -35 35 -35
35 -140 -140 -140 -140 -513 513 c-281 281 -515 512 -518 512 -3 0 -19 -15
-37 -33z"/>
<path d="M1090 2565 l-34 -36 139 -139 140 -140 -515 -515 -515 -515 35 -35
35 -35 550 550 550 550 -175 175 -176 176 -34 -36z"/>
<path d="M0 2529 c0 -64 0 -65 48 -112 l48 -47 32 33 32 33 -80 79 -80 80 0
-66z"/>
<path d="M2167 2512 l-77 -77 32 -33 32 -32 48 47 48 48 375 -375 375 -375 0
65 0 65 -373 373 c-204 204 -374 372 -377 372 -3 0 -40 -35 -83 -78z"/>
<path d="M2917 2512 l-77 -78 33 -32 33 -32 47 48 c48 49 48 49 45 111 l-3 62
-78 -79z"/>
<path d="M995 2470 l-29 -30 94 -95 95 -95 -470 -470 -470 -470 33 -32 32 -33
503 503 502 502 -125 125 c-69 69 -127 125 -130 125 -4 0 -19 -14 -35 -30z"/>
<path d="M0 2343 l0 -67 35 34 35 34 -32 33 c-18 18 -33 33 -35 33 -2 0 -3
-30 -3 -67z"/>
<path d="M902 2378 l-32 -32 47 -48 48 -48 -423 -423 -423 -423 34 -32 33 -32
454 455 455 455 -80 80 -80 80 -33 -32z"/>
<path d="M2217 2382 c-15 -15 -27 -32 -27 -38 0 -5 182 -191 405 -414 l405
-405 0 70 0 69 -372 373 c-205 205 -376 373 -379 373 -3 0 -17 -13 -32 -28z"/>
<path d="M2967 2382 c-34 -35 -34 -42 3 -77 l30 -29 0 67 c0 37 -1 67 -3 67
-2 0 -15 -13 -30 -28z"/>
<path d="M430 1905 l-405 -405 35 -35 35 -35 410 410 409 409 -29 31 c-16 16
-34 30 -39 30 -6 0 -193 -182 -416 -405z"/>
<path d="M0 2155 l0 -70 140 -140 140 -140 35 35 35 35 -175 175 -175 175 0
-70z"/>
<path d="M1462 2187 l-32 -33 35 -34 35 -34 30 29 c16 16 30 34 30 40 0 11
-51 65 -61 65 -3 0 -19 -15 -37 -33z"/>
<path d="M1372 2097 l-32 -33 80 -79 80 -80 80 80 80 79 -32 33 -32 33 -48
-47 -48 -47 -48 47 -48 47 -32 -33z"/>
<path d="M0 1970 l0 -65 95 -95 95 -95 32 33 33 32 -128 128 -127 127 0 -65z"/>
<path d="M1275 2000 l-29 -31 127 -127 127 -127 127 127 128 128 -33 32 -32
33 -95 -95 -95 -95 -93 93 c-51 50 -95 92 -98 92 -3 0 -18 -14 -34 -30z"/>
<path d="M1182 1907 l-32 -33 175 -174 175 -175 175 175 175 175 -35 35 -35
35 -140 -140 -140 -140 -138 138 c-75 75 -140 137 -143 137 -3 0 -19 -15 -37
-33z"/>
<path d="M1090 1815 l-34 -35 139 -140 140 -140 -140 -140 -140 -140 35 -35
35 -35 175 175 175 175 -175 175 -176 176 -34 -36z"/>
<path d="M1700 1675 l-175 -175 175 -175 175 -175 35 35 35 35 -140 140 -140
140 140 140 140 140 -35 35 -35 35 -175 -175z"/>
<path d="M2075 1300 l-550 -550 175 -175 175 -175 35 35 35 35 -140 140 -140
140 515 515 515 515 -35 35 -35 35 -550 -550z"/>
<path d="M0 1779 c0 -64 0 -65 48 -112 l48 -47 32 33 32 33 -80 79 -80 80 0
-66z"/>
<path d="M995 1720 l-29 -30 94 -95 95 -95 -95 -95 -95 -95 33 -32 32 -33 127
128 128 127 -125 125 c-69 69 -127 125 -130 125 -4 0 -19 -14 -35 -30z"/>
<path d="M1840 1625 l-125 -125 128 -127 127 -128 32 33 33 32 -95 95 -95 95
95 95 94 95 -29 30 c-16 16 -31 30 -35 30 -3 0 -61 -56 -130 -125z"/>
<path d="M2215 1250 l-500 -500 127 -127 128 -128 32 33 33 32 -95 95 -95 95
470 470 469 469 -29 31 c-16 16 -31 30 -34 30 -4 0 -231 -225 -506 -500z"/>
<path d="M0 1595 l0 -69 30 29 c17 16 30 34 30 40 0 6 -13 24 -30 40 l-30 29
0 -69z"/>
<path d="M902 1628 l-32 -32 47 -48 47 -48 -47 -48 -47 -48 33 -32 33 -32 79
80 80 80 -80 80 -80 80 -33 -32z"/>
<path d="M1985 1580 l-80 -80 80 -80 79 -80 33 32 33 32 -47 48 -47 48 47 48
47 48 -33 32 -33 32 -79 -80z"/>
<path d="M2360 1205 l-455 -455 80 -80 79 -80 33 32 33 32 -47 48 -48 48 423
423 423 423 -34 32 -33 32 -454 -455z"/>
<path d="M805 1530 l-29 -30 29 -30 c16 -16 34 -30 40 -30 6 0 24 14 40 30
l29 30 -29 30 c-16 17 -34 30 -40 30 -6 0 -24 -13 -40 -30z"/>
<path d="M2115 1530 l-29 -30 35 -35 35 -35 34 35 34 35 -29 30 c-36 37 -44
37 -80 0z"/>
<path d="M2490 1155 l-404 -404 29 -31 c16 -16 34 -30 39 -30 6 0 193 182 416
405 l404 404 -29 31 c-16 16 -34 30 -39 30 -6 0 -193 -182 -416 -405z"/>
<path d="M0 1405 l0 -70 375 -375 375 -374 35 34 35 35 -410 410 -410 410 0
-70z"/>
<path d="M572 1297 l-172 -173 35 -34 35 -34 140 139 140 140 515 -515 514
-514 36 34 36 34 -548 548 c-301 301 -550 548 -553 548 -3 0 -83 -78 -178
-173z"/>
<path d="M1322 1297 l-172 -173 35 -34 35 -34 140 139 140 140 140 -140 140
-139 35 34 35 34 -172 173 c-95 95 -175 173 -178 173 -3 0 -83 -78 -178 -173z"/>
<path d="M2967 1442 c-34 -35 -34 -42 3 -77 l30 -29 0 67 c0 37 -1 67 -3 67
-2 0 -15 -13 -30 -28z"/>
<path d="M2872 1347 l-32 -33 80 -79 80 -80 0 66 c0 64 0 65 -48 112 l-48 47
-32 -33z"/>
<path d="M0 1220 l0 -65 375 -375 375 -375 80 80 80 79 -32 33 -32 33 -48 -47
-48 -48 -375 375 -375 375 0 -65z"/>
<path d="M620 1155 l-125 -125 33 -32 32 -33 95 95 95 95 470 -470 470 -470
32 33 33 32 -500 500 c-275 275 -502 500 -505 500 -3 0 -61 -56 -130 -125z"/>
<path d="M1370 1155 l-125 -125 33 -32 32 -33 95 95 95 95 95 -95 95 -95 32
33 33 32 -125 125 c-69 69 -127 125 -130 125 -3 0 -61 -56 -130 -125z"/>
<path d="M2775 1250 l-29 -31 127 -127 127 -127 0 65 0 65 -93 93 c-51 50 -95
92 -98 92 -3 0 -18 -14 -34 -30z"/>
<path d="M2682 1157 l-32 -33 175 -174 175 -175 0 70 0 70 -138 138 c-75 75
-140 137 -143 137 -3 0 -19 -15 -37 -33z"/>
<path d="M670 1015 l-80 -80 32 -33 32 -32 48 47 48 48 423 -423 423 -423 32
33 31 33 -454 456 -455 455 -80 -81z"/>
<path d="M2590 1065 l-34 -35 139 -140 140 -140 -375 -375 -375 -375 70 0 70
0 375 375 375 375 -175 175 -176 176 -34 -36z"/>
<path d="M0 1030 l0 -65 375 -375 375 -375 127 127 128 128 -33 32 -32 33 -95
-95 -95 -95 -375 375 -375 375 0 -65z"/>
<path d="M1417 1012 l-77 -77 32 -33 32 -32 48 47 48 47 48 -47 48 -47 32 33
32 33 -78 77 c-43 42 -80 77 -82 77 -3 0 -40 -35 -83 -78z"/>
<path d="M2495 970 l-29 -30 94 -95 95 -95 -375 -375 -375 -375 65 0 65 0 375
375 375 375 -125 125 c-69 69 -127 125 -130 125 -4 0 -19 -14 -35 -30z"/>
<path d="M0 845 l0 -70 375 -375 375 -375 175 175 175 175 -35 35 -35 35 -140
-140 -140 -140 -375 375 -375 375 0 -70z"/>
<path d="M712 877 l-32 -33 410 -409 409 -409 31 29 c16 16 30 34 30 39 0 11
-800 816 -811 816 -3 0 -19 -15 -37 -33z"/>
<path d="M1467 882 c-34 -35 -34 -42 3 -77 l30 -29 30 29 c17 16 30 34 30 40
0 11 -51 65 -61 65 -3 0 -17 -13 -32 -28z"/>
<path d="M2402 878 l-32 -32 47 -48 48 -48 -375 -375 -375 -375 65 0 65 0 375
375 375 375 -80 80 -80 80 -33 -32z"/>
<path d="M1930 405 l-405 -405 70 0 70 0 375 375 374 374 -29 31 c-16 16 -34
30 -39 30 -6 0 -193 -182 -416 -405z"/>
<path d="M0 655 l0 -69 30 29 c17 16 30 34 30 40 0 6 -13 24 -30 40 l-30 29 0
-69z"/>
<path d="M2962 687 l-32 -33 35 -34 35 -34 0 67 c0 37 -1 67 -3 67 -2 0 -17
-15 -35 -33z"/>
<path d="M47 582 c-48 -49 -48 -49 -45 -111 l3 -62 78 79 77 78 -33 32 -33 32
-47 -48z"/>
<path d="M2872 597 l-32 -33 80 -79 80 -80 0 66 c0 64 0 65 -48 112 l-48 47
-32 -33z"/>
<path d="M92 437 l-92 -92 0 -65 0 -65 127 127 127 127 -29 31 c-16 16 -31 30
-35 30 -3 0 -47 -42 -98 -93z"/>
<path d="M2775 500 l-29 -31 127 -127 127 -127 0 65 0 65 -93 93 c-51 50 -95
92 -98 92 -3 0 -18 -14 -34 -30z"/>
<path d="M137 302 l-137 -137 0 -70 0 -70 175 175 175 174 -32 33 c-18 18 -34
33 -38 33 -3 0 -67 -62 -143 -138z"/>
<path d="M2682 407 l-32 -33 175 -174 175 -175 0 70 0 70 -138 138 c-75 75
-140 137 -143 137 -3 0 -19 -15 -37 -33z"/>
<path d="M200 175 l-175 -175 70 0 70 0 140 140 140 140 -35 35 -35 35 -175
-175z"/>
<path d="M950 175 l-175 -175 70 0 70 0 140 140 140 140 -35 35 -35 35 -175
-175z"/>
<path d="M2590 315 l-34 -36 140 -140 140 -140 67 3 67 3 -173 173 -173 172
-34 -35z"/>
<path d="M340 125 l-125 -125 65 0 65 0 95 95 94 95 -29 30 c-16 16 -31 30
-35 30 -3 0 -61 -56 -130 -125z"/>
<path d="M1090 125 l-125 -125 65 0 65 0 95 95 94 95 -29 30 c-16 16 -31 30
-35 30 -3 0 -61 -56 -130 -125z"/>
<path d="M2495 220 l-29 -30 94 -95 95 -95 65 0 65 0 -125 125 c-69 69 -127
125 -130 125 -4 0 -19 -14 -35 -30z"/>
<path d="M485 80 l-80 -80 66 0 c64 0 65 0 112 48 l47 48 -33 32 -33 32 -79
-80z"/>
<path d="M1235 80 l-80 -80 66 0 c64 0 65 0 112 48 l47 48 -33 32 -33 32 -79
-80z"/>
<path d="M2402 127 l-32 -33 48 -47 c49 -48 49 -48 111 -45 l62 3 -79 78 -78
77 -32 -33z"/>
<path d="M2310 35 l-34 -35 69 0 69 0 -34 35 c-19 19 -34 35 -35 35 -1 0 -16
-16 -35 -35z"/>
<path d="M615 30 l-29 -30 69 0 69 0 -29 30 c-16 17 -34 30 -40 30 -6 0 -24
-13 -40 -30z"/>
<path d="M1365 30 l-29 -30 69 0 69 0 -29 30 c-16 17 -34 30 -40 30 -6 0 -24
-13 -40 -30z"/>
</g>
</svg>
