<?xml version="1.0" standalone="no"?>
<!DOCTYPE svg PUBLIC "-//W3C//DTD SVG 20010904//EN"
 "http://www.w3.org/TR/2001/REC-SVG-20010904/DTD/svg10.dtd">
<svg version="1.0" xmlns="http://www.w3.org/2000/svg"
 width="300.000000pt" height="300.000000pt" viewBox="0 0 300.000000 300.000000"
 preserveAspectRatio="xMidYMid meet">

<g transform="translate(0.000000,300.000000) scale(0.100000,-0.100000)"
fill="#000000" stroke="none">
<path d="M12 2988 c-13 -13 -17 -138 -4 -138 4 0 41 34 82 75 l74 75 -70 0
c-41 0 -75 -5 -82 -12z"/>
<path d="M122 2907 l-92 -92 80 -80 80 -80 173 173 172 172 -65 0 -65 0 -107
-107 c-94 -93 -109 -105 -123 -93 -14 12 -6 24 77 107 l93 93 -65 0 -65 0 -93
-93z"/>
<path d="M393 2798 l-203 -203 -95 95 -95 95 0 -65 0 -65 95 -95 95 -95 268
268 267 267 -65 0 -65 0 -202 -202z"/>
<path d="M945 2830 c93 -93 175 -170 181 -170 5 0 23 13 39 30 l29 30 -139
140 -139 140 -70 0 -71 0 170 -170z"/>
<path d="M1092 2873 l128 -128 32 33 33 32 -95 95 -95 95 -65 0 -65 0 127
-127z"/>
<path d="M1235 2920 l80 -80 78 77 78 78 -67 3 c-47 2 -70 -1 -75 -10 -7 -10
-12 -11 -29 0 -11 6 -48 12 -82 12 l-63 0 80 -80z"/>
<path d="M1342 2817 c-100 -100 -182 -187 -182 -192 0 -14 702 -715 716 -715
5 0 23 13 39 30 l29 30 -325 326 c-178 179 -325 326 -326 328 -2 1 78 83 177
182 99 98 180 182 180 186 0 5 -28 8 -63 8 l-62 0 -183 -183z"/>
<path d="M1810 2905 l95 -95 -150 -150 c-82 -83 -154 -150 -160 -150 -13 0
-115 102 -115 115 0 6 46 57 103 113 92 92 105 101 117 87 12 -14 2 -28 -78
-108 l-92 -93 33 -32 33 -32 122 123 c67 67 122 126 122 130 0 4 -34 42 -75
85 l-75 77 -175 -175 -175 -175 315 -315 315 -315 32 33 33 32 -188 188 -187
187 187 187 188 188 -95 95 -95 95 -65 0 -65 0 95 -95z"/>
<path d="M1998 2908 l92 -93 -187 -187 -188 -188 175 -175 175 -175 262 262
c145 145 263 267 263 273 0 6 -82 92 -183 193 l-182 182 -65 0 -64 0 182 -183
c100 -101 182 -187 182 -192 0 -12 -383 -395 -395 -395 -6 0 -57 47 -115 105
l-104 105 152 150 c83 82 155 150 160 150 4 0 33 -26 65 -58 l57 -57 -108
-108 c-97 -96 -110 -106 -122 -92 -12 14 -2 28 78 108 l92 93 -33 32 -33 32
-124 -125 -125 -125 80 -80 80 -80 172 172 173 173 -187 187 -188 188 -65 0
-65 0 93 -92z"/>
<path d="M2635 2640 l360 -360 3 66 3 66 -294 294 -295 294 -68 0 -69 0 360
-360z"/>
<path d="M2730 2735 l265 -265 3 62 3 62 -108 108 -108 108 95 95 95 95 -70 0
-69 0 -59 -61 -60 -61 -61 61 -62 61 -64 0 -65 0 265 -265z"/>
<path d="M2688 2968 l32 -33 32 33 33 32 -65 0 -65 0 33 -32z"/>
<path d="M715 2940 l-29 -31 329 -329 330 -330 -203 -202 -202 -203 -107 108
-108 107 155 155 155 155 60 -60 60 -60 -107 -107 c-94 -94 -109 -105 -123
-93 -14 12 -6 24 77 107 l93 93 -33 32 -32 33 -125 -125 -125 -125 80 -80 80
-80 172 173 173 172 -315 315 -314 315 -33 -32 -33 -32 187 -188 188 -188
-188 -188 -187 -187 175 -175 175 -175 268 268 267 267 -360 360 c-198 198
-362 360 -366 360 -3 0 -18 -14 -34 -30z"/>
<path d="M2917 2893 l-77 -78 80 -80 80 -80 0 66 c0 36 -5 70 -12 77 -8 8 -8
15 1 26 7 9 11 39 9 80 l-3 67 -78 -78z"/>
<path d="M290 2515 l-265 -265 362 -362 362 -362 31 29 c16 16 30 34 30 39 0
6 -145 156 -323 333 l-323 323 200 200 200 201 108 -108 108 -108 -155 -155
-155 -155 -62 63 -63 62 107 107 c94 94 109 105 123 93 14 -12 6 -24 -77 -107
l-93 -93 33 -32 32 -33 127 127 126 126 -76 76 c-42 42 -80 76 -84 76 -5 0
-85 -77 -178 -170 l-170 -170 315 -315 314 -315 33 32 33 32 -187 188 -188
188 188 188 187 187 -173 173 c-95 94 -174 172 -177 172 -3 0 -124 -119 -270
-265z"/>
<path d="M0 2529 c0 -64 0 -65 48 -112 l48 -47 32 33 32 33 -80 79 -80 80 0
-66z"/>
<path d="M2587 2562 l-27 -28 220 -221 220 -222 0 67 0 67 -183 183 c-100 100
-187 182 -193 182 -6 0 -22 -13 -37 -28z"/>
<path d="M2495 2470 l-29 -31 187 -187 187 -187 -187 -188 -188 -187 175 -175
175 -175 93 93 93 93 -3 65 -3 64 -85 -87 c-47 -49 -90 -88 -95 -88 -6 0 -57
47 -114 104 l-104 105 134 133 c74 73 145 142 157 152 l23 20 44 -44 45 -44 0
64 0 65 -233 233 c-127 127 -235 232 -238 232 -3 0 -18 -14 -34 -30z"/>
<path d="M2172 2147 c-144 -144 -262 -267 -262 -272 0 -14 702 -715 716 -715
5 0 23 13 38 29 l28 29 -326 328 c-179 180 -324 329 -323 331 20 24 392 393
396 393 4 0 53 -47 111 -105 l104 -104 -149 -151 c-82 -82 -154 -150 -160
-150 -13 0 -115 102 -115 115 0 6 46 57 103 113 92 92 105 101 117 87 12 -14
2 -28 -78 -108 l-92 -93 33 -32 33 -32 124 125 c141 141 137 117 31 223 l-63
65 -174 -174 -174 -174 315 -315 315 -315 32 33 33 32 -188 188 -187 187 187
188 188 187 -175 175 -175 175 -263 -263z"/>
<path d="M0 2338 l0 -62 30 29 c17 16 30 34 30 40 0 12 -41 55 -53 55 -4 0 -7
-28 -7 -62z"/>
<path d="M0 2160 l0 -65 105 -105 c58 -58 105 -109 105 -115 0 -5 -47 -57
-106 -116 l-105 -105 3 -62 3 -62 173 172 172 173 -175 175 -175 175 0 -65z"/>
<path d="M1465 2190 l-29 -31 329 -329 330 -330 -203 -202 -202 -203 -107 108
-108 107 155 155 155 155 60 -60 60 -60 -107 -107 c-94 -94 -109 -105 -123
-93 -14 12 -6 24 77 107 l93 93 -33 32 -32 33 -125 -125 -125 -125 80 -80 80
-80 172 173 173 172 -315 315 -314 315 -33 -32 -33 -32 187 -188 188 -188
-188 -188 -187 -187 175 -175 175 -175 268 268 267 267 -360 360 c-198 198
-362 360 -366 360 -3 0 -18 -14 -34 -30z"/>
<path d="M0 1968 c0 -46 4 -69 15 -78 14 -12 14 -15 0 -30 -12 -13 -15 -34
-13 -79 l3 -62 78 78 77 78 -80 80 -80 80 0 -67z"/>
<path d="M1040 1765 l-265 -265 362 -362 363 -363 31 31 c25 26 29 35 21 50
-6 11 -152 160 -325 332 l-314 313 201 200 200 200 108 -108 108 -108 -155
-155 -155 -155 -62 63 -63 62 107 107 c94 94 109 105 123 93 14 -12 6 -24 -77
-107 l-93 -93 33 -32 32 -33 126 126 126 126 -78 77 c-43 42 -80 76 -83 76 -4
0 -83 -77 -176 -170 l-170 -170 315 -315 314 -315 33 32 33 32 -187 188 -188
188 188 188 187 187 -173 173 c-95 94 -174 172 -177 172 -3 0 -124 -119 -270
-265z"/>
<path d="M2780 1815 l-125 -125 75 -77 c41 -43 76 -80 78 -82 1 -3 45 37 97
89 l95 95 0 65 0 65 -93 -93 c-83 -83 -95 -91 -107 -77 -12 14 -2 28 78 108
l92 93 -33 32 -33 32 -124 -125z"/>
<path d="M337 1812 l-27 -28 325 -324 c179 -179 325 -329 325 -335 0 -13 -382
-395 -395 -395 -6 0 -57 46 -113 103 l-103 103 152 152 c84 84 155 152 158
152 4 0 32 -26 64 -58 l57 -57 -108 -108 c-97 -96 -110 -106 -122 -92 -12 14
-2 28 78 108 l92 93 -33 32 -33 32 -124 -125 -125 -125 80 -80 80 -80 173 173
172 172 -315 315 -315 315 -32 -33 -33 -32 188 -188 187 -187 -187 -188 -188
-187 175 -175 175 -175 262 262 c145 145 263 267 263 273 0 14 -702 715 -716
715 -5 0 -22 -13 -37 -28z"/>
<path d="M92 1567 l-92 -92 0 -63 c0 -34 3 -62 7 -62 4 0 47 39 95 87 l88 88
107 -108 108 -107 -150 -150 c-82 -82 -154 -150 -159 -150 -6 0 -30 19 -53 42
l-43 42 0 -64 0 -65 235 -235 235 -235 32 33 33 32 -188 188 -187 187 187 188
188 187 -175 175 -175 175 -93 -93z"/>
<path d="M92 1377 l-92 -92 0 -65 0 -65 93 93 c83 83 95 91 107 77 12 -14 2
-28 -78 -108 l-92 -93 33 -32 33 -32 122 123 c67 67 122 127 122 132 0 10
-140 155 -150 155 -3 0 -47 -42 -98 -93z"/>
<path d="M2215 1440 c-16 -16 -27 -32 -24 -35 2 -2 150 -151 329 -330 l325
-325 -203 -202 -202 -202 -105 104 c-58 58 -105 108 -105 112 0 3 68 75 151
159 l151 152 61 -61 62 -62 -107 -107 c-94 -94 -109 -105 -123 -93 -14 12 -6
24 77 107 l93 93 -33 32 -32 33 -125 -125 -125 -125 80 -80 80 -80 172 173
173 172 -315 315 -314 315 -33 -32 -33 -32 187 -188 188 -188 -188 -188 -187
-187 175 -175 175 -175 268 268 267 267 -360 360 c-198 198 -362 360 -366 360
-3 0 -18 -13 -34 -30z"/>
<path d="M2828 1303 c-93 -93 -168 -173 -168 -178 0 -6 77 -87 170 -180 l170
-170 0 69 0 68 -96 97 c-53 53 -100 102 -106 108 -8 10 17 40 96 118 l107 104
-3 66 -3 65 -167 -167z"/>
<path d="M1790 1015 l-265 -265 362 -362 362 -362 31 29 c16 16 30 34 30 39 0
6 -144 155 -320 331 -176 175 -320 323 -320 327 0 3 89 95 197 203 l197 196
107 -107 108 -108 -154 -155 -155 -156 -62 63 -63 62 107 107 c94 94 109 105
123 93 14 -12 6 -24 -77 -107 l-93 -93 33 -32 32 -33 126 126 126 126 -78 77
c-44 42 -81 76 -84 76 -3 0 -82 -77 -175 -170 l-170 -170 315 -315 314 -315
33 32 33 32 -187 188 -188 188 188 188 187 187 -173 173 c-95 94 -174 172
-177 172 -3 0 -124 -119 -270 -265z"/>
<path d="M2917 1203 l-77 -78 80 -80 80 -80 0 67 c0 46 -4 69 -15 78 -14 12
-14 15 0 30 12 13 15 34 13 79 l-3 62 -78 -78z"/>
<path d="M1087 1062 l-27 -28 315 -315 c174 -173 321 -322 327 -333 9 -16 -15
-43 -174 -202 l-184 -184 66 0 65 0 183 183 c100 100 182 187 182 192 0 14
-702 715 -716 715 -5 0 -22 -13 -37 -28z"/>
<path d="M995 970 l-29 -31 187 -187 187 -187 -187 -187 -188 -188 95 -95 95
-95 65 0 65 0 -92 92 -93 93 150 152 c83 84 154 153 158 153 4 0 33 -26 65
-58 l57 -57 -108 -108 c-97 -96 -110 -106 -122 -92 -12 14 -2 28 78 108 l92
93 -33 32 -33 32 -124 -125 -125 -125 80 -80 80 -80 172 172 173 173 -312 312
c-172 172 -315 313 -319 313 -3 0 -18 -14 -34 -30z"/>
<path d="M672 647 c-144 -144 -262 -267 -262 -272 0 -6 82 -92 183 -193 l182
-182 70 0 69 0 -186 187 -187 187 37 40 c20 23 110 113 200 201 l162 160 108
-108 107 -107 -150 -150 c-82 -82 -154 -150 -160 -150 -13 0 -115 102 -115
115 0 6 46 57 103 113 92 92 105 101 117 87 12 -14 2 -28 -78 -108 l-92 -93
33 -32 33 -32 122 123 c67 67 122 126 122 131 0 4 -34 42 -76 84 l-76 75 -174
-174 -174 -174 187 -187 188 -188 65 0 65 0 -93 92 -92 93 187 187 188 188
-175 175 -175 175 -263 -263z"/>
<path d="M0 837 l0 -62 183 -183 c100 -100 187 -182 193 -182 6 0 23 14 39 30
l29 31 -214 214 c-118 118 -218 215 -222 215 -5 0 -8 -28 -8 -63z"/>
<path d="M0 657 l0 -62 297 -298 298 -297 65 0 65 0 -360 360 c-198 198 -361
360 -362 360 -2 0 -3 -28 -3 -63z"/>
<path d="M2965 690 l-29 -30 32 -33 32 -32 0 63 c0 34 -1 62 -3 62 -2 0 -16
-14 -32 -30z"/>
<path d="M2872 597 l-32 -33 80 -79 80 -80 0 66 c0 64 0 65 -48 112 l-48 47
-32 -33z"/>
<path d="M0 470 l0 -65 107 -107 108 -108 -95 -95 -95 -95 71 0 70 0 59 60 59
60 62 -60 61 -61 61 3 62 3 -265 265 -265 265 0 -65z"/>
<path d="M2540 265 l-265 -265 66 0 66 0 202 202 201 203 95 -95 95 -95 0 65
0 65 -93 93 c-51 50 -95 92 -97 92 -3 0 -124 -119 -270 -265z"/>
<path d="M0 279 c0 -37 5 -70 12 -77 9 -9 9 -17 -1 -35 -7 -13 -11 -48 -9 -80
l3 -58 78 78 77 78 -80 80 -80 80 0 -66z"/>
<path d="M1837 312 l-27 -28 141 -142 140 -142 67 0 67 0 -170 170 c-93 94
-175 170 -181 170 -5 0 -22 -13 -37 -28z"/>
<path d="M2635 170 l-170 -170 65 0 65 0 107 107 c94 93 109 105 123 93 14
-12 6 -24 -77 -107 l-93 -93 65 0 65 0 94 94 94 94 -79 76 c-44 42 -81 76 -84
76 -3 0 -82 -76 -175 -170z"/>
<path d="M1745 220 l-29 -30 94 -95 95 -95 65 0 65 0 -125 125 c-69 69 -127
125 -130 125 -4 0 -19 -14 -35 -30z"/>
<path d="M1605 80 l-80 -80 71 0 c40 0 75 5 82 12 8 8 15 8 26 -1 9 -7 38 -11
75 -9 l62 3 -78 78 -78 77 -80 -80z"/>
<path d="M2923 80 c-40 -39 -73 -73 -73 -75 0 -3 29 -5 64 -5 79 0 88 9 84 89
l-3 61 -72 -70z"/>
<path d="M245 30 l-29 -30 64 0 64 0 -29 30 c-16 17 -32 30 -35 30 -3 0 -19
-13 -35 -30z"/>
</g>
</svg>
