<?xml version="1.0" encoding="UTF-8"?>
<!DOCTYPE svg PUBLIC "-//W3C//DTD SVG 1.1//EN" "http://www.w3.org/Graphics/SVG/1.1/DTD/svg11.dtd">
<svg xmlns="http://www.w3.org/2000/svg" version="1.1" width="208px" height="208px" style="shape-rendering:geometricPrecision; text-rendering:geometricPrecision; image-rendering:optimizeQuality; fill-rule:evenodd; clip-rule:evenodd" xmlns:xlink="http://www.w3.org/1999/xlink">
<g><path style="opacity:1" fill="#f8fcfe" d="M -0.5,-0.5 C 2.5,-0.5 5.5,-0.5 8.5,-0.5C 6.05223,4.86016 3.05223,9.86016 -0.5,14.5C -0.5,9.5 -0.5,4.5 -0.5,-0.5 Z"/></g>
<g><path style="opacity:1" fill="#fcfefe" d="M 10.5,-0.5 C 13.1667,-0.5 15.8333,-0.5 18.5,-0.5C 14.3581,7.11259 10.1914,14.7793 6,22.5C 3.9633,24.7059 1.79663,26.7059 -0.5,28.5C -0.5,25.1667 -0.5,21.8333 -0.5,18.5C 3.90914,12.6931 7.57581,6.35979 10.5,-0.5 Z"/></g>
<g><path style="opacity:1" fill="#fbfefe" d="M 21.5,-0.5 C 24.8333,-0.5 28.1667,-0.5 31.5,-0.5C 28.502,2.66699 25.6686,6.00033 23,9.5C 18.3399,22.3155 10.5066,32.6489 -0.5,40.5C -0.5,37.5 -0.5,34.5 -0.5,31.5C 1.79663,29.7059 3.9633,27.7059 6,25.5C 10.9263,16.6403 16.093,7.97363 21.5,-0.5 Z"/></g>
<g><path style="opacity:1" fill="#fafefe" d="M 34.5,-0.5 C 39.1667,-0.5 43.8333,-0.5 48.5,-0.5C 42.4337,2.9698 36.9337,7.30314 32,12.5C 27.4135,20.0045 23.0801,27.6712 19,35.5C 13.7636,42.2477 7.26365,47.2477 -0.5,50.5C -0.5,47.8333 -0.5,45.1667 -0.5,42.5C 4.27467,40.0165 8.44134,36.6831 12,32.5C 16.6667,24.5 21.3333,16.5 26,8.5C 29.0379,5.63064 31.8712,2.63064 34.5,-0.5 Z"/></g>
<g><path style="opacity:1" fill="#fbfefe" d="M 52.5,-0.5 C 57.1667,-0.5 61.8333,-0.5 66.5,-0.5C 59.2867,4.08493 51.9534,8.58493 44.5,13C 41.2959,15.8688 38.4626,19.0354 36,22.5C 31.6122,33.4414 25.1122,42.9414 16.5,51C 10.8061,54.1788 5.13945,57.3454 -0.5,60.5C -0.5,57.8333 -0.5,55.1667 -0.5,52.5C 9.61774,48.5513 17.4511,41.8846 23,32.5C 28.51,17.4974 38.3433,6.49745 52.5,-0.5 Z"/></g>
<g><path style="opacity:1" fill="#fbfefe" d="M 70.5,-0.5 C 73.8333,-0.5 77.1667,-0.5 80.5,-0.5C 79.0401,1.46283 77.3734,3.29617 75.5,5C 67.5,9.66667 59.5,14.3333 51.5,19C 49.3333,21.1667 47.1667,23.3333 45,25.5C 40.3333,33.5 35.6667,41.5 31,49.5C 28.1667,52.3333 25.3333,55.1667 22.5,58C 14.7793,62.1914 7.11259,66.3581 -0.5,70.5C -0.5,67.8333 -0.5,65.1667 -0.5,62.5C 9.08957,58.4561 17.5896,52.7894 25,45.5C 30.038,37.723 34.7046,29.723 39,21.5C 41.8333,18.6667 44.6667,15.8333 47.5,13C 55.336,8.63657 63.0027,4.13657 70.5,-0.5 Z"/></g>
<g><path style="opacity:1" fill="#fbfefe" d="M 83.5,-0.5 C 86.5,-0.5 89.5,-0.5 92.5,-0.5C 89.4141,4.09167 85.7475,8.25834 81.5,12C 70.2119,17.2228 60.0452,24.0562 51,32.5C 46.4135,40.0045 42.0801,47.6712 38,55.5C 29.9756,64.1003 20.4756,70.6003 9.5,75C 6.00033,77.6686 2.66699,80.502 -0.5,83.5C -0.5,80.1667 -0.5,76.8333 -0.5,73.5C 7.97363,68.093 16.6403,62.9263 25.5,58C 33.8628,49.4534 40.3628,39.62 45,28.5C 48.1667,25.3333 51.3333,22.1667 54.5,19C 62.3288,14.9199 69.9955,10.5865 77.5,6C 79.7059,3.9633 81.7059,1.79663 83.5,-0.5 Z"/></g>
<g><path style="opacity:1" fill="#fbfefe" d="M 94.5,-0.5 C 97.1667,-0.5 99.8333,-0.5 102.5,-0.5C 95.8053,13.3562 85.1386,22.8562 70.5,28C 65.748,30.7477 61.5813,34.2477 58,38.5C 53.3333,46.5 48.6667,54.5 44,62.5C 41.1667,65.3333 38.3333,68.1667 35.5,71C 24.38,75.6372 14.5466,82.1372 6,90.5C 3.9703,94.0085 1.80364,97.3419 -0.5,100.5C -0.5,95.8333 -0.5,91.1667 -0.5,86.5C 2.63064,83.8712 5.63064,81.0379 8.5,78C 16.8281,73.838 24.8281,69.1714 32.5,64C 35.7041,61.1312 38.5374,57.9646 41,54.5C 45.3878,43.5586 51.8878,34.0586 60.5,26C 68.7958,21.8517 76.7958,17.185 84.5,12C 88.6831,8.44134 92.0165,4.27467 94.5,-0.5 Z"/></g>
<g><path style="opacity:1" fill="#fcfefe" d="M 104.5,-0.5 C 107.167,-0.5 109.833,-0.5 112.5,-0.5C 108.6,9.46149 102.6,17.9615 94.5,25C 86.7032,29.0661 79.0365,33.3995 71.5,38C 69,40.5 66.5,43 64,45.5C 59.4135,53.0045 55.0801,60.6712 51,68.5C 48.1667,71.3333 45.3333,74.1667 42.5,77C 34.8133,81.366 27.1467,85.6994 19.5,90C 17,92.5 14.5,95 12,97.5C 7.80722,104.563 3.64056,111.563 -0.5,118.5C -0.5,113.833 -0.5,109.167 -0.5,104.5C 1.64038,100.897 3.80704,97.2299 6,93.5C 9.16667,90.3333 12.3333,87.1667 15.5,84C 23.3288,79.9199 30.9955,75.5865 38.5,71C 46.8628,62.4534 53.3628,52.62 58,41.5C 61.1667,38.3333 64.3333,35.1667 67.5,32C 78.62,27.3628 88.4534,20.8628 97,12.5C 100.017,8.466 102.517,4.13267 104.5,-0.5 Z"/></g>
<g><path style="opacity:1" fill="#fbfefe" d="M 114.5,-0.5 C 117.167,-0.5 119.833,-0.5 122.5,-0.5C 117.629,11.4049 110.629,21.9049 101.5,31C 93.5,35.6667 85.5,40.3333 77.5,45C 75.3333,47.1667 73.1667,49.3333 71,51.5C 66.3333,59.5 61.6667,67.5 57,75.5C 54.5,78 52,80.5 49.5,83C 41.5,87.6667 33.5,92.3333 25.5,97C 17.703,104.477 11.8696,113.311 8,123.5C 5.66581,127 2.83248,130 -0.5,132.5C -0.5,129.167 -0.5,125.833 -0.5,122.5C 4.47788,115.225 8.97788,107.559 13,99.5C 15.8333,96.6667 18.6667,93.8333 21.5,91C 29.0045,86.4135 36.6712,82.0801 44.5,78C 48.0364,74.7988 51.2031,71.2988 54,67.5C 58.3878,56.5586 64.8878,47.0586 73.5,39C 81.2968,34.9339 88.9635,30.6005 96.5,26C 104.365,18.4364 110.365,9.60304 114.5,-0.5 Z"/></g>
<g><path style="opacity:1" fill="#fcfefe" d="M 125.5,-0.5 C 128.833,-0.5 132.167,-0.5 135.5,-0.5C 127.648,8.53846 121.148,18.5385 116,29.5C 113.167,32.3333 110.333,35.1667 107.5,38C 99.6712,42.0801 92.0045,46.4135 84.5,51C 82,53.5 79.5,56 77,58.5C 72.4135,66.0045 68.0801,73.6712 64,81.5C 61.1667,84.3333 58.3333,87.1667 55.5,90C 47.6712,94.0801 40.0045,98.4135 32.5,103C 30,105.5 27.5,108 25,110.5C 20.4135,118.004 16.0801,125.671 12,133.5C 8.25834,137.747 4.09167,141.414 -0.5,144.5C -0.5,141.5 -0.5,138.5 -0.5,135.5C 1.79663,133.706 3.9633,131.706 6,129.5C 10.5865,121.996 14.9199,114.329 19,106.5C 26.1753,97.9966 35.0086,91.83 45.5,88C 50.252,85.2523 54.4187,81.7523 58,77.5C 62.5865,69.9955 66.9199,62.3288 71,54.5C 73.8333,51.6667 76.6667,48.8333 79.5,46C 87.5,41.3333 95.5,36.6667 103.5,32C 105.667,29.8333 107.833,27.6667 110,25.5C 114.926,16.6403 120.093,7.97363 125.5,-0.5 Z"/></g>
<g><path style="opacity:1" fill="#fbfefe" d="M 138.5,-0.5 C 143.167,-0.5 147.833,-0.5 152.5,-0.5C 145.916,3.06554 140.082,7.7322 135,13.5C 130.273,25.1333 123.439,35.3 114.5,44C 106.5,48.6667 98.5,53.3333 90.5,58C 82.1372,66.5466 75.6372,76.38 71,87.5C 68.1667,90.3333 65.3333,93.1667 62.5,96C 54.5,100.667 46.5,105.333 38.5,110C 36,112.5 33.5,115 31,117.5C 26.1783,129.646 19.0117,140.146 9.5,149C 6.27657,151.062 2.94324,152.896 -0.5,154.5C -0.5,151.833 -0.5,149.167 -0.5,146.5C 4.27467,144.016 8.44134,140.683 12,136.5C 16.6618,128.537 21.3285,120.537 26,112.5C 34.0244,103.9 43.5244,97.3997 54.5,93C 57.9646,90.5374 61.1312,87.7041 64,84.5C 68.6989,76.4799 73.3656,68.4799 78,60.5C 86.0927,51.8759 95.5927,45.3759 106.5,41C 109.965,38.5374 113.131,35.7041 116,32.5C 121.185,24.7958 125.852,16.7958 130,8.5C 133.038,5.63064 135.871,2.63064 138.5,-0.5 Z"/></g>
<g><path style="opacity:1" fill="#fcfefe" d="M 156.5,-0.5 C 161.167,-0.5 165.833,-0.5 170.5,-0.5C 163.563,3.64056 156.563,7.80722 149.5,12C 147,14.5 144.5,17 142,19.5C 137.413,27.0045 133.08,34.6712 129,42.5C 126.167,45.3333 123.333,48.1667 120.5,51C 112.671,55.0801 105.004,59.4135 97.5,64C 95,66.5 92.5,69 90,71.5C 85.4135,79.0045 81.0801,86.6712 77,94.5C 74.1667,97.3333 71.3333,100.167 68.5,103C 60.6712,107.08 53.0045,111.413 45.5,116C 43,118.5 40.5,121 38,123.5C 33.4135,131.004 29.0801,138.671 25,146.5C 17.9615,154.6 9.46149,160.6 -0.5,164.5C -0.5,161.833 -0.5,159.167 -0.5,156.5C 6.95765,153.215 13.4577,148.549 19,142.5C 23.6667,134.5 28.3333,126.5 33,118.5C 35.8333,115.667 38.6667,112.833 41.5,110C 49.3288,105.92 56.9955,101.587 64.5,97C 72.8628,88.4534 79.3628,78.62 84,67.5C 87.1667,64.3333 90.3333,61.1667 93.5,58C 101.329,53.9199 108.996,49.5865 116.5,45C 124.863,36.4534 131.363,26.62 136,15.5C 139.167,12.3333 142.333,9.16667 145.5,6C 149.23,3.80704 152.897,1.64038 156.5,-0.5 Z"/></g>
<g><path style="opacity:1" fill="#fbfefe" d="M 174.5,-0.5 C 177.833,-0.5 181.167,-0.5 184.5,-0.5C 182.706,1.79663 180.706,3.9633 178.5,6C 166.867,10.7274 156.7,17.5607 148,26.5C 143.273,38.1333 136.439,48.3 127.5,57C 119.5,61.6667 111.5,66.3333 103.5,71C 101.333,73.1667 99.1667,75.3333 97,77.5C 92.3333,85.5 87.6667,93.5 83,101.5C 80.5,104 78,106.5 75.5,109C 67.5,113.667 59.5,118.333 51.5,123C 49.3333,125.167 47.1667,127.333 45,129.5C 40.3333,137.5 35.6667,145.5 31,153.5C 21.9049,162.629 11.4049,169.629 -0.5,174.5C -0.5,171.833 -0.5,169.167 -0.5,166.5C 9.05581,162.468 17.5558,156.802 25,149.5C 30.1714,141.828 34.838,133.828 39,125.5C 47.0586,116.888 56.5586,110.388 67.5,106C 70.9646,103.537 74.1312,100.704 77,97.5C 82.185,89.7958 86.8517,81.7958 91,73.5C 93.8333,70.6667 96.6667,67.8333 99.5,65C 107.187,60.634 114.853,56.3006 122.5,52C 125,49.5 127.5,47 130,44.5C 134.587,36.9955 138.92,29.3288 143,21.5C 145.833,18.6667 148.667,15.8333 151.5,13C 159.559,8.97788 167.225,4.47788 174.5,-0.5 Z"/></g>
<g><path style="opacity:1" fill="#fcfefe" d="M 187.5,-0.5 C 190.5,-0.5 193.5,-0.5 196.5,-0.5C 193.414,4.09167 189.747,8.25834 185.5,12C 177.813,16.366 170.147,20.6994 162.5,25C 160,27.5 157.5,30 155,32.5C 150.413,40.0045 146.08,47.6712 142,55.5C 139.167,58.3333 136.333,61.1667 133.5,64C 121.867,68.7274 111.7,75.5607 103,84.5C 98.4135,92.0045 94.0801,99.6712 90,107.5C 87.1667,110.333 84.3333,113.167 81.5,116C 73.6712,120.08 66.0045,124.413 58.5,129C 56,131.5 53.5,134 51,136.5C 46.4135,144.004 42.0801,151.671 38,159.5C 31.1487,167.676 22.6487,173.51 12.5,177C 7.71347,179.955 3.38013,183.455 -0.5,187.5C -0.5,184.167 -0.5,180.833 -0.5,177.5C 7.97363,172.093 16.6403,166.926 25.5,162C 33.8628,153.453 40.3628,143.62 45,132.5C 48.1667,129.333 51.3333,126.167 54.5,123C 62.3288,118.92 69.9955,114.587 77.5,110C 85.8628,101.453 92.3628,91.62 97,80.5C 100.867,76.2984 105.033,72.4651 109.5,69C 122.332,64.4865 132.499,56.6532 140,45.5C 144.073,35.1811 150.24,26.3478 158.5,19C 166.329,14.9199 173.996,10.5865 181.5,6C 183.706,3.9633 185.706,1.79663 187.5,-0.5 Z"/></g>
<g><path style="opacity:1" fill="#fbfefe" d="M 198.5,-0.5 C 201.167,-0.5 203.833,-0.5 206.5,-0.5C 203.179,6.62317 198.512,12.7898 192.5,18C 184.5,22.6667 176.5,27.3333 168.5,32C 166,34.5 163.5,37 161,39.5C 156.273,51.1333 149.439,61.3 140.5,70C 132.5,74.6667 124.5,79.3333 116.5,84C 114.333,86.1667 112.167,88.3333 110,90.5C 105.333,98.5 100.667,106.5 96,114.5C 93.5,117 91,119.5 88.5,122C 80.5,126.667 72.5,131.333 64.5,136C 62.3333,138.167 60.1667,140.333 58,142.5C 53.3333,150.5 48.6667,158.5 44,166.5C 41.5,169 39,171.5 36.5,174C 28.5,178.667 20.5,183.333 12.5,188C 6.82049,192.571 2.48715,198.071 -0.5,204.5C -0.5,199.833 -0.5,195.167 -0.5,190.5C 2.63064,187.871 5.63064,185.038 8.5,182C 16.5366,177.328 24.5366,172.662 32.5,168C 35.7041,165.131 38.5374,161.965 41,158.5C 45.3997,147.524 51.8997,138.024 60.5,130C 68.5,125.333 76.5,120.667 84.5,116C 87.7041,113.131 90.5374,109.965 93,106.5C 97.3759,95.5927 103.876,86.0927 112.5,78C 120.537,73.3285 128.537,68.6618 136.5,64C 139.704,61.1312 142.537,57.9646 145,54.5C 149.4,43.5244 155.9,34.0244 164.5,26C 172.5,21.3333 180.5,16.6667 188.5,12C 192.683,8.44134 196.016,4.27467 198.5,-0.5 Z"/></g>
<g><path style="opacity:1" fill="#fcfefe" d="M 207.5,2.5 C 207.5,7.16667 207.5,11.8333 207.5,16.5C 204.369,19.1288 201.369,21.9621 198.5,25C 190.671,29.0801 183.004,33.4135 175.5,38C 173,40.5 170.5,43 168,45.5C 163.333,53.5 158.667,61.5 154,69.5C 151.5,72 149,74.5 146.5,77C 138.671,81.0801 131.004,85.4135 123.5,90C 114.561,98.7 107.727,108.867 103,120.5C 100.167,123.333 97.3333,126.167 94.5,129C 86.6712,133.08 79.0045,137.413 71.5,142C 62.5607,150.7 55.7274,160.867 51,172.5C 48.1667,175.333 45.3333,178.167 42.5,181C 34.6712,185.08 27.0045,189.413 19.5,194C 14.8633,197.794 11.1966,202.294 8.5,207.5C 5.83333,207.5 3.16667,207.5 0.5,207.5C 7.1947,193.644 17.8614,184.144 32.5,179C 37.252,176.252 41.4187,172.752 45,168.5C 49.5865,160.996 53.9199,153.329 58,145.5C 65.3478,137.24 74.1811,131.073 84.5,127C 89.252,124.252 93.4187,120.752 97,116.5C 101.587,108.996 105.92,101.329 110,93.5C 117.175,84.9966 126.009,78.83 136.5,75C 141.252,72.2523 145.419,68.7523 149,64.5C 153.587,56.9955 157.92,49.3288 162,41.5C 165.167,38.3333 168.333,35.1667 171.5,32C 182.62,27.3628 192.453,20.8628 201,12.5C 203.03,8.99145 205.196,5.65812 207.5,2.5 Z"/></g>
<g><path style="opacity:1" fill="#32a1d2" d="M 8.5,-0.5 C 9.16667,-0.5 9.83333,-0.5 10.5,-0.5C 7.57581,6.35979 3.90914,12.6931 -0.5,18.5C -0.5,17.1667 -0.5,15.8333 -0.5,14.5C 3.05223,9.86016 6.05223,4.86016 8.5,-0.5 Z"/></g>
<g><path style="opacity:1" fill="#2099d0" d="M 48.5,-0.5 C 49.8333,-0.5 51.1667,-0.5 52.5,-0.5C 38.3433,6.49745 28.51,17.4974 23,32.5C 17.4511,41.8846 9.61774,48.5513 -0.5,52.5C -0.5,51.8333 -0.5,51.1667 -0.5,50.5C 7.26365,47.2477 13.7636,42.2477 19,35.5C 23.0801,27.6712 27.4135,20.0045 32,12.5C 36.9337,7.30314 42.4337,2.9698 48.5,-0.5 Z"/></g>
<g><path style="opacity:1" fill="#219ace" d="M 80.5,-0.5 C 81.5,-0.5 82.5,-0.5 83.5,-0.5C 81.7059,1.79663 79.7059,3.9633 77.5,6C 69.9955,10.5865 62.3288,14.9199 54.5,19C 51.3333,22.1667 48.1667,25.3333 45,28.5C 40.3628,39.62 33.8628,49.4534 25.5,58C 16.6403,62.9263 7.97363,68.093 -0.5,73.5C -0.5,72.5 -0.5,71.5 -0.5,70.5C 7.11259,66.3581 14.7793,62.1914 22.5,58C 25.3333,55.1667 28.1667,52.3333 31,49.5C 35.6667,41.5 40.3333,33.5 45,25.5C 47.1667,23.3333 49.3333,21.1667 51.5,19C 59.5,14.3333 67.5,9.66667 75.5,5C 77.3734,3.29617 79.0401,1.46283 80.5,-0.5 Z"/></g>
<g><path style="opacity:1" fill="#299dd0" d="M 92.5,-0.5 C 93.1667,-0.5 93.8333,-0.5 94.5,-0.5C 92.0165,4.27467 88.6831,8.44134 84.5,12C 76.7958,17.185 68.7958,21.8517 60.5,26C 51.8878,34.0586 45.3878,43.5586 41,54.5C 38.5374,57.9646 35.7041,61.1312 32.5,64C 24.8281,69.1714 16.8281,73.838 8.5,78C 5.63064,81.0379 2.63064,83.8712 -0.5,86.5C -0.5,85.5 -0.5,84.5 -0.5,83.5C 2.66699,80.502 6.00033,77.6686 9.5,75C 20.4756,70.6003 29.9756,64.1003 38,55.5C 42.0801,47.6712 46.4135,40.0045 51,32.5C 60.0452,24.0562 70.2119,17.2228 81.5,12C 85.7475,8.25834 89.4141,4.09167 92.5,-0.5 Z"/></g>
<g><path style="opacity:1" fill="#269ccf" d="M 31.5,-0.5 C 32.5,-0.5 33.5,-0.5 34.5,-0.5C 31.8712,2.63064 29.0379,5.63064 26,8.5C 21.3333,16.5 16.6667,24.5 12,32.5C 8.44134,36.6831 4.27467,40.0165 -0.5,42.5C -0.5,41.8333 -0.5,41.1667 -0.5,40.5C 10.5066,32.6489 18.3399,22.3155 23,9.5C 25.6686,6.00033 28.502,2.66699 31.5,-0.5 Z"/></g>
<g><path style="opacity:1" fill="#239bcf" d="M 18.5,-0.5 C 19.5,-0.5 20.5,-0.5 21.5,-0.5C 16.093,7.97363 10.9263,16.6403 6,25.5C 3.9633,27.7059 1.79663,29.7059 -0.5,31.5C -0.5,30.5 -0.5,29.5 -0.5,28.5C 1.79663,26.7059 3.9633,24.7059 6,22.5C 10.1914,14.7793 14.3581,7.11259 18.5,-0.5 Z"/></g>
<g><path style="opacity:1" fill="#fbfefe" d="M 207.5,19.5 C 207.5,22.8333 207.5,26.1667 207.5,29.5C 199.522,34.8266 191.188,39.66 182.5,44C 180,46.5 177.5,49 175,51.5C 170.333,59.5 165.667,67.5 161,75.5C 158.5,78 156,80.5 153.5,83C 145.5,87.6667 137.5,92.3333 129.5,97C 127.333,99.1667 125.167,101.333 123,103.5C 118.333,111.5 113.667,119.5 109,127.5C 106.5,130 104,132.5 101.5,135C 93.5,139.667 85.5,144.333 77.5,149C 75.3333,151.167 73.1667,153.333 71,155.5C 66.3333,163.5 61.6667,171.5 57,179.5C 54.5,182 52,184.5 49.5,187C 41.5,191.667 33.5,196.333 25.5,201C 23.2941,203.037 21.2941,205.203 19.5,207.5C 16.5,207.5 13.5,207.5 10.5,207.5C 13.5859,202.908 17.2525,198.742 21.5,195C 28.1667,191.333 34.8333,187.667 41.5,184C 44.9646,181.537 48.1312,178.704 51,175.5C 55.6667,167.5 60.3333,159.5 65,151.5C 73.0586,142.888 82.5586,136.388 93.5,132C 97.2988,129.203 100.799,126.036 104,122.5C 108.587,114.996 112.92,107.329 117,99.5C 125.024,90.8997 134.524,84.3997 145.5,80C 148.965,77.5374 152.131,74.7041 155,71.5C 159.662,63.5366 164.328,55.5366 169,47.5C 177.024,38.8997 186.524,32.3997 197.5,28C 201,25.3314 204.333,22.498 207.5,19.5 Z"/></g>
<g><path style="opacity:1" fill="#299dd0" d="M 112.5,-0.5 C 113.167,-0.5 113.833,-0.5 114.5,-0.5C 110.365,9.60304 104.365,18.4364 96.5,26C 88.9635,30.6005 81.2968,34.9339 73.5,39C 64.8878,47.0586 58.3878,56.5586 54,67.5C 51.2031,71.2988 48.0364,74.7988 44.5,78C 36.6712,82.0801 29.0045,86.4135 21.5,91C 18.6667,93.8333 15.8333,96.6667 13,99.5C 8.97788,107.559 4.47788,115.225 -0.5,122.5C -0.5,121.167 -0.5,119.833 -0.5,118.5C 3.64056,111.563 7.80722,104.563 12,97.5C 14.5,95 17,92.5 19.5,90C 27.1467,85.6994 34.8133,81.366 42.5,77C 45.3333,74.1667 48.1667,71.3333 51,68.5C 55.0801,60.6712 59.4135,53.0045 64,45.5C 66.5,43 69,40.5 71.5,38C 79.0365,33.3995 86.7032,29.0661 94.5,25C 102.6,17.9615 108.6,9.46149 112.5,-0.5 Z"/></g>
<g><path style="opacity:1" fill="#2b9ed0" d="M 66.5,-0.5 C 67.8333,-0.5 69.1667,-0.5 70.5,-0.5C 63.0027,4.13657 55.336,8.63657 47.5,13C 44.6667,15.8333 41.8333,18.6667 39,21.5C 34.7046,29.723 30.038,37.723 25,45.5C 17.5896,52.7894 9.08957,58.4561 -0.5,62.5C -0.5,61.8333 -0.5,61.1667 -0.5,60.5C 5.13945,57.3454 10.8061,54.1788 16.5,51C 25.1122,42.9414 31.6122,33.4414 36,22.5C 38.4626,19.0354 41.2959,15.8688 44.5,13C 51.9534,8.58493 59.2867,4.08493 66.5,-0.5 Z"/></g>
<g><path style="opacity:1" fill="#fcfefe" d="M 207.5,32.5 C 207.5,35.1667 207.5,37.8333 207.5,40.5C 197.397,44.6345 188.564,50.6345 181,58.5C 176.413,66.0045 172.08,73.6712 168,81.5C 165.167,84.3333 162.333,87.1667 159.5,90C 147.867,94.7274 137.7,101.561 129,110.5C 124.413,118.004 120.08,125.671 116,133.5C 113.167,136.333 110.333,139.167 107.5,142C 99.6712,146.08 92.0045,150.413 84.5,155C 82,157.5 79.5,160 77,162.5C 72.4135,170.004 68.0801,177.671 64,185.5C 61.1667,188.333 58.3333,191.167 55.5,194C 47.4413,198.022 39.7747,202.522 32.5,207.5C 29.1667,207.5 25.8333,207.5 22.5,207.5C 28.7182,200.376 36.3849,195.209 45.5,192C 50.252,189.252 54.4187,185.752 58,181.5C 62.5865,173.996 66.9199,166.329 71,158.5C 78.1753,149.997 87.0086,143.83 97.5,140C 102.252,137.252 106.419,133.752 110,129.5C 114.587,121.996 118.92,114.329 123,106.5C 130.175,97.9966 139.009,91.83 149.5,88C 154.252,85.2523 158.419,81.7523 162,77.5C 166.587,69.9955 170.92,62.3288 175,54.5C 178.167,51.3333 181.333,48.1667 184.5,45C 192.221,40.8086 199.887,36.6419 207.5,32.5 Z"/></g>
<g><path style="opacity:1" fill="#289dcf" d="M 207.5,40.5 C 207.5,41.1667 207.5,41.8333 207.5,42.5C 189.761,49.7406 177.594,62.4073 171,80.5C 168.537,83.9646 165.704,87.1312 162.5,90C 154.828,95.1714 146.828,99.838 138.5,104C 129.888,112.059 123.388,121.559 119,132.5C 116.537,135.965 113.704,139.131 110.5,142C 102.5,146.667 94.5,151.333 86.5,156C 77.8997,164.024 71.3997,173.524 67,184.5C 64.5374,187.965 61.7041,191.131 58.5,194C 50.9357,198.274 43.6024,202.774 36.5,207.5C 35.1667,207.5 33.8333,207.5 32.5,207.5C 39.7747,202.522 47.4413,198.022 55.5,194C 58.3333,191.167 61.1667,188.333 64,185.5C 68.0801,177.671 72.4135,170.004 77,162.5C 79.5,160 82,157.5 84.5,155C 92.0045,150.413 99.6712,146.08 107.5,142C 110.333,139.167 113.167,136.333 116,133.5C 120.08,125.671 124.413,118.004 129,110.5C 137.7,101.561 147.867,94.7274 159.5,90C 162.333,87.1667 165.167,84.3333 168,81.5C 172.08,73.6712 176.413,66.0045 181,58.5C 188.564,50.6345 197.397,44.6345 207.5,40.5 Z"/></g>
<g><path style="opacity:1" fill="#fafefe" d="M 207.5,42.5 C 207.5,45.1667 207.5,47.8333 207.5,50.5C 199.703,54.1227 192.87,59.1227 187,65.5C 182.92,73.3288 178.587,80.9955 174,88.5C 171.5,91 169,93.5 166.5,96C 158.5,100.667 150.5,105.333 142.5,110C 140,112.5 137.5,115 135,117.5C 130.273,129.133 123.439,139.3 114.5,148C 106.5,152.667 98.5,157.333 90.5,162C 88,164.5 85.5,167 83,169.5C 78.9199,177.329 74.5865,184.996 70,192.5C 64.2424,198.61 57.7424,203.61 50.5,207.5C 45.8333,207.5 41.1667,207.5 36.5,207.5C 43.6024,202.774 50.9357,198.274 58.5,194C 61.7041,191.131 64.5374,187.965 67,184.5C 71.3997,173.524 77.8997,164.024 86.5,156C 94.5,151.333 102.5,146.667 110.5,142C 113.704,139.131 116.537,135.965 119,132.5C 123.388,121.559 129.888,112.059 138.5,104C 146.828,99.838 154.828,95.1714 162.5,90C 165.704,87.1312 168.537,83.9646 171,80.5C 177.594,62.4073 189.761,49.7406 207.5,42.5 Z"/></g>
<g><path style="opacity:1" fill="#2a9ed0" d="M 170.5,-0.5 C 171.833,-0.5 173.167,-0.5 174.5,-0.5C 167.225,4.47788 159.559,8.97788 151.5,13C 148.667,15.8333 145.833,18.6667 143,21.5C 138.92,29.3288 134.587,36.9955 130,44.5C 127.5,47 125,49.5 122.5,52C 114.853,56.3006 107.187,60.634 99.5,65C 96.6667,67.8333 93.8333,70.6667 91,73.5C 86.8517,81.7958 82.185,89.7958 77,97.5C 74.1312,100.704 70.9646,103.537 67.5,106C 56.5586,110.388 47.0586,116.888 39,125.5C 34.838,133.828 30.1714,141.828 25,149.5C 17.5558,156.802 9.05581,162.468 -0.5,166.5C -0.5,165.833 -0.5,165.167 -0.5,164.5C 9.46149,160.6 17.9615,154.6 25,146.5C 29.0801,138.671 33.4135,131.004 38,123.5C 40.5,121 43,118.5 45.5,116C 53.0045,111.413 60.6712,107.08 68.5,103C 71.3333,100.167 74.1667,97.3333 77,94.5C 81.0801,86.6712 85.4135,79.0045 90,71.5C 92.5,69 95,66.5 97.5,64C 105.004,59.4135 112.671,55.0801 120.5,51C 123.333,48.1667 126.167,45.3333 129,42.5C 133.08,34.6712 137.413,27.0045 142,19.5C 144.5,17 147,14.5 149.5,12C 156.563,7.80722 163.563,3.64056 170.5,-0.5 Z"/></g>
<g><path style="opacity:1" fill="#fcfefe" d="M 207.5,52.5 C 207.5,55.1667 207.5,57.8333 207.5,60.5C 202.294,63.1966 197.794,66.8633 194,71.5C 189.826,77.8455 186.159,84.5122 183,91.5C 179.869,95.6328 176.369,99.4662 172.5,103C 164.671,107.08 157.004,111.413 149.5,116C 147,118.5 144.5,121 142,123.5C 137.413,131.004 133.08,138.671 129,146.5C 126.167,149.333 123.333,152.167 120.5,155C 112.671,159.08 105.004,163.413 97.5,168C 89.3749,175.802 83.2082,184.969 79,195.5C 75.6638,199.668 72.1638,203.668 68.5,207.5C 63.8333,207.5 59.1667,207.5 54.5,207.5C 60.5663,204.03 66.0663,199.697 71,194.5C 75.5865,186.996 79.9199,179.329 84,171.5C 87.1667,168.333 90.3333,165.167 93.5,162C 101.329,157.92 108.996,153.587 116.5,149C 124.863,140.453 131.363,130.62 136,119.5C 139.167,116.333 142.333,113.167 145.5,110C 153.329,105.92 160.996,101.587 168.5,97C 176.863,88.4534 183.363,78.62 188,67.5C 193.236,60.7523 199.736,55.7523 207.5,52.5 Z"/></g>
<g><path style="opacity:1" fill="#229bcf" d="M 184.5,-0.5 C 185.5,-0.5 186.5,-0.5 187.5,-0.5C 185.706,1.79663 183.706,3.9633 181.5,6C 173.996,10.5865 166.329,14.9199 158.5,19C 150.24,26.3478 144.073,35.1811 140,45.5C 132.499,56.6532 122.332,64.4865 109.5,69C 105.033,72.4651 100.867,76.2984 97,80.5C 92.3628,91.62 85.8628,101.453 77.5,110C 69.9955,114.587 62.3288,118.92 54.5,123C 51.3333,126.167 48.1667,129.333 45,132.5C 40.3628,143.62 33.8628,153.453 25.5,162C 16.6403,166.926 7.97363,172.093 -0.5,177.5C -0.5,176.5 -0.5,175.5 -0.5,174.5C 11.4049,169.629 21.9049,162.629 31,153.5C 35.6667,145.5 40.3333,137.5 45,129.5C 47.1667,127.333 49.3333,125.167 51.5,123C 59.5,118.333 67.5,113.667 75.5,109C 78,106.5 80.5,104 83,101.5C 87.6667,93.5 92.3333,85.5 97,77.5C 99.1667,75.3333 101.333,73.1667 103.5,71C 111.5,66.3333 119.5,61.6667 127.5,57C 136.439,48.3 143.273,38.1333 148,26.5C 156.7,17.5607 166.867,10.7274 178.5,6C 180.706,3.9633 182.706,1.79663 184.5,-0.5 Z"/></g>
<g><path style="opacity:1" fill="#219acf" d="M 102.5,-0.5 C 103.167,-0.5 103.833,-0.5 104.5,-0.5C 102.517,4.13267 100.017,8.466 97,12.5C 88.4534,20.8628 78.62,27.3628 67.5,32C 64.3333,35.1667 61.1667,38.3333 58,41.5C 53.3628,52.62 46.8628,62.4534 38.5,71C 30.9955,75.5865 23.3288,79.9199 15.5,84C 12.3333,87.1667 9.16667,90.3333 6,93.5C 3.80704,97.2299 1.64038,100.897 -0.5,104.5C -0.5,103.167 -0.5,101.833 -0.5,100.5C 1.80364,97.3419 3.9703,94.0085 6,90.5C 14.5466,82.1372 24.38,75.6372 35.5,71C 38.3333,68.1667 41.1667,65.3333 44,62.5C 48.6667,54.5 53.3333,46.5 58,38.5C 61.5813,34.2477 65.748,30.7477 70.5,28C 85.1386,22.8562 95.8053,13.3562 102.5,-0.5 Z"/></g>
<g><path style="opacity:1" fill="#fbfefe" d="M 207.5,62.5 C 207.5,65.5 207.5,68.5 207.5,71.5C 205.203,73.2941 203.037,75.2941 201,77.5C 196.333,85.5 191.667,93.5 187,101.5C 179.198,109.625 170.031,115.792 159.5,120C 155.367,123.131 151.534,126.631 148,130.5C 143.273,142.133 136.439,152.3 127.5,161C 119.5,165.667 111.5,170.333 103.5,175C 101,177.5 98.5,180 96,182.5C 91.66,191.188 86.8266,199.522 81.5,207.5C 78.1667,207.5 74.8333,207.5 71.5,207.5C 79.2467,198.348 85.7467,188.348 91,177.5C 93.8333,174.667 96.6667,171.833 99.5,169C 107.5,164.333 115.5,159.667 123.5,155C 126.704,152.131 129.537,148.965 132,145.5C 136.4,134.524 142.9,125.024 151.5,117C 159.5,112.333 167.5,107.667 175.5,103C 178.704,100.131 181.537,96.9646 184,93.5C 188.66,80.6845 196.493,70.3511 207.5,62.5 Z"/></g>
<g><path style="opacity:1" fill="#2a9dd0" d="M 196.5,-0.5 C 197.167,-0.5 197.833,-0.5 198.5,-0.5C 196.016,4.27467 192.683,8.44134 188.5,12C 180.5,16.6667 172.5,21.3333 164.5,26C 155.9,34.0244 149.4,43.5244 145,54.5C 142.537,57.9646 139.704,61.1312 136.5,64C 128.537,68.6618 120.537,73.3285 112.5,78C 103.876,86.0927 97.3759,95.5927 93,106.5C 90.5374,109.965 87.7041,113.131 84.5,116C 76.5,120.667 68.5,125.333 60.5,130C 51.8997,138.024 45.3997,147.524 41,158.5C 38.5374,161.965 35.7041,165.131 32.5,168C 24.5366,172.662 16.5366,177.328 8.5,182C 5.63064,185.038 2.63064,187.871 -0.5,190.5C -0.5,189.5 -0.5,188.5 -0.5,187.5C 3.38013,183.455 7.71347,179.955 12.5,177C 22.6487,173.51 31.1487,167.676 38,159.5C 42.0801,151.671 46.4135,144.004 51,136.5C 53.5,134 56,131.5 58.5,129C 66.0045,124.413 73.6712,120.08 81.5,116C 84.3333,113.167 87.1667,110.333 90,107.5C 94.0801,99.6712 98.4135,92.0045 103,84.5C 111.7,75.5607 121.867,68.7274 133.5,64C 136.333,61.1667 139.167,58.3333 142,55.5C 146.08,47.6712 150.413,40.0045 155,32.5C 157.5,30 160,27.5 162.5,25C 170.147,20.6994 177.813,16.366 185.5,12C 189.747,8.25834 193.414,4.09167 196.5,-0.5 Z"/></g>
<g><path style="opacity:1" fill="#229bcf" d="M 207.5,29.5 C 207.5,30.5 207.5,31.5 207.5,32.5C 199.887,36.6419 192.221,40.8086 184.5,45C 181.333,48.1667 178.167,51.3333 175,54.5C 170.92,62.3288 166.587,69.9955 162,77.5C 158.419,81.7523 154.252,85.2523 149.5,88C 139.009,91.83 130.175,97.9966 123,106.5C 118.92,114.329 114.587,121.996 110,129.5C 106.419,133.752 102.252,137.252 97.5,140C 87.0086,143.83 78.1753,149.997 71,158.5C 66.9199,166.329 62.5865,173.996 58,181.5C 54.4187,185.752 50.252,189.252 45.5,192C 36.3849,195.209 28.7182,200.376 22.5,207.5C 21.5,207.5 20.5,207.5 19.5,207.5C 21.2941,205.203 23.2941,203.037 25.5,201C 33.5,196.333 41.5,191.667 49.5,187C 52,184.5 54.5,182 57,179.5C 61.6667,171.5 66.3333,163.5 71,155.5C 73.1667,153.333 75.3333,151.167 77.5,149C 85.5,144.333 93.5,139.667 101.5,135C 104,132.5 106.5,130 109,127.5C 113.667,119.5 118.333,111.5 123,103.5C 125.167,101.333 127.333,99.1667 129.5,97C 137.5,92.3333 145.5,87.6667 153.5,83C 156,80.5 158.5,78 161,75.5C 165.667,67.5 170.333,59.5 175,51.5C 177.5,49 180,46.5 182.5,44C 191.188,39.66 199.522,34.8266 207.5,29.5 Z"/></g>
<g><path style="opacity:1" fill="#fcfefe" d="M 207.5,74.5 C 207.5,77.8333 207.5,81.1667 207.5,84.5C 202.441,92.2703 197.608,100.27 193,108.5C 190.5,111 188,113.5 185.5,116C 177.671,120.08 170.004,124.413 162.5,129C 160,131.5 157.5,134 155,136.5C 150.333,144.5 145.667,152.5 141,160.5C 138.5,163 136,165.5 133.5,168C 125.671,172.08 118.004,176.413 110.5,181C 102.635,188.564 96.6345,197.397 92.5,207.5C 89.8333,207.5 87.1667,207.5 84.5,207.5C 89.4616,195.082 96.795,184.248 106.5,175C 114.329,170.92 121.996,166.587 129.5,162C 137.863,153.453 144.363,143.62 149,132.5C 152.167,129.333 155.333,126.167 158.5,123C 166.329,118.92 173.996,114.587 181.5,110C 189.863,101.453 196.363,91.62 201,80.5C 203.037,78.2941 205.203,76.2941 207.5,74.5 Z"/></g>
<g><path style="opacity:1" fill="#219bce" d="M 122.5,-0.5 C 123.5,-0.5 124.5,-0.5 125.5,-0.5C 120.093,7.97363 114.926,16.6403 110,25.5C 107.833,27.6667 105.667,29.8333 103.5,32C 95.5,36.6667 87.5,41.3333 79.5,46C 76.6667,48.8333 73.8333,51.6667 71,54.5C 66.9199,62.3288 62.5865,69.9955 58,77.5C 54.4187,81.7523 50.252,85.2523 45.5,88C 35.0086,91.83 26.1753,97.9966 19,106.5C 14.9199,114.329 10.5865,121.996 6,129.5C 3.9633,131.706 1.79663,133.706 -0.5,135.5C -0.5,134.5 -0.5,133.5 -0.5,132.5C 2.83248,130 5.66581,127 8,123.5C 11.8696,113.311 17.703,104.477 25.5,97C 33.5,92.3333 41.5,87.6667 49.5,83C 52,80.5 54.5,78 57,75.5C 61.6667,67.5 66.3333,59.5 71,51.5C 73.1667,49.3333 75.3333,47.1667 77.5,45C 85.5,40.3333 93.5,35.6667 101.5,31C 110.629,21.9049 117.629,11.4049 122.5,-0.5 Z"/></g>
<g><path style="opacity:1" fill="#fafdfe" d="M 207.5,88.5 C 207.5,93.1667 207.5,97.8333 207.5,102.5C 203.61,109.742 198.61,116.242 192.5,122C 184.5,126.667 176.5,131.333 168.5,136C 166,138.5 163.5,141 161,143.5C 156.273,155.133 149.439,165.3 140.5,174C 132.996,178.587 125.329,182.92 117.5,187C 110.657,192.532 105.657,199.366 102.5,207.5C 99.8333,207.5 97.1667,207.5 94.5,207.5C 101.766,189.735 114.433,177.568 132.5,171C 135.965,168.537 139.131,165.704 142,162.5C 146.699,154.48 151.366,146.48 156,138.5C 164.059,129.888 173.559,123.388 184.5,119C 187.965,116.537 191.131,113.704 194,110.5C 198.287,102.903 202.787,95.5697 207.5,88.5 Z"/></g>
<g><path style="opacity:1" fill="#229bcf" d="M 152.5,-0.5 C 153.833,-0.5 155.167,-0.5 156.5,-0.5C 152.897,1.64038 149.23,3.80704 145.5,6C 142.333,9.16667 139.167,12.3333 136,15.5C 131.363,26.62 124.863,36.4534 116.5,45C 108.996,49.5865 101.329,53.9199 93.5,58C 90.3333,61.1667 87.1667,64.3333 84,67.5C 79.3628,78.62 72.8628,88.4534 64.5,97C 56.9955,101.587 49.3288,105.92 41.5,110C 38.6667,112.833 35.8333,115.667 33,118.5C 28.3333,126.5 23.6667,134.5 19,142.5C 13.4577,148.549 6.95765,153.215 -0.5,156.5C -0.5,155.833 -0.5,155.167 -0.5,154.5C 2.94324,152.896 6.27657,151.062 9.5,149C 19.0117,140.146 26.1783,129.646 31,117.5C 33.5,115 36,112.5 38.5,110C 46.5,105.333 54.5,100.667 62.5,96C 65.3333,93.1667 68.1667,90.3333 71,87.5C 75.6372,76.38 82.1372,66.5466 90.5,58C 98.5,53.3333 106.5,48.6667 114.5,44C 123.439,35.3 130.273,25.1333 135,13.5C 140.082,7.7322 145.916,3.06554 152.5,-0.5 Z"/></g>
<g><path style="opacity:1" fill="#239bcf" d="M 206.5,-0.5 C 206.833,-0.5 207.167,-0.5 207.5,-0.5C 207.5,0.5 207.5,1.5 207.5,2.5C 205.196,5.65812 203.03,8.99145 201,12.5C 192.453,20.8628 182.62,27.3628 171.5,32C 168.333,35.1667 165.167,38.3333 162,41.5C 157.92,49.3288 153.587,56.9955 149,64.5C 145.419,68.7523 141.252,72.2523 136.5,75C 126.009,78.83 117.175,84.9966 110,93.5C 105.92,101.329 101.587,108.996 97,116.5C 93.4187,120.752 89.252,124.252 84.5,127C 74.1811,131.073 65.3478,137.24 58,145.5C 53.9199,153.329 49.5865,160.996 45,168.5C 41.4187,172.752 37.252,176.252 32.5,179C 17.8614,184.144 7.1947,193.644 0.5,207.5C 0.166667,207.5 -0.166667,207.5 -0.5,207.5C -0.5,206.5 -0.5,205.5 -0.5,204.5C 2.48715,198.071 6.82049,192.571 12.5,188C 20.5,183.333 28.5,178.667 36.5,174C 39,171.5 41.5,169 44,166.5C 48.6667,158.5 53.3333,150.5 58,142.5C 60.1667,140.333 62.3333,138.167 64.5,136C 72.5,131.333 80.5,126.667 88.5,122C 91,119.5 93.5,117 96,114.5C 100.667,106.5 105.333,98.5 110,90.5C 112.167,88.3333 114.333,86.1667 116.5,84C 124.5,79.3333 132.5,74.6667 140.5,70C 149.439,61.3 156.273,51.1333 161,39.5C 163.5,37 166,34.5 168.5,32C 176.5,27.3333 184.5,22.6667 192.5,18C 198.512,12.7898 203.179,6.62317 206.5,-0.5 Z"/></g>
<g><path style="opacity:1" fill="#fcfefe" d="M 207.5,106.5 C 207.5,111.167 207.5,115.833 207.5,120.5C 204.369,123.129 201.369,125.962 198.5,129C 190.671,133.08 183.004,137.413 175.5,142C 171.964,145.201 168.797,148.701 166,152.5C 161.6,163.476 155.1,172.976 146.5,181C 138.671,185.08 131.004,189.413 123.5,194C 118.863,197.794 115.197,202.294 112.5,207.5C 109.833,207.5 107.167,207.5 104.5,207.5C 111.195,193.644 121.861,184.144 136.5,179C 141.129,176.095 145.296,172.595 149,168.5C 153.587,160.996 157.92,153.329 162,145.5C 165.167,142.333 168.333,139.167 171.5,136C 182.62,131.363 192.453,124.863 201,116.5C 203.03,112.991 205.196,109.658 207.5,106.5 Z"/></g>
<g><path style="opacity:1" fill="#2a9ecf" d="M 207.5,60.5 C 207.5,61.1667 207.5,61.8333 207.5,62.5C 196.493,70.3511 188.66,80.6845 184,93.5C 181.537,96.9646 178.704,100.131 175.5,103C 167.5,107.667 159.5,112.333 151.5,117C 142.9,125.024 136.4,134.524 132,145.5C 129.537,148.965 126.704,152.131 123.5,155C 115.5,159.667 107.5,164.333 99.5,169C 96.6667,171.833 93.8333,174.667 91,177.5C 85.7467,188.348 79.2467,198.348 71.5,207.5C 70.5,207.5 69.5,207.5 68.5,207.5C 72.1638,203.668 75.6638,199.668 79,195.5C 83.2082,184.969 89.3749,175.802 97.5,168C 105.004,163.413 112.671,159.08 120.5,155C 123.333,152.167 126.167,149.333 129,146.5C 133.08,138.671 137.413,131.004 142,123.5C 144.5,121 147,118.5 149.5,116C 157.004,111.413 164.671,107.08 172.5,103C 176.369,99.4662 179.869,95.6328 183,91.5C 186.159,84.5122 189.826,77.8455 194,71.5C 197.794,66.8633 202.294,63.1966 207.5,60.5 Z"/></g>
<g><path style="opacity:1" fill="#299dd0" d="M 135.5,-0.5 C 136.5,-0.5 137.5,-0.5 138.5,-0.5C 135.871,2.63064 133.038,5.63064 130,8.5C 125.852,16.7958 121.185,24.7958 116,32.5C 113.131,35.7041 109.965,38.5374 106.5,41C 95.5927,45.3759 86.0927,51.8759 78,60.5C 73.3656,68.4799 68.6989,76.4799 64,84.5C 61.1312,87.7041 57.9646,90.5374 54.5,93C 43.5244,97.3997 34.0244,103.9 26,112.5C 21.3285,120.537 16.6618,128.537 12,136.5C 8.44134,140.683 4.27467,144.016 -0.5,146.5C -0.5,145.833 -0.5,145.167 -0.5,144.5C 4.09167,141.414 8.25834,137.747 12,133.5C 16.0801,125.671 20.4135,118.004 25,110.5C 27.5,108 30,105.5 32.5,103C 40.0045,98.4135 47.6712,94.0801 55.5,90C 58.3333,87.1667 61.1667,84.3333 64,81.5C 68.0801,73.6712 72.4135,66.0045 77,58.5C 79.5,56 82,53.5 84.5,51C 92.0045,46.4135 99.6712,42.0801 107.5,38C 110.333,35.1667 113.167,32.3333 116,29.5C 121.148,18.5385 127.648,8.53846 135.5,-0.5 Z"/></g>
<g><path style="opacity:1" fill="#fbfefe" d="M 207.5,123.5 C 207.5,126.833 207.5,130.167 207.5,133.5C 199.026,138.907 190.36,144.074 181.5,149C 179.333,151.167 177.167,153.333 175,155.5C 170.333,163.5 165.667,171.5 161,179.5C 158.5,182 156,184.5 153.5,187C 145.5,191.667 137.5,196.333 129.5,201C 127.294,203.037 125.294,205.203 123.5,207.5C 120.5,207.5 117.5,207.5 114.5,207.5C 122.351,196.493 132.684,188.66 145.5,184C 149.299,181.203 152.799,178.036 156,174.5C 160.333,166.833 164.667,159.167 169,151.5C 177.024,142.9 186.524,136.4 197.5,132C 201,129.331 204.333,126.498 207.5,123.5 Z"/></g>
<g><path style="opacity:1" fill="#fcfefe" d="M 207.5,136.5 C 207.5,139.167 207.5,141.833 207.5,144.5C 197.397,148.635 188.564,154.635 181,162.5C 176.413,170.004 172.08,177.671 168,185.5C 165.167,188.333 162.333,191.167 159.5,194C 151.441,198.022 143.775,202.522 136.5,207.5C 133.167,207.5 129.833,207.5 126.5,207.5C 132.718,200.376 140.385,195.209 149.5,192C 154.252,189.252 158.419,185.752 162,181.5C 166.587,173.996 170.92,166.329 175,158.5C 184.248,148.795 195.082,141.462 207.5,136.5 Z"/></g>
<g><path style="opacity:1" fill="#2a9dd0" d="M 207.5,16.5 C 207.5,17.5 207.5,18.5 207.5,19.5C 204.333,22.498 201,25.3314 197.5,28C 186.524,32.3997 177.024,38.8997 169,47.5C 164.328,55.5366 159.662,63.5366 155,71.5C 152.131,74.7041 148.965,77.5374 145.5,80C 134.524,84.3997 125.024,90.8997 117,99.5C 112.92,107.329 108.587,114.996 104,122.5C 100.799,126.036 97.2988,129.203 93.5,132C 82.5586,136.388 73.0586,142.888 65,151.5C 60.3333,159.5 55.6667,167.5 51,175.5C 48.1312,178.704 44.9646,181.537 41.5,184C 34.8333,187.667 28.1667,191.333 21.5,195C 17.2525,198.742 13.5859,202.908 10.5,207.5C 9.83333,207.5 9.16667,207.5 8.5,207.5C 11.1966,202.294 14.8633,197.794 19.5,194C 27.0045,189.413 34.6712,185.08 42.5,181C 45.3333,178.167 48.1667,175.333 51,172.5C 55.7274,160.867 62.5607,150.7 71.5,142C 79.0045,137.413 86.6712,133.08 94.5,129C 97.3333,126.167 100.167,123.333 103,120.5C 107.727,108.867 114.561,98.7 123.5,90C 131.004,85.4135 138.671,81.0801 146.5,77C 149,74.5 151.5,72 154,69.5C 158.667,61.5 163.333,53.5 168,45.5C 170.5,43 173,40.5 175.5,38C 183.004,33.4135 190.671,29.0801 198.5,25C 201.369,21.9621 204.369,19.1288 207.5,16.5 Z"/></g>
<g><path style="opacity:1" fill="#219acd" d="M 207.5,133.5 C 207.5,134.5 207.5,135.5 207.5,136.5C 195.082,141.462 184.248,148.795 175,158.5C 170.92,166.329 166.587,173.996 162,181.5C 158.419,185.752 154.252,189.252 149.5,192C 140.385,195.209 132.718,200.376 126.5,207.5C 125.5,207.5 124.5,207.5 123.5,207.5C 125.294,205.203 127.294,203.037 129.5,201C 137.5,196.333 145.5,191.667 153.5,187C 156,184.5 158.5,182 161,179.5C 165.667,171.5 170.333,163.5 175,155.5C 177.167,153.333 179.333,151.167 181.5,149C 190.36,144.074 199.026,138.907 207.5,133.5 Z"/></g>
<g><path style="opacity:1" fill="#fafefe" d="M 207.5,146.5 C 207.5,149.167 207.5,151.833 207.5,154.5C 200.042,157.785 193.542,162.451 188,168.5C 183.333,176.5 178.667,184.5 174,192.5C 168.242,198.61 161.742,203.61 154.5,207.5C 149.833,207.5 145.167,207.5 140.5,207.5C 147.937,203.276 155.27,198.776 162.5,194C 165.704,191.131 168.537,187.965 171,184.5C 177.646,166.357 189.813,153.69 207.5,146.5 Z"/></g>
<g><path style="opacity:1" fill="#fcfefe" d="M 207.5,156.5 C 207.5,159.167 207.5,161.833 207.5,164.5C 202.294,167.197 197.794,170.863 194,175.5C 189.699,183.147 185.366,190.813 181,198.5C 177.962,201.369 175.129,204.369 172.5,207.5C 167.833,207.5 163.167,207.5 158.5,207.5C 164.566,204.03 170.066,199.697 175,194.5C 179.587,186.996 183.92,179.329 188,171.5C 193.236,164.752 199.736,159.752 207.5,156.5 Z"/></g>
<g><path style="opacity:1" fill="#2a9ed0" d="M 207.5,120.5 C 207.5,121.5 207.5,122.5 207.5,123.5C 204.333,126.498 201,129.331 197.5,132C 186.524,136.4 177.024,142.9 169,151.5C 164.667,159.167 160.333,166.833 156,174.5C 152.799,178.036 149.299,181.203 145.5,184C 132.684,188.66 122.351,196.493 114.5,207.5C 113.833,207.5 113.167,207.5 112.5,207.5C 115.197,202.294 118.863,197.794 123.5,194C 131.004,189.413 138.671,185.08 146.5,181C 155.1,172.976 161.6,163.476 166,152.5C 168.797,148.701 171.964,145.201 175.5,142C 183.004,137.413 190.671,133.08 198.5,129C 201.369,125.962 204.369,123.129 207.5,120.5 Z"/></g>
<g><path style="opacity:1" fill="#289dd0" d="M 207.5,84.5 C 207.5,85.8333 207.5,87.1667 207.5,88.5C 202.787,95.5697 198.287,102.903 194,110.5C 191.131,113.704 187.965,116.537 184.5,119C 173.559,123.388 164.059,129.888 156,138.5C 151.366,146.48 146.699,154.48 142,162.5C 139.131,165.704 135.965,168.537 132.5,171C 114.433,177.568 101.766,189.735 94.5,207.5C 93.8333,207.5 93.1667,207.5 92.5,207.5C 96.6345,197.397 102.635,188.564 110.5,181C 118.004,176.413 125.671,172.08 133.5,168C 136,165.5 138.5,163 141,160.5C 145.667,152.5 150.333,144.5 155,136.5C 157.5,134 160,131.5 162.5,129C 170.004,124.413 177.671,120.08 185.5,116C 188,113.5 190.5,111 193,108.5C 197.608,100.27 202.441,92.2703 207.5,84.5 Z"/></g>
<g><path style="opacity:1" fill="#fcfefe" d="M 207.5,166.5 C 207.5,169.5 207.5,172.5 207.5,175.5C 205.203,177.294 203.037,179.294 201,181.5C 196.074,190.36 190.907,199.026 185.5,207.5C 182.167,207.5 178.833,207.5 175.5,207.5C 183.352,198.462 189.852,188.462 195,177.5C 198.742,173.253 202.908,169.586 207.5,166.5 Z"/></g>
<g><path style="opacity:1" fill="#2099ce" d="M 207.5,154.5 C 207.5,155.167 207.5,155.833 207.5,156.5C 199.736,159.752 193.236,164.752 188,171.5C 183.92,179.329 179.587,186.996 175,194.5C 170.066,199.697 164.566,204.03 158.5,207.5C 157.167,207.5 155.833,207.5 154.5,207.5C 161.742,203.61 168.242,198.61 174,192.5C 178.667,184.5 183.333,176.5 188,168.5C 193.542,162.451 200.042,157.785 207.5,154.5 Z"/></g>
<g><path style="opacity:1" fill="#279dd0" d="M 207.5,164.5 C 207.5,165.167 207.5,165.833 207.5,166.5C 202.908,169.586 198.742,173.253 195,177.5C 189.852,188.462 183.352,198.462 175.5,207.5C 174.5,207.5 173.5,207.5 172.5,207.5C 175.129,204.369 177.962,201.369 181,198.5C 185.366,190.813 189.699,183.147 194,175.5C 197.794,170.863 202.294,167.197 207.5,164.5 Z"/></g>
<g><path style="opacity:1" fill="#259ccf" d="M 207.5,102.5 C 207.5,103.833 207.5,105.167 207.5,106.5C 205.196,109.658 203.03,112.991 201,116.5C 192.453,124.863 182.62,131.363 171.5,136C 168.333,139.167 165.167,142.333 162,145.5C 157.92,153.329 153.587,160.996 149,168.5C 145.296,172.595 141.129,176.095 136.5,179C 121.861,184.144 111.195,193.644 104.5,207.5C 103.833,207.5 103.167,207.5 102.5,207.5C 105.657,199.366 110.657,192.532 117.5,187C 125.329,182.92 132.996,178.587 140.5,174C 149.439,165.3 156.273,155.133 161,143.5C 163.5,141 166,138.5 168.5,136C 176.5,131.333 184.5,126.667 192.5,122C 198.61,116.242 203.61,109.742 207.5,102.5 Z"/></g>
<g><path style="opacity:1" fill="#249ccf" d="M 207.5,50.5 C 207.5,51.1667 207.5,51.8333 207.5,52.5C 199.736,55.7523 193.236,60.7523 188,67.5C 183.363,78.62 176.863,88.4534 168.5,97C 160.996,101.587 153.329,105.92 145.5,110C 142.333,113.167 139.167,116.333 136,119.5C 131.363,130.62 124.863,140.453 116.5,149C 108.996,153.587 101.329,157.92 93.5,162C 90.3333,165.167 87.1667,168.333 84,171.5C 79.9199,179.329 75.5865,186.996 71,194.5C 66.0663,199.697 60.5663,204.03 54.5,207.5C 53.1667,207.5 51.8333,207.5 50.5,207.5C 57.7424,203.61 64.2424,198.61 70,192.5C 74.5865,184.996 78.9199,177.329 83,169.5C 85.5,167 88,164.5 90.5,162C 98.5,157.333 106.5,152.667 114.5,148C 123.439,139.3 130.273,129.133 135,117.5C 137.5,115 140,112.5 142.5,110C 150.5,105.333 158.5,100.667 166.5,96C 169,93.5 171.5,91 174,88.5C 178.587,80.9955 182.92,73.3288 187,65.5C 192.87,59.1227 199.703,54.1227 207.5,50.5 Z"/></g>
<g><path style="opacity:1" fill="#229bd0" d="M 207.5,175.5 C 207.5,176.5 207.5,177.5 207.5,178.5C 203.451,181.384 200.284,185.051 198,189.5C 195.063,195.712 191.896,201.712 188.5,207.5C 187.5,207.5 186.5,207.5 185.5,207.5C 190.907,199.026 196.074,190.36 201,181.5C 203.037,179.294 205.203,177.294 207.5,175.5 Z"/></g>
<g><path style="opacity:1" fill="#fafefe" d="M 207.5,178.5 C 207.5,182.167 207.5,185.833 207.5,189.5C 203.346,195.13 199.679,201.13 196.5,207.5C 193.833,207.5 191.167,207.5 188.5,207.5C 191.896,201.712 195.063,195.712 198,189.5C 200.284,185.051 203.451,181.384 207.5,178.5 Z"/></g>
<g><path style="opacity:1" fill="#249bce" d="M 207.5,71.5 C 207.5,72.5 207.5,73.5 207.5,74.5C 205.203,76.2941 203.037,78.2941 201,80.5C 196.363,91.62 189.863,101.453 181.5,110C 173.996,114.587 166.329,118.92 158.5,123C 155.333,126.167 152.167,129.333 149,132.5C 144.363,143.62 137.863,153.453 129.5,162C 121.996,166.587 114.329,170.92 106.5,175C 96.795,184.248 89.4616,195.082 84.5,207.5C 83.5,207.5 82.5,207.5 81.5,207.5C 86.8266,199.522 91.66,191.188 96,182.5C 98.5,180 101,177.5 103.5,175C 111.5,170.333 119.5,165.667 127.5,161C 136.439,152.3 143.273,142.133 148,130.5C 151.534,126.631 155.367,123.131 159.5,120C 170.031,115.792 179.198,109.625 187,101.5C 191.667,93.5 196.333,85.5 201,77.5C 203.037,75.2941 205.203,73.2941 207.5,71.5 Z"/></g>
<g><path style="opacity:1" fill="#2b9dd0" d="M 207.5,144.5 C 207.5,145.167 207.5,145.833 207.5,146.5C 189.813,153.69 177.646,166.357 171,184.5C 168.537,187.965 165.704,191.131 162.5,194C 155.27,198.776 147.937,203.276 140.5,207.5C 139.167,207.5 137.833,207.5 136.5,207.5C 143.775,202.522 151.441,198.022 159.5,194C 162.333,191.167 165.167,188.333 168,185.5C 172.08,177.671 176.413,170.004 181,162.5C 188.564,154.635 197.397,148.635 207.5,144.5 Z"/></g>
<g><path style="opacity:1" fill="#f6fcfe" d="M 207.5,192.5 C 207.5,197.5 207.5,202.5 207.5,207.5C 204.5,207.5 201.5,207.5 198.5,207.5C 200.952,202.103 203.952,197.103 207.5,192.5 Z"/></g>
<g><path style="opacity:1" fill="#2298cf" d="M 207.5,189.5 C 207.5,190.5 207.5,191.5 207.5,192.5C 203.952,197.103 200.952,202.103 198.5,207.5C 197.833,207.5 197.167,207.5 196.5,207.5C 199.679,201.13 203.346,195.13 207.5,189.5 Z"/></g>
</svg>
