<?xml version="1.0" standalone="no"?>
<!DOCTYPE svg PUBLIC "-//W3C//DTD SVG 20010904//EN"
 "http://www.w3.org/TR/2001/REC-SVG-20010904/DTD/svg10.dtd">
<svg version="1.0" xmlns="http://www.w3.org/2000/svg"
 width="300.000000pt" height="300.000000pt" viewBox="0 0 300.000000 300.000000"
 preserveAspectRatio="xMidYMid meet">

<g transform="translate(0.000000,300.000000) scale(0.100000,-0.100000)"
fill="#000000" stroke="none">
<path d="M0 2895 l0 -105 43 0 c58 0 154 -49 202 -102 70 -77 79 -110 85 -323
6 -215 15 -250 85 -320 70 -70 105 -79 320 -85 182 -5 192 -6 247 -33 62 -30
115 -83 150 -149 20 -39 23 -63 29 -233 4 -113 11 -204 19 -225 25 -69 77
-127 142 -159 60 -30 64 -31 208 -31 224 0 303 -22 382 -108 73 -79 81 -111
88 -332 7 -218 13 -243 87 -316 68 -68 104 -78 318 -84 166 -5 196 -8 236 -26
93 -43 167 -134 184 -227 7 -36 8 -37 52 -37 l45 0 -4 88 c-5 99 -24 145 -84
204 -73 74 -105 82 -324 88 -177 5 -199 8 -238 28 -63 33 -120 89 -150 146
-25 49 -27 60 -32 241 -5 176 -7 194 -31 245 -30 64 -74 112 -133 143 -36 19
-62 22 -231 28 -143 5 -202 10 -237 24 -66 23 -141 94 -175 163 -27 55 -28 64
-33 252 -6 217 -12 238 -83 311 -71 73 -108 83 -327 89 -186 5 -197 7 -245 32
-60 32 -115 87 -146 148 -21 41 -24 63 -29 240 -7 219 -16 252 -88 325 -61 62
-122 85 -224 85 -81 0 -88 2 -88 20 0 19 5 20 91 15 113 -6 190 -37 250 -102
74 -81 83 -112 89 -328 6 -215 15 -250 85 -320 70 -69 105 -79 320 -85 164 -5
196 -9 236 -27 64 -29 125 -87 157 -147 25 -48 27 -61 32 -241 6 -175 8 -194
31 -245 30 -64 74 -112 133 -143 36 -19 63 -22 231 -28 141 -5 202 -11 237
-24 66 -23 141 -94 175 -163 27 -55 28 -64 33 -252 6 -218 12 -238 86 -314 68
-70 104 -80 319 -86 166 -5 196 -8 236 -26 69 -32 128 -91 161 -159 24 -51 28
-73 28 -142 0 -82 0 -83 25 -83 l25 0 0 184 0 184 -41 42 c-72 74 -107 84
-324 90 -164 5 -196 9 -236 27 -64 29 -125 87 -157 147 -25 48 -26 62 -32 246
-7 218 -17 253 -86 324 -70 72 -97 80 -309 87 -143 5 -202 10 -237 24 -66 23
-141 94 -175 163 -27 55 -28 64 -33 252 -5 176 -8 199 -28 237 -30 57 -80 105
-138 134 -45 22 -65 24 -244 29 -192 5 -196 6 -248 34 -61 34 -111 86 -144
148 -20 39 -23 61 -28 238 -5 178 -8 199 -29 244 -31 63 -81 112 -145 142 -47
22 -64 24 -208 24 l-158 0 0 -105z"/>
<path d="M458 2955 c30 -27 63 -70 79 -103 27 -55 28 -64 33 -247 6 -220 15
-249 99 -328 70 -65 118 -77 312 -77 188 0 243 -15 321 -87 83 -78 92 -109 99
-328 6 -215 17 -256 87 -328 71 -74 94 -81 307 -88 143 -5 202 -10 237 -24 66
-23 141 -94 175 -163 27 -55 28 -64 33 -247 6 -220 15 -251 94 -323 76 -70 96
-75 316 -82 215 -6 245 -14 318 -83 l32 -31 0 87 c0 86 0 88 -27 99 -16 6
-111 14 -218 17 -182 6 -192 7 -247 34 -62 30 -115 83 -150 149 -20 39 -23 62
-28 238 -7 210 -11 229 -68 306 -20 27 -52 52 -93 73 -61 30 -65 31 -209 31
-224 0 -303 22 -381 107 -72 79 -81 112 -89 333 -7 218 -13 243 -87 316 -68
69 -104 78 -323 84 -192 5 -196 6 -248 34 -60 34 -111 86 -144 148 -20 39 -23
61 -28 238 -5 171 -8 201 -27 243 l-22 47 -102 0 -101 0 50 -45z"/>
<path d="M650 2998 c0 -2 9 -27 20 -56 17 -44 20 -76 20 -210 0 -193 11 -239
75 -310 78 -87 108 -96 335 -102 186 -5 197 -7 245 -32 59 -30 129 -103 153
-156 12 -28 18 -84 22 -227 7 -214 18 -256 88 -328 72 -75 93 -81 313 -87 187
-6 198 -7 251 -33 65 -32 131 -99 161 -165 19 -41 22 -72 27 -237 6 -214 12
-235 80 -309 73 -79 106 -89 330 -96 107 -4 203 -10 213 -14 15 -7 17 -2 17
47 l0 55 -157 4 c-149 3 -161 5 -215 31 -65 32 -121 90 -151 156 -19 40 -22
71 -27 236 -7 215 -16 251 -87 322 -70 70 -95 77 -308 84 -166 5 -196 9 -239
28 -67 29 -110 63 -146 115 -47 69 -60 138 -60 317 0 154 0 157 -31 217 -33
68 -72 105 -139 136 -39 17 -72 21 -235 26 -183 5 -192 6 -247 33 -70 34 -131
101 -158 173 -17 47 -20 78 -20 219 l0 165 -65 0 c-36 0 -65 -1 -65 -2z"/>
<path d="M810 2847 c0 -188 12 -234 75 -305 78 -86 108 -96 335 -102 186 -6
197 -7 246 -32 64 -34 137 -114 159 -176 13 -35 19 -96 24 -237 7 -213 14
-237 88 -306 72 -69 87 -73 303 -79 224 -7 254 -15 339 -95 82 -77 94 -117
101 -340 5 -142 10 -199 22 -226 24 -54 85 -117 142 -147 47 -24 63 -26 204
-30 l152 -4 0 45 0 45 -97 4 c-152 6 -243 60 -300 176 -27 55 -28 64 -33 247
-5 183 -6 192 -33 247 -16 32 -45 71 -65 88 -72 60 -91 64 -299 71 -190 6
-193 6 -257 38 -74 36 -118 82 -155 161 -24 51 -26 68 -31 245 -5 170 -8 194
-27 231 -35 66 -70 101 -131 131 -55 27 -64 28 -247 33 -183 5 -192 6 -247 33
-70 34 -131 101 -158 173 -15 42 -20 79 -20 159 l0 105 -45 0 -45 0 0 -153z"/>
<path d="M930 2906 c0 -116 20 -181 73 -242 22 -25 63 -57 91 -71 48 -26 61
-27 246 -33 175 -5 200 -8 242 -29 61 -29 123 -93 155 -160 25 -50 27 -64 33
-250 6 -221 13 -245 89 -314 75 -68 86 -71 301 -77 189 -5 197 -6 253 -34 72
-35 122 -85 156 -156 24 -51 26 -68 31 -245 7 -214 12 -235 79 -308 57 -62
125 -89 234 -95 l87 -4 0 44 c0 45 0 45 -41 52 -109 17 -210 100 -249 202 -17
47 -20 78 -20 213 0 177 -11 232 -60 300 -38 52 -110 98 -164 106 -22 3 -114
7 -203 9 -159 3 -164 4 -227 35 -74 36 -118 82 -155 161 -24 51 -26 68 -31
245 -5 177 -7 193 -30 238 -28 55 -70 96 -133 129 -38 20 -61 23 -237 28 -188
5 -197 6 -252 33 -99 49 -165 146 -175 258 l-6 59 -43 0 -44 0 0 -94z"/>
<path d="M1054 2946 c12 -105 67 -186 160 -234 48 -25 61 -26 246 -32 177 -5
199 -7 242 -28 64 -31 126 -96 157 -162 23 -51 25 -68 31 -250 5 -189 6 -196
32 -241 15 -25 43 -60 63 -77 71 -63 83 -66 295 -72 171 -5 201 -9 243 -28 75
-33 121 -75 158 -144 l34 -63 5 -195 c5 -186 7 -197 32 -245 45 -85 121 -141
216 -159 l32 -5 0 57 c0 57 0 57 -45 85 -24 16 -58 46 -75 67 -58 73 -63 98
-70 310 -5 175 -8 199 -28 237 -34 65 -78 110 -138 139 -53 26 -65 27 -252 33
-193 7 -198 7 -250 36 -65 35 -107 81 -140 155 -24 51 -26 69 -31 245 -7 213
-18 254 -87 314 -78 69 -100 75 -314 81 -180 5 -199 8 -245 30 -63 31 -124 92
-154 153 -23 47 -23 47 -73 47 l-51 0 7 -54z"/>
<path d="M1190 2995 c0 -18 43 -85 72 -112 68 -66 112 -77 323 -83 175 -5 194
-7 239 -29 66 -33 122 -91 154 -160 24 -52 26 -69 31 -246 7 -216 17 -252 93
-320 69 -63 92 -69 303 -75 178 -5 194 -7 247 -32 66 -31 128 -91 160 -156 21
-43 23 -66 28 -242 6 -186 7 -197 33 -246 24 -47 98 -124 119 -124 4 0 8 39 8
86 0 70 -4 91 -20 114 -38 53 -43 84 -50 280 -5 174 -8 199 -28 237 -34 66
-78 110 -139 140 -54 26 -65 27 -252 33 -215 6 -225 9 -308 77 -27 21 -54 58
-75 100 l-32 66 -6 196 c-5 191 -6 197 -32 242 -31 53 -71 90 -132 122 -37 19
-62 22 -236 27 -214 7 -231 11 -314 75 -43 32 -51 35 -116 35 -39 0 -70 -2
-70 -5z"/>
<path d="M1405 2984 c11 -9 40 -26 65 -37 39 -19 69 -22 235 -27 175 -5 194
-7 239 -29 66 -33 122 -91 154 -160 25 -53 27 -68 32 -251 5 -189 6 -196 32
-240 33 -56 70 -92 128 -122 41 -21 61 -23 235 -28 l190 -5 67 -33 c72 -35
114 -78 151 -152 19 -40 22 -66 27 -240 5 -155 9 -201 23 -225 15 -28 16 -13
17 296 l0 327 -41 37 c-77 69 -111 78 -324 85 -165 5 -196 8 -236 27 -63 28
-125 93 -157 161 -24 53 -26 70 -31 252 -6 188 -7 197 -33 240 -32 54 -70 91
-123 119 -38 20 -54 21 -355 21 -289 -1 -313 -2 -295 -16z"/>
<path d="M2143 2957 c27 -25 58 -68 74 -102 26 -57 28 -70 33 -250 6 -209 12
-232 71 -300 19 -21 61 -51 94 -67 58 -27 65 -28 221 -28 184 0 241 -12 317
-66 l48 -35 -3 83 -3 83 -45 12 c-25 6 -116 12 -202 12 -187 1 -237 15 -311
85 -87 84 -107 157 -106 383 1 121 -2 148 -20 187 l-20 46 -97 0 -97 0 46 -43z"/>
<path d="M2330 2996 c0 -2 8 -21 17 -42 13 -30 18 -82 22 -229 6 -176 8 -193
31 -238 28 -55 70 -96 133 -129 38 -20 62 -23 237 -29 107 -3 203 -9 213 -14
15 -6 17 -1 17 49 l0 56 -144 0 c-158 0 -200 9 -269 60 -22 16 -55 50 -72 75
-50 70 -64 139 -64 333 l-1 112 -60 0 c-33 0 -60 -2 -60 -4z"/>
<path d="M2490 2837 c0 -163 0 -164 31 -225 32 -65 66 -99 133 -135 36 -19 60
-22 194 -25 l152 -4 0 45 0 45 -97 4 c-115 4 -166 24 -232 90 -70 71 -85 115
-89 251 l-4 117 -44 0 -44 0 0 -163z"/>
<path d="M2610 2897 c0 -96 2 -109 31 -165 54 -109 128 -154 267 -160 l92 -4
0 45 c0 44 0 44 -41 51 -137 22 -259 160 -259 293 l0 43 -45 0 -45 0 0 -103z"/>
<path d="M2733 2945 c11 -107 81 -196 185 -235 80 -30 82 -29 82 40 0 55 -2
61 -27 74 -40 20 -97 84 -122 134 -21 41 -22 42 -73 42 l-51 0 6 -55z"/>
<path d="M2870 2993 c0 -30 98 -143 124 -143 3 0 6 34 6 75 l0 75 -65 0 c-36
0 -65 -3 -65 -7z"/>
<path d="M0 2709 c0 -54 0 -54 45 -78 56 -30 110 -89 138 -150 19 -40 22 -72
27 -241 6 -217 13 -242 85 -315 73 -72 98 -79 315 -85 188 -5 197 -6 252 -33
62 -30 115 -83 150 -149 21 -39 23 -60 28 -238 5 -180 7 -199 29 -244 29 -60
83 -115 136 -141 34 -16 71 -20 230 -26 176 -5 195 -8 247 -31 75 -35 132 -88
165 -156 27 -54 28 -65 33 -252 7 -220 13 -245 91 -320 68 -65 123 -80 308
-80 177 0 232 -11 300 -60 23 -17 54 -48 69 -70 26 -38 28 -39 90 -40 34 0 62
4 62 10 0 5 -9 34 -20 64 -14 37 -36 69 -71 101 -78 73 -97 78 -319 85 -185 5
-197 7 -245 32 -60 32 -115 87 -147 148 -21 41 -23 61 -28 235 -7 214 -17 255
-88 328 -71 74 -93 80 -312 87 -185 6 -198 8 -251 33 -66 32 -132 99 -162 165
-19 41 -22 72 -27 242 -6 222 -12 243 -93 318 -75 69 -97 74 -317 81 -185 7
-198 8 -245 33 -60 32 -115 87 -146 148 -21 41 -24 63 -29 240 -6 176 -9 199
-29 240 -48 94 -130 156 -222 167 l-49 6 0 -54z"/>
<path d="M0 2540 c0 -71 3 -85 25 -114 52 -68 58 -98 65 -306 5 -173 8 -200
27 -236 33 -63 66 -97 125 -129 52 -29 55 -30 248 -35 188 -5 197 -6 252 -33
62 -30 115 -83 150 -149 20 -39 23 -62 28 -238 7 -221 16 -256 87 -327 74 -74
113 -85 323 -90 180 -4 187 -5 247 -34 68 -33 119 -84 154 -158 21 -41 23 -66
28 -241 6 -193 6 -196 36 -249 36 -65 83 -105 153 -131 44 -17 78 -20 215 -20
141 -1 169 -3 217 -22 59 -23 250 -38 250 -20 0 16 -90 93 -128 110 -28 12
-86 17 -232 22 -185 6 -198 7 -245 32 -58 30 -129 103 -153 156 -12 28 -18 84
-22 227 -6 167 -9 196 -29 240 -26 60 -70 107 -131 143 -44 26 -51 27 -240 32
-188 5 -197 6 -252 33 -65 32 -131 99 -161 165 -19 41 -22 72 -27 237 -6 214
-12 235 -80 309 -73 79 -106 89 -330 96 -149 4 -204 10 -232 22 -53 24 -126
94 -156 153 -25 47 -27 60 -32 240 -5 168 -8 196 -28 240 -25 55 -81 118 -124
141 l-28 15 0 -81z"/>
<path d="M1 2078 l-1 -326 33 -43 c17 -23 57 -56 87 -73 l55 -31 195 -5 c191
-5 197 -6 253 -35 64 -32 114 -82 149 -147 20 -39 23 -62 28 -238 5 -167 9
-202 27 -241 29 -65 76 -114 140 -146 54 -26 63 -27 228 -29 95 -2 191 -7 213
-13 60 -17 133 -70 169 -124 53 -78 63 -130 63 -311 0 -174 8 -207 66 -283
l25 -33 316 0 c174 0 313 3 309 7 -4 4 -96 10 -204 13 -187 6 -199 7 -247 32
-59 30 -129 103 -153 156 -12 28 -18 85 -22 227 -8 221 -21 265 -97 336 -73
67 -94 73 -308 79 -220 7 -256 17 -337 97 -80 79 -91 117 -98 338 -4 144 -10
199 -22 226 -24 54 -85 117 -142 147 -48 24 -61 26 -246 31 -226 7 -254 15
-335 102 -73 78 -78 97 -85 314 -5 178 -7 193 -32 245 l-26 55 -1 -327z"/>
<path d="M0 1602 c0 -87 1 -89 27 -102 19 -9 91 -16 218 -20 117 -4 203 -12
225 -20 51 -19 116 -66 144 -103 53 -70 60 -99 66 -302 5 -162 9 -197 27 -236
29 -65 77 -114 140 -146 54 -26 65 -27 252 -33 193 -5 197 -6 249 -35 65 -35
107 -81 141 -155 24 -51 26 -69 32 -250 3 -107 7 -196 8 -197 0 -2 38 -3 83
-3 l81 0 -22 24 c-49 53 -64 117 -70 321 -7 215 -15 240 -91 309 -71 64 -93
70 -305 76 -178 5 -193 7 -245 31 -70 33 -126 89 -159 159 -24 51 -26 68 -31
245 -7 214 -12 235 -79 308 -72 77 -115 90 -336 96 -212 7 -246 16 -319 87
l-36 35 0 -89z"/>
<path d="M0 1417 l0 -55 158 -4 c155 -3 159 -4 224 -36 43 -21 80 -48 103 -76
63 -77 69 -101 75 -311 5 -182 6 -192 33 -247 32 -65 81 -112 146 -141 39 -18
74 -22 236 -26 182 -6 192 -7 247 -34 67 -33 111 -80 147 -157 22 -49 26 -71
29 -192 l4 -138 48 0 47 0 -8 42 c-4 24 -8 113 -9 198 -1 175 -9 205 -75 278
-68 76 -104 86 -320 92 -178 5 -193 7 -246 31 -68 32 -120 83 -156 152 -26 50
-27 60 -33 247 -6 222 -16 257 -92 325 -75 69 -110 78 -323 86 -104 3 -200 10
-212 14 -22 7 -23 5 -23 -48z"/>
<path d="M0 1287 l0 -45 98 -4 c87 -3 107 -8 165 -36 42 -21 79 -49 102 -76
63 -77 68 -101 74 -311 6 -182 7 -192 34 -247 32 -64 80 -112 146 -141 39 -18
73 -22 236 -27 217 -6 250 -15 325 -90 60 -60 91 -133 97 -231 l6 -79 38 0 39
0 0 138 c0 155 -10 189 -75 260 -68 76 -103 86 -325 92 -178 6 -199 8 -240 29
-75 39 -115 77 -151 143 l-34 63 -5 195 c-5 186 -7 197 -32 246 -31 60 -84
109 -147 137 -38 17 -73 22 -198 25 l-153 4 0 -45z"/>
<path d="M0 1165 c0 -43 0 -43 43 -50 105 -17 202 -88 249 -183 21 -43 23 -65
28 -237 5 -171 8 -195 29 -242 27 -61 84 -116 150 -146 40 -18 72 -22 236 -27
217 -6 250 -15 325 -90 44 -44 90 -129 90 -167 0 -21 5 -23 46 -23 l46 0 -4
88 c-6 124 -51 197 -152 250 -49 25 -60 26 -246 32 l-195 6 -63 34 c-69 36
-109 79 -144 150 -20 40 -23 66 -28 240 -6 214 -12 236 -81 314 -52 60 -123
87 -234 91 l-95 3 0 -43z"/>
<path d="M0 1026 c0 -50 2 -54 29 -66 43 -17 116 -93 143 -148 21 -43 23 -65
29 -242 6 -219 12 -241 80 -315 69 -75 114 -88 334 -95 106 -3 202 -11 217
-18 51 -21 104 -62 134 -102 28 -39 30 -40 93 -40 l63 0 -7 27 c-20 85 -73
151 -158 195 -38 20 -62 23 -237 28 -223 7 -258 17 -338 98 -76 76 -85 109
-92 332 -5 175 -8 199 -28 237 -49 94 -144 163 -224 163 l-38 0 0 -54z"/>
<path d="M0 851 c0 -50 4 -93 10 -96 6 -4 23 -30 37 -58 26 -50 28 -60 33
-247 5 -186 7 -197 32 -245 33 -64 80 -108 143 -136 44 -20 73 -24 240 -29
146 -5 199 -10 229 -23 42 -18 226 -25 226 -8 0 14 -66 69 -113 93 -38 20 -61
23 -237 28 -181 5 -199 7 -245 30 -63 31 -131 98 -158 158 -19 41 -22 72 -27
237 -5 163 -9 196 -26 236 -25 54 -71 107 -113 132 l-31 18 0 -90z"/>
<path d="M1 388 l-1 -326 26 -31 26 -31 301 2 c280 2 289 2 117 7 -176 6 -188
7 -242 34 -65 32 -121 90 -152 156 -18 40 -21 71 -26 236 -5 166 -8 196 -27
235 l-21 45 -1 -327z"/>
</g>
</svg>
