<?xml version="1.0" encoding="UTF-8"?>
<svg xmlns="http://www.w3.org/2000/svg" xmlns:xlink="http://www.w3.org/1999/xlink" width="50px" height="50px" viewBox="0 0 50 50" version="1.1">
<g id="surface1">
<path style=" stroke:none;fill-rule:nonzero;fill:rgb(100%,100%,100%);fill-opacity:1;" d="M 48.695312 25.316406 C 48.703125 23.703125 48.800781 14.601562 50 10.417969 L 35.046875 10.417969 L 34.503906 14.648438 L 39.578125 16.171875 L 39.640625 20.742188 L 44.289062 20.828125 L 44.171875 25.617188 Z M 48.695312 25.316406 "/>
<path style=" stroke:none;fill-rule:nonzero;fill:rgb(100%,100%,100%);fill-opacity:1;" d="M 8.519531 38.429688 C 8.519531 38.273438 8.523438 38.113281 8.527344 37.957031 L 8.527344 37.980469 C 8.835938 30.195312 17.277344 28.859375 23.613281 29.050781 L 23.613281 26.808594 C 23.511719 24.996094 22.074219 23.398438 17.90625 23.398438 C 15.128906 23.398438 11.832031 23.761719 9.699219 24.546875 L 10.265625 19.484375 C 12.304688 18.898438 14.601562 18.328125 19.542969 18.328125 C 29.070312 18.328125 30.121094 22.636719 30.042969 27.636719 L 30 39.582031 L 35.363281 39.582031 C 42.246094 39.582031 47.910156 33.863281 48.617188 27.019531 L 42.480469 27.265625 L 42.585938 22.492188 L 38 22.410156 L 37.925781 17.257812 L 32.664062 15.429688 L 33.367188 10.417969 L 13.722656 10.417969 C 5.765625 10.417969 0 17.324219 0 24.894531 L 0 39.582031 L 8.574219 39.582031 C 8.539062 39.238281 8.519531 38.835938 8.519531 38.429688 Z M 8.519531 38.429688 "/>
<path style=" stroke:none;fill-rule:nonzero;fill:rgb(100%,100%,100%);fill-opacity:1;" d="M 23.660156 38.253906 C 23.773438 37.800781 23.660156 36.328125 23.660156 35.820312 L 23.554688 32.710938 C 19.347656 32.53125 14.804688 33.394531 14.804688 37.355469 C 14.804688 38.210938 15.160156 38.988281 15.695312 39.582031 L 22.59375 39.582031 C 23.109375 39.28125 23.5 38.871094 23.660156 38.253906 Z M 23.660156 38.253906 "/>
</g>
</svg>
