<?xml version="1.0" encoding="utf-8"?>
<!-- Generator: Adobe Illustrator 25.3.0, SVG Export Plug-In . SVG Version: 6.00 Build 0)  -->
<svg version="1.1" id="Calque_1" xmlns="http://www.w3.org/2000/svg" xmlns:xlink="http://www.w3.org/1999/xlink" x="0px" y="0px"
	 viewBox="0 0 30 30" style="enable-background:new 0 0 30 30;" xml:space="preserve">
<style type="text/css">
	.st0{fill:#FFFFFF;}
</style>
<path class="st0" d="M7.1,27.3c-0.5-0.1-1.3-0.6-1.5-0.9c-0.1-0.3,0-1.7,0.1-1.8c0.1-0.1,0.1-0.3,0-0.5c-0.1-0.1-0.3-0.1-1,0.2
	c-1.1,0.4-1.5,0.4-2.3,0c-0.8-0.4-1.6-1.3-2.1-2.4C-0.2,20.7-0.1,20.5,1,20c0.5-0.2,1.2-0.6,1.5-0.8l0.6-0.4L3,17.9L3,17l0.6-0.6
	l0.6-0.6L4,15.3l-0.5-0.8c-0.3-0.4-0.3-0.5-0.2-0.8c0.2-0.4,0.1-0.4-0.3-0.3c-0.2,0.1-0.4,0.1-0.5,0.1c-0.2,0-0.2-0.5,0-0.8
	c0.2-0.4,0-0.5-0.3-0.2c-0.2,0.2-0.3,0.2-0.4,0.1c-0.4-0.4,0.8-3.1,1.5-3.5l0.4-0.3H3.2c-0.3,0-0.6,0-0.6-0.1c0-0.4,1.7-1.2,3-1.4
	l0.8-0.2l1.5-2.3c0.8-1.3,1.5-2.4,1.6-2.5c0.4-0.3,0.7,0,1.8,1.9c0.7,1.1,1.2,2,1.3,2.1c0,0,0.5-0.2,0.9-0.6c1-0.8,4.2-2.6,5.5-3.2
	c0.7-0.3,1-0.4,1.2-0.3c0.2,0.1,0.3,0.6,0.4,2.9c0.1,1.5,0.2,3.2,0.2,3.8c0,1.5,0,1.7,0.1,1.7c0.1,0,0.3-0.3,0.6-0.7
	c0.9-1.2,0.7-1.2,3.1-0.6l2.2,0.5l1.5,1.2c1.4,1.2,1.7,1.5,1.6,1.7c0,0-0.9,0.1-2,0.1c-2.3,0-3.7,0.4-4.5,1.1
	C23.1,14.3,23,14.4,23,15c0,0.4,0,0.8,0,0.8c0,0,0.6-0.1,1.2-0.4c0.7-0.3,1.3-0.5,1.4-0.5c0.1,0,0.7,0.5,1.4,1.1l1.2,1.1l-0.7,1.3
	l-0.7,1.3l0.6,0.7c0.3,0.4,0.6,0.8,0.6,0.8c-0.1,0.2-1.3,1.2-1.5,1.2c-0.1,0-0.2,0-0.2-0.1c0-0.1-0.1-0.3-0.3-0.5l-0.3-0.4l-0.9,0.2
	c-1.2,0.3-1.4,0.3-1.8-0.1c-0.4-0.5-0.6-0.4-0.6,0.2c0,0.6-0.5,1.4-1,1.7c-0.5,0.3-3,1.2-4.3,1.5c-0.5,0.1-1,0.3-1.4,0.5
	c-1.3,0.7-1.3,0.3-0.1-1.4c0.8-1,1.2-1.5,2.5-2.5c0.9-0.7,1.6-1.3,1.6-1.4c0-0.1,0.2-1.2,0.4-2.3l0.3-2.1l-0.7-1.2
	c-0.6-1.2-0.7-1.2-0.4-1.6c0.1-0.2,0.2-0.4,0.2-0.4c0,0-1,0.5-1.1,0.6c0,0,0.1,0.2,0.3,0.3c0.4,0.3,0.9,1.2,1.1,2
	c0.2,0.6,0.1,2.5-0.1,2.2c-0.1-0.1-0.1,0-0.1,0.4c0,0.6-0.5,1.8-0.7,1.8c-0.1,0-0.1-0.1-0.1-0.3c0-0.1-0.1-0.3-0.1-0.3
	c-0.1,0-0.1,0.2-0.1,0.5l0.1,0.5l-0.9,0c-0.6,0-0.9,0-1.1,0.2c-0.4,0.3-3.2,1.8-4.2,2.2c-1.3,0.5-1.4,0.6-1.9,2
	c-0.2,0.7-0.5,1.4-0.6,1.5C9.6,27.1,8.1,27.5,7.1,27.3L7.1,27.3z M8.5,26.5c0.2-0.3,0.4-0.4,0.4-0.3c0,0.1-0.1,0.2-0.2,0.3
	c-0.1,0.1-0.1,0.2-0.1,0.2c0.1,0.1,0.4-0.3,0.6-0.9c0.2-0.6,0.4-0.8,0.3-0.3c0,0.2,0,0.3,0,0.3c0.2,0,0.7-1.1,0.9-2
	c0.4-1.4,0.5-1.6,1.6-2.6c0.8-0.7,1-1,1.1-1.5c0.2-0.9,0.3-1,0.4-0.6c0.1,0.2,0.1,0.5,0,0.7c-0.1,0.5,0.1,0.2,0.8-0.9
	c0.7-1.2,0.8-1.4,0.8-0.6l0,0.6l0.4-0.4c0.6-0.6,1.7-2.1,1.7-2.3c0-0.1-0.2-0.3-0.4-0.5c-0.3-0.3-0.3-0.3,0.3-0.1
	c0.2,0.1,0.2,0,0.1-0.2c-0.5-1.7-1.2-2.7-2.7-4.1c-1.3-1.1-1.9-1.6-3-2L10.8,9L10,9.4c-0.8,0.4-4.9,4.2-4.9,4.5
	c0,0.7,3.4-1.9,4.9-3.8c0.4-0.5,0.8-0.8,0.9-0.8c0.5,0,1.9,1,3,2c1.3,1.2,1.7,2,1.6,2.7c-0.1,0.5-0.6,1.6-0.9,1.8
	c-0.2,0.1-0.2,0.1-0.1-0.3c0-0.2,0-0.4,0-0.4c0,0-0.2,0.2-0.5,0.4c-0.4,0.4-0.4,0.4-0.3,0.1c0.1-0.4,0.1-0.4-0.9,0
	c-0.7,0.2-1.4,0.4-2,0.6c-1.4,0.4-2.1,0.6-2.7,1c-0.4,0.3-0.5,0.5-0.1,0.5c0.2,0,0.5,0.2,0.7,0.5l0.5,0.5l0.2-0.3
	c0.2-0.3,0.9-0.7,1.2-0.7c0.1,0,0,0.2-0.2,0.4c-0.3,0.4-0.3,0.5-0.3,1.5c0,1,0,1.2-0.7,2.9c-0.4,1-0.8,2-1,2.2
	c-0.4,0.6-1.4,1.1-2.1,1.2c-0.6,0.1-0.6,0.1-0.4,0.3c0.4,0.4,0.9,0.6,1.3,0.4c0.3-0.1,0.3-0.1,0.2,0C7.5,27.2,8.1,27,8.5,26.5
	L8.5,26.5z M6.4,25.3c-0.1-0.2-0.2-0.3-0.3-0.5c-0.2-0.2-0.2-0.2-0.3,0.1c-0.1,0.4,0.1,0.6,0.5,0.6C6.5,25.6,6.5,25.5,6.4,25.3
	L6.4,25.3z M8.2,24.5c0.2-0.2,0.2-0.4-0.2-0.6c-0.4-0.2-0.5-0.1-0.3,0.4C7.9,24.7,8,24.7,8.2,24.5z M4.4,24.1
	c0.3-0.1,0.5-0.2,0.5-0.2c0-0.2-1.6-1.1-2.5-1.4c-0.5-0.2-1-0.3-1.4-0.5c-0.4-0.2,0.2,0.8,1,1.5C2.7,24.2,3.5,24.4,4.4,24.1
	L4.4,24.1z M2.8,23.9c-0.2-0.1-0.2-0.4,0-0.4c0.1,0,0.3,0.4,0.2,0.4C3,24,2.9,24,2.8,23.9z M1.8,23.1c-0.3-0.3-0.3-0.5-0.2-0.5
	c0.2-0.1,0.8,0.4,0.7,0.6C2.3,23.3,2,23.3,1.8,23.1L1.8,23.1z M6.8,23.4c1-0.2,1.2-0.2,1.6-0.7C9.1,22,9.6,21,9.6,20.5
	c-0.1-0.6-0.6-0.9-1.8-1c-0.6,0-1.3,0-1.6,0.1c-0.7,0.2-1.5,1.1-1.8,2l-0.2,0.7l0.3,0.6c0.4,0.6,0.7,0.9,1,0.8
	C5.6,23.7,6.2,23.5,6.8,23.4z M6.9,22.3c-0.1-0.2-0.1-0.2,0-0.4c0.3-0.3,0.5-0.1,0.5,0.3C7.5,22.5,7.2,22.6,6.9,22.3L6.9,22.3z
	 M5.7,21.5c-0.3-0.4,0.3-0.9,0.7-0.6c0.3,0.2,0.2,0.4-0.2,0.6C6,21.6,5.9,21.6,5.7,21.5z M7.3,20.8c-0.2-0.2-0.2-0.2,0-0.4
	c0.2-0.2,0.4-0.1,0.5,0.3C7.8,21,7.6,21.1,7.3,20.8z M12.8,22.6c0.5-0.2,1.2-1,1.1-1.1c-0.1-0.1-1.5,0.8-1.6,1.1
	C12.1,22.9,12,22.9,12.8,22.6L12.8,22.6z M1.9,21.8c-0.6-0.3-1.1-0.6-1.2-0.6C0.7,21.1,1,21,1.4,21c0.9-0.1,2.2-0.4,2.1-0.6
	c0,0-0.5,0-1.1,0.1c-1.8,0.3-2.1,0.4-1.9,0.1c0.1-0.1,0.5-0.3,0.8-0.5c0.7-0.3,0.9-0.5,0.3-0.3c-0.8,0.3-1.5,0.8-1.5,1.1
	c0,0.2,1,0.8,1.8,1.1C3.1,22.5,3.1,22.4,1.9,21.8z M15.1,21.4c1.2-0.7,1.2-0.7,0.5-0.6c-0.8,0.1-1.3,0.3-1.3,0.6
	c0,0.1-0.1,0.3-0.2,0.4C13.9,22,14.1,21.9,15.1,21.4z M25.2,19.4c0-0.7,0-0.7-0.9-0.3c-0.6,0.3-0.6,0.3-0.4,0.9l0.1,0.5l0.6-0.2
	C25.2,20,25.2,20,25.2,19.4z M18.4,19.2c0.1-0.5,0-1.2-0.2-1.6c-0.1-0.1,0-0.2,0-0.2c0.1,0,0.7,1.3,0.7,1.7c0,0.2,0,0.2,0.2,0.1
	c0.3-0.3,0.1-2.2-0.4-3.3c-0.2-0.5,0.3,0.1,0.6,0.6l0.3,0.5l0-0.7c-0.1-1.2-0.5-1.8-1.5-2.5c-1.3-0.8-1.4-0.9-0.5-0.9
	c0.7,0,2.2-0.5,2.5-0.9c0.1-0.1,0.1-0.2-0.1-0.1c-0.2,0.1-0.1-0.1,0.2-0.4c0.6-0.7,0.7-1,0-0.5c-0.6,0.4-0.6,0.3-0.1-0.3
	c0.3-0.4,0.4-0.6,0.4-1.8c0-1.3,0-1.4-0.2-1.1c-0.2,0.1-0.3,0.2-0.4,0.1c-0.3-0.3-0.5,0.2-0.8,1.6c-0.1,0.8-0.3,1.6-0.4,1.8
	c-0.2,0.4-0.8,0.9-1.7,1.3l-0.5,0.2l-0.7-1.2l-0.7-1.1l0.4-0.1c0.4-0.1,0.4-0.1,0.2-0.3c-0.2-0.2-0.2-0.2,0.1-0.3
	c0.4-0.1,1.1-0.6,1-0.7c0,0-0.3,0-0.5,0.1c-0.5,0.1-0.6,0-0.1-0.3c0.2-0.1,0.5-0.6,0.7-1C17.4,7,17.4,7,17.1,7
	c-0.2,0.1-0.3,0-0.4-0.3c-0.1-0.2-0.1-0.4-0.1-0.7c0-0.2-0.1-0.3-0.2-0.2C16.1,6,16,5.7,16.1,5.1c0.1-0.3,0.1-0.5,0.1-0.5
	c-0.1,0-1.6,1-2.5,1.6c-1,0.8-1.1,1-0.7,2.1c0.1,0.3,0.2,0.5,0.2,0.5c0,0-0.1,0-0.2,0c-0.1,0-0.4-0.2-0.7-0.5
	c-0.7-0.7-1.9-1.1-3.1-1.2c-1-0.1-1.1,0.1-0.1,0.3c1.1,0.2,0.6,0.3-1.1,0.3c-1.3,0-2,0.1-2.8,0.3C4.1,8.3,3.6,8.6,4.4,8.5
	c0.7-0.1,2,0.1,1.9,0.2c0,0.1-0.3,0.1-0.5,0.1C5.2,8.8,4,9.3,3.4,9.9c-0.5,0.5-1.3,1.9-1.2,2c0,0,0.3-0.1,0.6-0.3
	c0.8-0.5,2-0.9,2-0.7c0,0.1-0.1,0.2-0.3,0.3c-0.7,0.4-1.8,1.6-1.8,2c0,0,0.3,0,0.7-0.1c0.4-0.1,0.8-0.2,1-0.2c0.3,0,0.3,0,0.3,0.6
	l0,0.6L5,13.5c0.5-0.7,2.6-2.8,3.6-3.5C9,9.6,9.4,9.3,9.4,9.2s-0.3,0-0.5,0.1C8.1,9.5,8.3,9.2,9.2,9l0.8-0.2L9.4,8.6
	C8.6,8.5,8.9,8.3,9.8,8.4c1.8,0.2,3.7,1.2,5.4,2.9c1.3,1.3,2,2.4,2.5,3.8l0.4,1.2l-0.6,0.9c-0.8,1.2-1.1,1.8-1.1,1.8
	c0.1,0,1.7,0.6,1.9,0.6C18.3,19.7,18.4,19.5,18.4,19.2z M6.4,18.3l1.3-1.2l-0.5,0.1l-0.5,0.1L6.9,17c0.4-0.3,0.3-0.3-0.3-0.1
	c-0.2,0.1-0.6,0.2-0.8,0.3c-0.3,0.1-0.3,0.1-0.1-0.2c0.5-0.6,0-0.2-1,0.7c-0.6,0.5-1.3,1.1-1.5,1.4c-0.5,0.4-0.5,0.4-0.2,0.4
	c0.2,0,0.6,0,1,0c0.4,0.1,0.7,0.1,0.8,0.1C5,19.6,5.6,19,6.4,18.3L6.4,18.3z M4.2,17.9c0.4-0.4,0.5-0.6,0.5-0.7
	c-0.1-0.3-0.3-0.4-0.3-0.1c0,0.1-0.1,0.1-0.1,0.1C4.1,17.1,4,17,4,16.8c0-0.4-0.2-0.4-0.5,0c-0.3,0.4-0.4,0.6,0,0.4
	c0.3-0.2,0.3,0,0.1,0.3c-0.2,0.3-0.3,0.9-0.1,0.8C3.6,18.4,3.9,18.1,4.2,17.9z M23.9,17.7c0.6-0.2,0.9-0.5,0.9-0.5
	c-0.2-0.1-1.9,0.6-2,0.8C22.7,18.2,22.8,18.2,23.9,17.7z M4.8,15.7c-0.1-0.1-0.1-0.4-0.1-0.7c0-0.4-0.2-0.5-0.4-0.2
	C4.3,15.1,4.7,16,4.9,16C4.9,16,4.9,15.8,4.8,15.7z M5.3,15.4c0.1-0.2-0.2-0.6-0.4-0.6c-0.1,0-0.2,0.6,0,0.7
	C5.1,15.6,5.2,15.6,5.3,15.4z M10.6,14.8l0.4-0.3c0,0-0.1-0.2-0.3-0.3c-0.4-0.3-0.8-1.2-0.7-1.6c0.1-0.3-0.1-0.3-0.6,0.1
	c-0.3,0.3-0.4,0.4-0.4,0.9c0,0.8,0.4,1.5,0.8,1.5C10.1,15,10.4,14.9,10.6,14.8z M4.4,13.1c-0.1-0.1-0.5,0.1-0.6,0.3
	c0,0.1,0.1,0.2,0.3,0.3c0.3,0.1,0.3,0.1,0.3-0.2C4.4,13.3,4.4,13.2,4.4,13.1z M10.9,13.1c0.1-0.1,0.2-0.3,0.2-0.4
	c0-0.3-0.5-0.6-0.7-0.5c-0.3,0.1-0.3,0.7-0.1,0.9C10.6,13.4,10.6,13.4,10.9,13.1z M18,11.4c0.5-0.4,0.5-0.6,0.7-1.7
	C18.8,9.1,19,7.9,19.1,7c0.1-0.8,0.2-1.6,0.3-2.3c0.1-0.4,0.1-0.8,0.1-0.8c0,0-0.3,0.8-0.7,1.7c-0.3,1-0.7,1.9-0.7,2
	c0,0.1,0.1,0.1,0.3-0.1c0.2-0.2,0.3-0.3,0.3-0.2c0,0.3-0.5,1.6-0.7,2c-0.4,0.5-0.4,0.7-0.1,0.4c0.5-0.4,0.3,0.4-0.3,1.1
	c-0.4,0.4-0.4,0.7,0,0.3c0.3-0.3,0.2,0.2-0.1,0.5C17,12.1,17.4,12,18,11.4z M12.8,8.4c-0.2-0.3-0.3-0.2-0.1,0.2
	c0.1,0.1,0.2,0.2,0.2,0.2C13,8.7,12.9,8.6,12.8,8.4z M12,7c0.2-0.4,0.2-0.4-0.2-1c-0.3-0.4-0.4-0.5-0.4-0.4c-0.1,0.3-0.3,0.3-0.7,0
	c-0.3-0.2-0.3-0.2-0.2,0.2c0,0.2,0,0.5,0,0.5c-0.1,0-0.4-0.1-0.8-0.4L9.1,5.6L9,5.9c0,0.2-0.1,0.4-0.2,0.4c-0.2,0-0.5-0.5-0.5-0.8
	c0-0.4-0.2-0.2-0.7,0.6L7,7l0.4,0c0.2,0,0.5,0,0.5-0.1c0.2-0.2,2.2-0.2,2.9,0.1C11.7,7.4,11.8,7.4,12,7L12,7z M13.4,25.1l-0.6-0.3
	v-1.6l1-0.5c0.5-0.3,1-0.5,1.1-0.5c0.1,0,0.8,1.1,0.8,1.3c0,0.2-1.4,1.8-1.6,1.8C14,25.4,13.7,25.3,13.4,25.1z M12,24.3
	c-0.2-0.2-0.4-0.5-0.4-0.5c0,0,0.3-0.1,0.6-0.3l0.5-0.2v0.7c0,0.4,0,0.7-0.1,0.7C12.4,24.8,12.2,24.6,12,24.3L12,24.3z M15.5,22.7
	c-0.3-0.5-0.4-0.6-0.1-0.7c0.1-0.1,0.6-0.4,1.1-0.7c0.9-0.5,1.2-0.7,1.2-0.4c0,0.1-1.5,2.2-1.7,2.3C16,23.2,15.7,23,15.5,22.7
	L15.5,22.7z"/>
</svg>
