<svg xmlns="http://www.w3.org/2000/svg" xmlns:xlink="http://www.w3.org/1999/xlink" viewBox="0,0,256,256" width="96px" height="96px" fill-rule="nonzero"><g fill="#ffffff" fill-rule="nonzero" stroke="none" stroke-width="1" stroke-linecap="butt" stroke-linejoin="miter" stroke-miterlimit="10" stroke-dasharray="" stroke-dashoffset="0" font-family="none" font-weight="none" font-size="none" text-anchor="none" style="mix-blend-mode: normal"><g transform="scale(10.66667,10.66667)"><path d="M12,2l-9.99609,6.60156l-0.00391,6.79688l9.99219,6.60156l9.99609,-6.60156l0.00391,-6.79687zM12,14l-3,-2l3,-2l3,2zM13,8.26172v-3.20312l6.23438,4.11719l-2.43359,1.62109zM11,8.26172l-3.80469,2.53516l-2.42969,-1.62109l6.23438,-4.11719zM5.39453,12l-1.39453,0.92969l0.00391,-1.85547zM7.19531,13.20313l3.80469,2.53516v3.20703l-6.23828,-4.12109zM13,15.73828l3.80078,-2.53516l2.42969,1.61719l-6.23437,4.11719v-3.19922zM18.60547,12l1.38672,-0.92578l-0.00391,1.84766z"></path></g></g></svg>